<?xml version="1.0" encoding="UTF-8"?>
<!DOCTYPE svg PUBLIC "-//W3C//DTD SVG 1.1//EN" "http://www.w3.org/Graphics/SVG/1.1/DTD/svg11.dtd">
<svg version="1.1" xmlns="http://www.w3.org/2000/svg" xmlns:xlink="http://www.w3.org/1999/xlink" x="0" y="0" width="37.061" height="37.061" viewBox="0, 0, 37.061, 37.061">
  <g id="Ebene_1">
    <g>
      <path d="M14.862,18.567 C14.862,16.554 16.501,14.918 18.513,14.918 C20.525,14.918 22.163,16.556 22.163,18.567 C22.163,20.58 20.524,22.217 18.513,22.217 C16.5,22.218 14.862,20.58 14.862,18.567 z M20.664,18.567 C20.664,17.381 19.699,16.418 18.514,16.418 C17.329,16.418 16.363,17.383 16.363,18.567 C16.363,19.753 17.329,20.717 18.514,20.717 C19.699,20.718 20.664,19.753 20.664,18.567 z" fill="#FFFFFF"/>
      <path d="M28.427,21.572 L28.427,15.56 C28.427,15.287 28.577,15.035 28.817,14.903 C29.058,14.771 29.351,14.782 29.583,14.929 L34.267,17.934 C34.698,18.21 34.697,18.92 34.267,19.198 L29.583,22.203 C29.352,22.35 29.059,22.362 28.817,22.229 C28.577,22.099 28.427,21.847 28.427,21.572 z M29.927,16.933 L29.927,20.201 L32.472,18.566 L29.927,16.933 z" fill="#FFFFFF"/>
      <g>
        <path d="M18.513,3.161 L15.509,7.845 L21.519,7.845 L18.513,3.161 z" fill="#FFFFFF"/>
        <path d="M14.759,7.845 C14.759,7.704 14.799,7.563 14.878,7.44 L17.881,2.756 C18.019,2.541 18.257,2.411 18.512,2.411 C18.767,2.411 19.005,2.541 19.143,2.756 L22.149,7.44 C22.297,7.67 22.307,7.964 22.176,8.206 C22.045,8.446 21.792,8.596 21.518,8.596 L15.508,8.596 C15.234,8.596 14.982,8.448 14.85,8.206 C14.789,8.092 14.759,7.968 14.759,7.845 z M18.513,4.55 L16.881,7.095 L20.146,7.095 L18.513,4.55 z" fill="#FFFFFF"/>
      </g>
      <path d="M14.759,29.231 C14.759,29.107 14.789,28.985 14.851,28.873 C14.983,28.632 15.235,28.481 15.509,28.481 L21.519,28.481 C21.793,28.481 22.045,28.63 22.177,28.873 C22.308,29.112 22.3,29.406 22.15,29.638 L19.145,34.323 C19.007,34.538 18.769,34.668 18.514,34.668 C18.259,34.668 18.021,34.538 17.883,34.323 L14.879,29.638 C14.799,29.514 14.759,29.372 14.759,29.231 z M20.147,29.981 L16.881,29.981 L18.514,32.527 L20.147,29.981 z" fill="#FFFFFF"/>
      <path d="M2.417,18.566 L2.417,18.566 C2.417,18.311 2.547,18.074 2.762,17.935 L7.446,14.93 C7.677,14.783 7.97,14.772 8.212,14.904 C8.454,15.036 8.603,15.288 8.603,15.561 L8.603,21.573 C8.603,21.846 8.455,22.098 8.212,22.23 C7.972,22.363 7.679,22.351 7.446,22.204 L2.762,19.199 C2.547,19.059 2.417,18.822 2.417,18.566 z M7.101,16.933 L4.556,18.566 L7.101,20.201 L7.101,16.933 z" fill="#FFFFFF"/>
    </g>
    <path d="M18.53,0 C28.765,0 37.061,8.296 37.061,18.531 C37.061,28.765 28.765,37.061 18.53,37.061 C8.296,37.061 0,28.765 0,18.531 C0,8.296 8.296,0 18.53,0 z M18.53,1 C8.849,1 1,8.849 1,18.531 C1,28.212 8.849,36.061 18.53,36.061 C28.212,36.061 36.061,28.212 36.061,18.531 C36.061,8.849 28.212,1 18.53,1 z" fill="#FFFFFF"/>
  </g>
</svg>
