<?xml version="1.0" encoding="UTF-8"?>
<!DOCTYPE svg PUBLIC "-//W3C//DTD SVG 1.1//EN" "http://www.w3.org/Graphics/SVG/1.1/DTD/svg11.dtd">
<svg version="1.1" xmlns="http://www.w3.org/2000/svg" xmlns:xlink="http://www.w3.org/1999/xlink" x="0" y="0" width="37.061" height="37.061" viewBox="0, 0, 37.061, 37.061">
  <g id="Ebene_1">
    <path d="M22.145,18.512 C22.145,20.525 20.506,22.161 18.494,22.161 C16.482,22.161 14.844,20.523 14.844,18.512 C14.844,16.499 16.483,14.862 18.494,14.862 C20.507,14.861 22.145,16.499 22.145,18.512 z M16.343,18.512 C16.343,19.698 17.308,20.661 18.493,20.661 C19.678,20.661 20.644,19.696 20.644,18.512 C20.644,17.326 19.678,16.362 18.493,16.362 C17.308,16.361 16.343,17.326 16.343,18.512 z" fill="#FFFFFF"/>
    <path d="M8.58,15.507 L8.58,21.519 C8.58,21.792 8.43,22.044 8.19,22.176 C7.949,22.308 7.656,22.297 7.424,22.15 L2.74,19.145 C2.309,18.869 2.31,18.159 2.74,17.881 L7.424,14.876 C7.655,14.729 7.948,14.717 8.19,14.85 C8.43,14.98 8.58,15.232 8.58,15.507 z M7.08,20.146 L7.08,16.878 L4.535,18.513 L7.08,20.146 z" fill="#FFFFFF"/>
    <g>
      <path d="M18.494,33.918 L21.498,29.234 L15.488,29.234 L18.494,33.918 z" fill="#FFFFFF"/>
      <path d="M22.248,29.234 C22.248,29.375 22.208,29.516 22.129,29.639 L19.126,34.323 C18.988,34.538 18.75,34.668 18.495,34.668 C18.24,34.668 18.002,34.538 17.864,34.323 L14.858,29.639 C14.71,29.409 14.7,29.115 14.831,28.873 C14.962,28.633 15.215,28.483 15.489,28.483 L21.499,28.483 C21.773,28.483 22.025,28.631 22.157,28.873 C22.218,28.987 22.248,29.111 22.248,29.234 z M18.494,32.529 L20.126,29.984 L16.861,29.984 L18.494,32.529 z" fill="#FFFFFF"/>
    </g>
    <path d="M22.248,7.848 C22.248,7.972 22.218,8.094 22.156,8.206 C22.024,8.447 21.772,8.598 21.498,8.598 L15.488,8.598 C15.214,8.598 14.962,8.449 14.83,8.206 C14.699,7.967 14.707,7.673 14.857,7.441 L17.862,2.756 C18,2.541 18.238,2.411 18.493,2.411 C18.748,2.411 18.986,2.541 19.124,2.756 L22.128,7.441 C22.208,7.565 22.248,7.707 22.248,7.848 z M16.86,7.098 L20.126,7.098 L18.493,4.552 L16.86,7.098 z" fill="#FFFFFF"/>
    <path d="M34.59,18.513 L34.59,18.513 C34.59,18.768 34.46,19.005 34.245,19.144 L29.561,22.149 C29.33,22.296 29.037,22.307 28.795,22.175 C28.553,22.043 28.404,21.791 28.404,21.518 L28.404,15.506 C28.404,15.233 28.552,14.981 28.795,14.849 C29.035,14.716 29.328,14.728 29.561,14.875 L34.245,17.88 C34.46,18.02 34.59,18.257 34.59,18.513 z M29.906,20.146 L32.451,18.513 L29.906,16.878 L29.906,20.146 z" fill="#FFFFFF"/>
    <path d="M18.53,0 C28.765,0 37.061,8.296 37.061,18.531 C37.061,28.765 28.765,37.061 18.53,37.061 C8.296,37.061 0,28.765 0,18.531 C0,8.296 8.296,0 18.53,0 z M18.53,1 C8.849,1 1,8.849 1,18.531 C1,28.212 8.849,36.061 18.53,36.061 C28.212,36.061 36.061,28.212 36.061,18.531 C36.061,8.849 28.212,1 18.53,1 z" fill="#FFFFFF"/>
  </g>
</svg>
