<?xml version="1.0" encoding="utf-8"?>
<!-- Generator: Adobe Illustrator 16.0.3, SVG Export Plug-In . SVG Version: 6.00 Build 0)  -->
<!DOCTYPE svg PUBLIC "-//W3C//DTD SVG 1.1//EN" "http://www.w3.org/Graphics/SVG/1.1/DTD/svg11.dtd">
<svg version="1.1" id="Ebene_1" xmlns="http://www.w3.org/2000/svg" xmlns:xlink="http://www.w3.org/1999/xlink" x="0px" y="0px"
	 width="38.446px" height="19.138px" viewBox="0 0 38.446 19.138" enable-background="new 0 0 38.446 19.138" xml:space="preserve">
<g>
	<g>
		<g>
			<path fill="#777777" d="M34.601,11.223H3.845C1.722,11.223,0,12.994,0,15.18s1.722,3.958,3.845,3.958h30.756
				c2.123,0,3.844-1.772,3.844-3.958S36.724,11.223,34.601,11.223z"/>
		</g>
	</g>
	<path fill="#777777" d="M35.029,7.648h1.224V1.375h2.193V0.209h-5.609v1.166h2.192V7.648z M32.033,2.959
		C31.901,1.353,30.855,0,28.843,0c-2.298,0-3.264,1.832-3.264,3.929c0,2.094,1.008,3.929,3.117,3.929
		c2.404,0,3.164-1.573,3.336-3.055h-1.325c-0.099,0.782-0.524,1.89-1.8,1.89c-1.211,0-2.053-1.078-2.053-2.63
		c0-1.939,0.842-2.898,1.971-2.898c1.031,0,1.76,0.667,1.882,1.794H32.033z M19.437,7.648h5.135V6.483h-3.911V4.419h3.691V3.253
		h-3.691V1.375h3.845V0.209h-5.069V7.648z M13.571,7.648h4.775V6.422h-3.55V0.209h-1.225V7.648z M7.1,7.648h5.136V6.483h-3.91V4.419
		h3.689V3.253H8.326V1.375h3.846V0.209H7.1V7.648z M0.319,2.302c0,3.052,4.303,1.446,4.303,3.29c0,0.818-0.695,1.101-1.44,1.101
		c-1.006,0-1.644-0.472-1.677-1.454H0.181c0.016,1.564,0.858,2.619,2.961,2.619c1.243,0,2.805-0.501,2.805-2.42
		c0-3.178-4.352-1.502-4.352-3.25c0-0.699,0.54-1.023,1.357-1.023c1.023,0,1.433,0.625,1.474,1.2h1.325C5.596,0.207,3.796,0,2.896,0
		C1.472,0,0.319,0.645,0.319,2.302"/>
</g>
</svg>
