<?xml version="1.0" encoding="utf-8"?>
<!-- Generator: Adobe Illustrator 17.0.0, SVG Export Plug-In . SVG Version: 6.00 Build 0)  -->
<!DOCTYPE svg PUBLIC "-//W3C//DTD SVG 1.1//EN" "http://www.w3.org/Graphics/SVG/1.1/DTD/svg11.dtd">
<svg version="1.1" id="_x30_" xmlns="http://www.w3.org/2000/svg" xmlns:xlink="http://www.w3.org/1999/xlink" x="0px" y="0px"
	 width="37.061px" height="37.061px" viewBox="0 0 37.061 37.061" enable-background="new 0 0 37.061 37.061" xml:space="preserve">
<path fill="#FFFFFF" d="M13.973,16.086h1.779c0.722,0,1.117,0.312,1.117,1.022c0,0.747-0.396,1.06-1.117,1.06h-1.779V16.086z
	 M12.353,22.212h1.62v-2.886h1.625c0.816,0,1.117,0.342,1.23,1.118c0.082,0.589,0.061,1.304,0.258,1.769h1.621
	c-0.289-0.414-0.279-1.28-0.313-1.748c-0.051-0.744-0.275-1.521-1.07-1.728c0,0,1.166-0.303,1.166-1.873
	c0-1.118-0.838-2.036-2.16-2.036h-3.979L12.353,22.212L12.353,22.212z"/>
<g>
	<path fill="#FFFFFF" d="M29.254,11.526c3.478,0,6.307,3.14,6.307,6.996c0,3.866-2.829,7.012-6.307,7.012H7.76
		c-3.452-0.03-6.26-3.177-6.26-7.012c0-3.827,2.808-6.966,6.247-6.996L29.254,11.526 M29.254,10.026c-0.021,0-21.507,0-21.507,0
		C3.466,10.063,0,13.846,0,18.522c0,4.679,3.466,8.473,7.747,8.512c0,0,21.483,0,21.507,0c4.313,0,7.807-3.812,7.807-8.512
		C37.061,13.823,33.566,10.026,29.254,10.026L29.254,10.026z"/>
</g>
<g>
	<path fill="#FFFFFF" d="M25.089,20.939v1.274h-4.81c0.052-0.482,0.208-0.938,0.469-1.37c0.261-0.431,0.774-1.003,1.543-1.716
		c0.618-0.577,0.998-0.967,1.138-1.172c0.188-0.283,0.283-0.563,0.283-0.84c0-0.306-0.082-0.541-0.246-0.706
		c-0.165-0.165-0.392-0.247-0.682-0.247c-0.286,0-0.515,0.086-0.684,0.259s-0.267,0.459-0.293,0.859l-1.367-0.137
		c0.081-0.755,0.337-1.297,0.767-1.626s0.967-0.493,1.611-0.493c0.706,0,1.262,0.19,1.665,0.571s0.605,0.854,0.605,1.421
		c0,0.322-0.058,0.629-0.174,0.92c-0.115,0.292-0.298,0.597-0.549,0.916c-0.166,0.211-0.466,0.516-0.898,0.914
		c-0.433,0.396-0.707,0.66-0.822,0.791c-0.116,0.13-0.21,0.257-0.281,0.381H25.089z"/>
</g>
</svg>
