<?xml version="1.0" encoding="utf-8"?>
<!-- Generator: Adobe Illustrator 16.0.3, SVG Export Plug-In . SVG Version: 6.00 Build 0)  -->
<!DOCTYPE svg PUBLIC "-//W3C//DTD SVG 1.1//EN" "http://www.w3.org/Graphics/SVG/1.1/DTD/svg11.dtd">
<svg version="1.1" id="B" xmlns="http://www.w3.org/2000/svg" xmlns:xlink="http://www.w3.org/1999/xlink" x="0px" y="0px"
	 width="37.061px" height="37.061px" viewBox="0 0 37.061 37.061" enable-background="new 0 0 37.061 37.061" xml:space="preserve">
<g>
	<g>
		<path fill="#777777" d="M19.47,18.949h-2.699v3.887h2.496c0.717,0,1.266-0.154,1.643-0.467c0.378-0.313,0.564-0.772,0.564-1.384
			c0-0.66-0.16-1.165-0.481-1.513C20.671,19.124,20.163,18.949,19.47,18.949z M20.389,16.63c0.39-0.297,0.585-0.729,0.585-1.299
			c0-0.625-0.197-1.086-0.59-1.383c-0.393-0.296-0.979-0.445-1.758-0.445h-1.855v3.572h1.948
			C19.442,17.075,19.999,16.927,20.389,16.63z M18.53,3.03c-8.561,0-15.5,6.939-15.5,15.5c0,8.56,6.939,15.5,15.5,15.5
			c8.562,0,15.5-6.939,15.5-15.5S27.091,3.03,18.53,3.03z M22.894,23.927c-0.854,0.665-2.063,0.997-3.627,0.997h-5.205V11.416h4.564
			c1.59,0,2.83,0.31,3.721,0.929c0.891,0.617,1.336,1.543,1.336,2.773c0,0.625-0.166,1.184-0.496,1.674
			c-0.332,0.492-0.813,0.861-1.442,1.109c0.811,0.173,1.418,0.544,1.822,1.113c0.405,0.568,0.607,1.228,0.607,1.976
			C24.174,22.283,23.747,23.262,22.894,23.927z"/>
	</g>
</g>
<g opacity="0">
	<path fill="#FFFFFF" d="M36.961,0.1v36.861H0.1V0.1H36.961 M37.061,0H0V37.06h37.061V0L37.061,0z"/>
</g>
</svg>
