<?xml version="1.0" encoding="utf-8"?>
<!-- Generator: Adobe Illustrator 17.0.0, SVG Export Plug-In . SVG Version: 6.00 Build 0)  -->
<!DOCTYPE svg PUBLIC "-//W3C//DTD SVG 1.1//EN" "http://www.w3.org/Graphics/SVG/1.1/DTD/svg11.dtd">
<svg version="1.1" id="B" xmlns="http://www.w3.org/2000/svg" xmlns:xlink="http://www.w3.org/1999/xlink" x="0px" y="0px"
	 width="37.061px" height="37.061px" viewBox="0 0 37.061 37.061" enable-background="new 0 0 37.061 37.061" xml:space="preserve">
<g>
	<g>
		<path fill="#FFFFFF" d="M18.53,3.031c-8.561,0-15.5,6.938-15.5,15.5c0,8.56,6.939,15.5,15.5,15.5c8.563,0,15.5-6.939,15.5-15.5
			C34.03,9.969,27.091,3.031,18.53,3.031z M26.156,28.906l-7.658-4.975l-7.716,4.885l2.365-8.82l-7.03-5.829l9.12-0.477l3.371-8.487
			l3.271,8.526l9.113,0.583l-7.098,5.746L26.156,28.906z"/>
	</g>
</g>
<g opacity="0">
	<path fill="#FFFFFF" d="M36.961,0.1v36.861H0.1V0.1H36.961 M37.061,0H0v37.06h37.061V0L37.061,0z"/>
</g>
</svg>
