<?xml version="1.0" encoding="utf-8"?>
<!-- Generator: Adobe Illustrator 16.0.3, SVG Export Plug-In . SVG Version: 6.00 Build 0)  -->
<!DOCTYPE svg PUBLIC "-//W3C//DTD SVG 1.1//EN" "http://www.w3.org/Graphics/SVG/1.1/DTD/svg11.dtd">
<svg version="1.1" id="Ebene_1" xmlns="http://www.w3.org/2000/svg" xmlns:xlink="http://www.w3.org/1999/xlink" x="0px" y="0px"
	 width="38.256px" height="17.007px" viewBox="0 0 38.256 17.007" enable-background="new 0 0 38.256 17.007" xml:space="preserve">
<g>
	<path fill="#777777" d="M30.45,1.5c3.477,0,6.306,3.139,6.306,6.997c0,3.866-2.829,7.01-6.306,7.01H7.76
		c-3.452-0.03-6.26-3.175-6.26-7.01C1.5,4.669,4.308,1.53,7.747,1.5H30.45 M30.45,0C30.428,0,7.747,0,7.747,0
		C3.466,0.038,0,3.819,0,8.497s3.466,8.473,7.747,8.51c0,0,22.681,0,22.703,0c4.312,0,7.806-3.811,7.806-8.51
		C38.256,3.796,34.762,0,30.45,0L30.45,0z"/>
</g>
<path fill="#777777" d="M17.569,6.067h1.779c0.723,0,1.116,0.311,1.116,1.024c0,0.747-0.394,1.058-1.116,1.058h-1.779V6.067z
	 M15.949,12.194h1.621V9.307h1.625c0.816,0,1.116,0.342,1.229,1.118c0.082,0.59,0.062,1.305,0.258,1.77h1.622
	c-0.29-0.414-0.28-1.283-0.311-1.748c-0.052-0.746-0.278-1.522-1.073-1.728c0,0,1.167-0.302,1.167-1.874
	c0-1.118-0.836-2.037-2.16-2.037h-3.978V12.194z"/>
</svg>
