<?xml version="1.0" encoding="utf-8"?>
<!-- Generator: Adobe Illustrator 13.0.0, SVG Export Plug-In . SVG Version: 6.00 Build 14948)  -->
<!DOCTYPE svg PUBLIC "-//W3C//DTD SVG 1.1//EN" "http://www.w3.org/Graphics/SVG/1.1/DTD/svg11.dtd">
<svg version="1.1" id="_x30_" xmlns="http://www.w3.org/2000/svg" xmlns:xlink="http://www.w3.org/1999/xlink" x="0px" y="0px"
	 width="37.061px" height="37.061px" viewBox="0 0 37.061 37.061" enable-background="new 0 0 37.061 37.061" xml:space="preserve">
<g>
	<g>
		<path fill="#FFFFFF" d="M19.165,10.469c-0.752,0-1.36,0.243-1.822,0.727c-0.461,0.485-0.691,1.216-0.691,2.194
			c0,0.961,0.237,1.691,0.71,2.187c0.473,0.497,1.075,0.745,1.803,0.745c0.729,0,1.329-0.247,1.795-0.739
			c0.468-0.492,0.702-1.231,0.702-2.216c0-0.973-0.229-1.7-0.683-2.179C20.525,10.708,19.921,10.469,19.165,10.469z M28.758,1.565
			H8.111c-3.601,0-6.52,2.919-6.52,6.52v20.646c0,3.603,2.919,6.521,6.52,6.521h20.647c3.602,0,6.521-2.918,6.521-6.521V8.085
			C35.279,4.485,32.36,1.565,28.758,1.565z M6.008,9.148h1.828v3.343h3.583V9.148h1.829v8.494h-1.829v-3.714H7.836v3.714H6.008
			V9.148z M11.827,28.508l-2.49-3.986L7.855,25.94v2.568H6.026v-8.494h1.829v3.771l3.694-3.771h2.459l-3.41,3.309l3.595,5.186
			H11.827z M22.026,28.508h-6.887v-8.494h6.715v1.437h-4.886v1.883h4.545v1.433h-4.545v2.31h5.058V28.508z M19.172,17.787
			c-1.346,0-2.417-0.385-3.212-1.156c-0.794-0.771-1.192-1.832-1.192-3.184c0-0.866,0.138-1.592,0.414-2.179
			c0.206-0.433,0.487-0.821,0.843-1.165c0.357-0.343,0.747-0.598,1.171-0.765c0.564-0.224,1.215-0.336,1.952-0.336
			c1.335,0,2.402,0.389,3.203,1.165c0.8,0.776,1.201,1.856,1.201,3.239c0,1.372-0.396,2.444-1.192,3.219
			C21.566,17.4,20.502,17.787,19.172,17.787z M27.778,24.945v3.563h-1.823v-3.573l-3.317-4.921h2.144l2.132,3.36L29,20.014h2.106
			L27.778,24.945z M31.527,10.585h-2.681v7.057h-1.828v-7.057h-2.687V9.148h7.195V10.585z"/>
	</g>
</g>
</svg>
