<?xml version="1.0" encoding="utf-8"?>
<!-- Generator: Adobe Illustrator 16.0.3, SVG Export Plug-In . SVG Version: 6.00 Build 0)  -->
<!DOCTYPE svg PUBLIC "-//W3C//DTD SVG 1.1//EN" "http://www.w3.org/Graphics/SVG/1.1/DTD/svg11.dtd">
<svg version="1.1" id="Ebene_1" xmlns="http://www.w3.org/2000/svg" xmlns:xlink="http://www.w3.org/1999/xlink" x="0px" y="0px"
	 width="38.446px" height="19.138px" viewBox="0 0 38.446 19.138" enable-background="new 0 0 38.446 19.138" xml:space="preserve">
<g>
	<g>
		<path fill="#777777" d="M34.602,11.242H3.845C1.722,11.242,0,13.014,0,15.199s1.722,3.959,3.845,3.959h30.757
			c2.123,0,3.844-1.773,3.844-3.959S36.725,11.242,34.602,11.242z"/>
	</g>
</g>
<path fill="#777777" d="M34.296,7.687h1.49V1.381h2.659V0.209h-6.81v1.171h2.66V7.687z M25.255,3.562V1.381h2.575
	c0.783,0,1.271,0.303,1.271,1.079c0,0.838-0.447,1.103-1.271,1.103H25.255z M23.769,7.687h1.486V4.733h2.534
	c1.094,0,1.232,0.754,1.232,1.822c0,0.545,0.07,0.922,0.18,1.131h1.607C30.52,7.278,30.51,6.441,30.51,6.083
	c0-1.057-0.186-1.832-1.031-2.02V4.041c0.666-0.219,1.17-0.828,1.17-1.802c0-1.162-0.584-2.029-2.391-2.029h-4.489V7.687z
	 M14.549,7.687h1.609l0.735-1.854h3.338l0.746,1.854h1.659l-3.16-7.478h-1.768L14.549,7.687z M17.341,4.662l1.23-3.156l1.213,3.156
	H17.341z M10.357,7.687h1.487V1.381h2.665V0.209H7.694v1.171h2.664V7.687z M0.185,2.313c0,3.066,5.225,1.453,5.225,3.307
	c0,0.822-0.844,1.105-1.749,1.105c-1.22,0-1.996-0.473-2.036-1.459H0.016c0.02,1.572,1.043,2.631,3.596,2.631
	c1.51,0,3.406-0.504,3.406-2.432c0-3.193-5.284-1.508-5.284-3.266c0-0.702,0.656-1.027,1.649-1.027c1.241,0,1.739,0.628,1.789,1.205
	h1.609C6.591,0.207,4.406,0,3.314,0C1.584,0,0.185,0.646,0.185,2.313"/>
</svg>
