<?xml version="1.0" encoding="utf-8"?>
<!-- Generator: Adobe Illustrator 16.0.3, SVG Export Plug-In . SVG Version: 6.00 Build 0)  -->
<!DOCTYPE svg PUBLIC "-//W3C//DTD SVG 1.1//EN" "http://www.w3.org/Graphics/SVG/1.1/DTD/svg11.dtd">
<svg version="1.1" id="Ebene_1" xmlns="http://www.w3.org/2000/svg" xmlns:xlink="http://www.w3.org/1999/xlink" x="0px" y="0px"
	 width="31px" height="31.001px" viewBox="0 0 31 31.001" enable-background="new 0 0 31 31.001" xml:space="preserve">
<g>
	<g>
		<path fill="#777777" d="M16.44,15.92h-2.7v3.887h2.496c0.718,0,1.266-0.155,1.643-0.467s0.565-0.772,0.565-1.384
			c0-0.66-0.161-1.164-0.482-1.514C17.64,16.094,17.132,15.92,16.44,15.92z M17.359,13.601c0.389-0.297,0.584-0.73,0.584-1.299
			c0-0.625-0.196-1.086-0.589-1.383c-0.394-0.297-0.979-0.445-1.759-0.445H13.74v3.572h1.948
			C16.412,14.046,16.968,13.896,17.359,13.601z M15.5,0C6.939,0,0,6.939,0,15.5c0,8.562,6.939,15.501,15.5,15.501S31,24.062,31,15.5
			C31,6.939,24.06,0,15.5,0z M19.863,20.897c-0.854,0.664-2.063,0.997-3.627,0.997h-5.205V8.387h4.564
			c1.59,0,2.83,0.309,3.721,0.928c0.891,0.618,1.336,1.543,1.336,2.773c0,0.625-0.166,1.183-0.496,1.675
			c-0.331,0.491-0.813,0.861-1.443,1.108c0.811,0.173,1.418,0.544,1.824,1.113c0.404,0.569,0.607,1.228,0.607,1.977
			C21.144,19.253,20.716,20.232,19.863,20.897z"/>
	</g>
</g>
</svg>
