<?xml version="1.0" encoding="UTF-8" standalone="no"?>
<!-- Generator: Adobe Illustrator 16.0.3, SVG Export Plug-In . SVG Version: 6.00 Build 0)  -->

<svg
   xmlns:dc="http://purl.org/dc/elements/1.1/"
   xmlns:cc="http://creativecommons.org/ns#"
   xmlns:rdf="http://www.w3.org/1999/02/22-rdf-syntax-ns#"
   xmlns:svg="http://www.w3.org/2000/svg"
   xmlns="http://www.w3.org/2000/svg"
   xmlns:sodipodi="http://sodipodi.sourceforge.net/DTD/sodipodi-0.dtd"
   xmlns:inkscape="http://www.inkscape.org/namespaces/inkscape"
   version="1.1"
   id="_x30_"
   x="0px"
   y="0px"
   width="37.061px"
   height="37.061px"
   viewBox="0 0 37.061 37.061"
   enable-background="new 0 0 37.061 37.061"
   xml:space="preserve"
   inkscape:version="0.48.5 r10040"
   sodipodi:docname="button_l3svg.svg"><metadata
     id="metadata17"><rdf:RDF><cc:Work
         rdf:about=""><dc:format>image/svg+xml</dc:format><dc:type
           rdf:resource="http://purl.org/dc/dcmitype/StillImage" /><dc:title></dc:title></cc:Work></rdf:RDF></metadata><defs
     id="defs15" /><sodipodi:namedview
     pagecolor="#000000"
     bordercolor="#666666"
     borderopacity="1"
     objecttolerance="10"
     gridtolerance="10"
     guidetolerance="10"
     inkscape:pageopacity="1"
     inkscape:pageshadow="2"
     inkscape:window-width="1224"
     inkscape:window-height="870"
     id="namedview13"
     showgrid="false"
     inkscape:zoom="6.3678798"
     inkscape:cx="-1.099267"
     inkscape:cy="18.5305"
     inkscape:window-x="630"
     inkscape:window-y="47"
     inkscape:window-maximized="0"
     inkscape:current-layer="g5" /><g
     id="g3"><g
       id="g5"><path
         style="fill:#ffffff"
         d="M 18.53125 3.03125 C 9.9692496 3.03125 3.03125 9.9712496 3.03125 18.53125 C 3.03125 27.09425 9.9692496 34.03125 18.53125 34.03125 C 27.09325 34.03125 34.03125 27.09325 34.03125 18.53125 C 34.03125 9.9722496 27.09125 3.03125 18.53125 3.03125 z M 24.09375 11.53125 C 25.616745 11.531264 26.777592 11.795432 27.53125 12.375 C 28.290125 12.948558 28.65624 13.840848 28.65625 15 C 28.65624 15.790897 28.486115 16.430375 28.125 16.9375 C 27.763868 17.438604 27.206538 17.794739 26.5 18 C 27.290278 18.235463 27.904263 18.633137 28.3125 19.21875 C 28.725951 19.798336 28.937491 20.537946 28.9375 21.4375 C 28.937491 22.777786 28.483467 23.799674 27.59375 24.5 C 26.704016 25.194291 25.424924 25.53125 23.71875 25.53125 C 23.116872 25.53125 22.482104 25.48971 21.875 25.375 C 21.273124 25.266328 20.685155 25.098381 20.09375 24.875 L 20.09375 22.1875 C 20.658986 22.513518 21.226478 22.768458 21.78125 22.9375 C 22.341251 23.100509 22.898427 23.156252 23.4375 23.15625 C 24.238249 23.156252 24.857315 23.007479 25.28125 22.6875 C 25.710405 22.367526 25.906243 21.910197 25.90625 21.3125 C 25.906243 20.696699 25.689623 20.220194 25.25 19.90625 C 24.815598 19.586278 24.165585 19.437505 23.3125 19.4375 L 22.125 19.4375 L 22.125 17.1875 L 23.375 17.1875 C 24.133879 17.187509 24.690903 17.052938 25.0625 16.78125 C 25.434085 16.503542 25.624993 16.092729 25.625 15.53125 C 25.624993 15.012051 25.454868 14.596264 25.09375 14.3125 C 24.732621 14.028757 24.221939 13.906262 23.5625 13.90625 C 23.075764 13.906262 22.590947 13.966974 22.09375 14.09375 C 21.596548 14.220544 21.085714 14.408731 20.59375 14.65625 L 20.59375 12.09375 C 21.190388 11.90057 21.788825 11.75286 22.375 11.65625 C 22.961169 11.559662 23.528507 11.531264 24.09375 11.53125 z M 8.125 11.75 L 12.75 11.75 C 14.293929 11.750014 15.407976 12.058571 16.125 12.65625 C 16.847238 13.253956 17.21874 14.208026 17.21875 15.5 C 17.21874 16.393531 17.033065 17.113964 16.65625 17.6875 C 16.284649 18.261051 15.722391 18.697079 14.96875 18.96875 C 15.382203 19.077428 15.738002 19.332368 16.0625 19.71875 C 16.392212 20.099106 16.727535 20.658692 17.0625 21.4375 L 18.71875 25.28125 L 15.5 25.28125 L 14.0625 21.9375 C 13.77464 21.261326 13.485814 20.778785 13.1875 20.53125 C 12.894408 20.283726 12.49196 20.156255 12 20.15625 L 11.15625 20.15625 L 11.15625 25.28125 L 8.125 25.28125 L 8.125 11.75 z M 11.15625 14.28125 L 11.15625 17.75 L 12.4375 17.75 C 13.07077 17.750008 13.509091 17.615437 13.78125 17.34375 C 14.058628 17.07208 14.187493 16.621852 14.1875 16 C 14.187493 15.384205 14.058628 14.953152 13.78125 14.6875 C 13.509091 14.421869 13.07077 14.281261 12.4375 14.28125 L 11.15625 14.28125 z "
         id="path7" /><text
         xml:space="preserve"
         style="font-size:12.99999971px;font-style:normal;font-weight:normal;line-height:125%;letter-spacing:0px;word-spacing:0px;fill:#000000;fill-opacity:1;stroke:none;font-family:Sans"
         x="8.4800596"
         y="20.729034"
         id="text2994"
         sodipodi:linespacing="125%"><tspan
           sodipodi:role="line"
           id="tspan2996"></tspan></text>
<g
         transform="scale(0.9310694,1.0740338)"
         style="font-size:34.53636551px;font-style:normal;font-weight:normal;line-height:125%;letter-spacing:0px;word-spacing:0px;fill:#000000;fill-opacity:1;stroke:none;font-family:Sans"
         id="text2998" /></g></g><g
     opacity="0"
     id="g9"><path
       fill="#FFFFFF"
       d="M36.961,0.1v36.861H0.1V0.1H36.961 M37.061,0H0v37.06h37.061V0L37.061,0z"
       id="path11" /></g></svg>