<?xml version="1.0" encoding="UTF-8" standalone="no"?>
<!-- Generator: Adobe Illustrator 16.0.3, SVG Export Plug-In . SVG Version: 6.00 Build 0)  -->

<svg
   xmlns:dc="http://purl.org/dc/elements/1.1/"
   xmlns:cc="http://creativecommons.org/ns#"
   xmlns:rdf="http://www.w3.org/1999/02/22-rdf-syntax-ns#"
   xmlns:svg="http://www.w3.org/2000/svg"
   xmlns="http://www.w3.org/2000/svg"
   xmlns:sodipodi="http://sodipodi.sourceforge.net/DTD/sodipodi-0.dtd"
   xmlns:inkscape="http://www.inkscape.org/namespaces/inkscape"
   version="1.1"
   id="_x30_"
   x="0px"
   y="0px"
   width="37.061px"
   height="37.061px"
   viewBox="0 0 37.061 37.061"
   enable-background="new 0 0 37.061 37.061"
   xml:space="preserve"
   inkscape:version="0.48.5 r10040"
   sodipodi:docname="button_l3svg.svg"><metadata
     id="metadata17"><rdf:RDF><cc:Work
         rdf:about=""><dc:format>image/svg+xml</dc:format><dc:type
           rdf:resource="http://purl.org/dc/dcmitype/StillImage" /><dc:title></dc:title></cc:Work></rdf:RDF></metadata><defs
     id="defs15" /><sodipodi:namedview
     pagecolor="#000000"
     bordercolor="#666666"
     borderopacity="1"
     objecttolerance="10"
     gridtolerance="10"
     guidetolerance="10"
     inkscape:pageopacity="1"
     inkscape:pageshadow="2"
     inkscape:window-width="1224"
     inkscape:window-height="870"
     id="namedview13"
     showgrid="false"
     inkscape:zoom="6.3678798"
     inkscape:cx="-1.099267"
     inkscape:cy="18.5305"
     inkscape:window-x="630"
     inkscape:window-y="47"
     inkscape:window-maximized="0"
     inkscape:current-layer="g5" /><g
     id="g3"><g
       id="g5"><path
         style="fill:#ffffff"
         d="M 18.53125 3.03125 C 9.9692496 3.03125 3.03125 9.9712496 3.03125 18.53125 C 3.03125 27.09425 9.9692496 34.03125 18.53125 34.03125 C 27.09325 34.03125 34.03125 27.09325 34.03125 18.53125 C 34.03125 9.9722496 27.09125 3.03125 18.53125 3.03125 z M 23.53125 11.21875 C 25.054246 11.218764 26.183842 11.514182 26.9375 12.09375 C 27.696375 12.667307 28.09374 13.528348 28.09375 14.6875 C 28.09374 15.478397 27.892365 16.117875 27.53125 16.625 C 27.170117 17.126104 26.644038 17.482239 25.9375 17.6875 C 26.727778 17.922963 27.341763 18.351888 27.75 18.9375 C 28.163451 19.517087 28.343741 20.256696 28.34375 21.15625 C 28.343741 22.496536 27.920967 23.518424 27.03125 24.21875 C 26.141516 24.913041 24.831174 25.25 23.125 25.25 C 22.523122 25.25 21.919604 25.20846 21.3125 25.09375 C 20.710624 24.985078 20.122655 24.817131 19.53125 24.59375 L 19.53125 21.90625 C 20.096486 22.232268 20.663978 22.455958 21.21875 22.625 C 21.778751 22.788009 22.304677 22.875002 22.84375 22.875 C 23.644499 22.875002 24.263566 22.726229 24.6875 22.40625 C 25.116656 22.086276 25.343743 21.628947 25.34375 21.03125 C 25.343743 20.415449 25.127123 19.938944 24.6875 19.625 C 24.253098 19.305028 23.603086 19.156255 22.75 19.15625 L 21.53125 19.15625 L 21.53125 16.90625 L 22.8125 16.90625 C 23.571379 16.906259 24.128403 16.771688 24.5 16.5 C 24.871585 16.222292 25.062493 15.811479 25.0625 15.25 C 25.062493 14.730801 24.892368 14.315014 24.53125 14.03125 C 24.170121 13.747507 23.659439 13.593762 23 13.59375 C 22.513263 13.593762 21.997197 13.654474 21.5 13.78125 C 21.002798 13.908044 20.523214 14.096231 20.03125 14.34375 L 20.03125 11.8125 C 20.627888 11.61932 21.226325 11.47161 21.8125 11.375 C 22.398669 11.278412 22.966008 11.218764 23.53125 11.21875 z M 9.6875 11.46875 L 12.71875 11.46875 L 12.71875 22.34375 L 18.03125 22.34375 L 18.03125 25 L 9.6875 25 L 9.6875 11.46875 z "
         id="path7" /><text
         xml:space="preserve"
         style="font-size:12.99999971px;font-style:normal;font-weight:normal;line-height:125%;letter-spacing:0px;word-spacing:0px;fill:#000000;fill-opacity:1;stroke:none;font-family:Sans"
         x="8.4800596"
         y="20.729034"
         id="text2994"
         sodipodi:linespacing="125%"><tspan
           sodipodi:role="line"
           id="tspan2996"></tspan></text>
<g
         transform="scale(0.9310694,1.0740338)"
         style="font-size:34.53636551px;font-style:normal;font-weight:normal;line-height:125%;letter-spacing:0px;word-spacing:0px;fill:#000000;fill-opacity:1;stroke:none;font-family:Sans"
         id="text2998" /></g></g><g
     opacity="0"
     id="g9"><path
       fill="#FFFFFF"
       d="M36.961,0.1v36.861H0.1V0.1H36.961 M37.061,0H0v37.06h37.061V0L37.061,0z"
       id="path11" /></g></svg>