<?xml version="1.0" encoding="utf-8"?>
<!-- Generator: Adobe Illustrator 16.0.3, SVG Export Plug-In . SVG Version: 6.00 Build 0)  -->
<!DOCTYPE svg PUBLIC "-//W3C//DTD SVG 1.1//EN" "http://www.w3.org/Graphics/SVG/1.1/DTD/svg11.dtd">
<svg version="1.1" id="Ebene_1" xmlns="http://www.w3.org/2000/svg" xmlns:xlink="http://www.w3.org/1999/xlink" x="0px" y="0px"
	 width="37.134px" height="37.134px" viewBox="0 0 37.134 37.134" enable-background="new 0 0 37.134 37.134" xml:space="preserve">
<g>
	<g>
		<path fill="none" stroke="#777777" stroke-width="1.5" stroke-miterlimit="10" d="M33.976,12.641h-9.482V3.159
			c0,0,0-2.371-2.371-2.371h-7.111c0,0-2.369,0-2.369,2.371v9.482H3.158c0,0-2.371,0-2.371,2.37v7.112c0,0,0,2.371,2.371,2.371
			h9.484v9.481c0,0,0,2.371,2.369,2.371h7.111c0,0,2.371,0,2.371-2.371v-9.481h9.482c0,0,2.371,0,2.371-2.371v-7.112
			C36.347,15.011,36.347,12.641,33.976,12.641z"/>
	</g>
	<path fill="none" stroke="#777777" stroke-width="1.5" stroke-miterlimit="10" d="M18.568,21.468c1.602,0,2.9-1.299,2.9-2.901
		c0-1.602-1.299-2.9-2.9-2.9c-1.604,0-2.9,1.299-2.9,2.9C15.667,20.169,16.964,21.468,18.568,21.468z"/>
	<path fill="none" stroke="#777777" stroke-width="1.5" stroke-linejoin="round" stroke-miterlimit="10" d="M18.567,3.22
		l-3.005,4.684h6.011L18.567,3.22z"/>
	<path fill="none" stroke="#777777" stroke-width="1.5" stroke-linejoin="round" stroke-miterlimit="10" d="M3.162,18.568
		l4.684,3.005v-6.011L3.162,18.568z"/>
	<path fill="#777777" stroke="#777777" stroke-width="1.5" stroke-linejoin="round" stroke-miterlimit="10" d="M33.916,18.567
		l-4.684-3.005v6.01L33.916,18.567z"/>
	<path fill="none" stroke="#777777" stroke-width="1.5" stroke-linecap="round" stroke-linejoin="round" stroke-miterlimit="10" d="
		M18.567,33.915l3.006-4.684h-6.011L18.567,33.915z"/>
</g>
</svg>
