<?xml version="1.0" encoding="utf-8"?>
<!-- Generator: Adobe Illustrator 16.0.3, SVG Export Plug-In . SVG Version: 6.00 Build 0)  -->
<!DOCTYPE svg PUBLIC "-//W3C//DTD SVG 1.1//EN" "http://www.w3.org/Graphics/SVG/1.1/DTD/svg11.dtd">
<svg version="1.1" id="Ebene_1" xmlns="http://www.w3.org/2000/svg" xmlns:xlink="http://www.w3.org/1999/xlink" x="0px" y="0px"
	 width="37.134px" height="37.134px" viewBox="0 0 37.134 37.134" enable-background="new 0 0 37.134 37.134" xml:space="preserve">
<g>
	<g>
		<g>
			<path fill="#777777" d="M22.123,37.097h-7.111c-2.289,0-3.119-1.866-3.119-3.121v-8.731H3.158c-2.29,0-3.121-1.866-3.121-3.121
				v-7.112c0-2.289,1.867-3.12,3.121-3.12h8.734V3.159c0-2.29,1.865-3.121,3.119-3.121h7.111c2.29,0,3.121,1.867,3.121,3.121v8.732
				h8.732c2.29,0,3.121,1.866,3.121,3.12v7.112c0,2.29-1.866,3.121-3.121,3.121h-8.732v8.731
				C25.244,36.266,23.377,37.097,22.123,37.097z M3.158,13.391c-0.376,0.006-1.621,0.139-1.621,1.62v7.112
				c0.006,0.376,0.139,1.621,1.621,1.621h10.234v10.231c0.005,0.376,0.139,1.621,1.619,1.621h7.108
				c0.384-0.006,1.624-0.142,1.624-1.621V23.745h10.232c0.376-0.006,1.621-0.14,1.621-1.621v-7.112
				c-0.006-0.376-0.14-1.62-1.621-1.62H23.744V3.159c-0.006-0.376-0.14-1.621-1.621-1.621h-7.111
				c-0.376,0.006-1.619,0.139-1.619,1.621v10.232H3.158z"/>
		</g>
	</g>
	<g>
		<path fill="#777777" d="M18.568,22.218c-2.013,0-3.65-1.638-3.65-3.651c0-2.013,1.638-3.65,3.65-3.65s3.65,1.638,3.65,3.65
			C22.218,20.581,20.581,22.218,18.568,22.218z M18.568,16.417c-1.186,0-2.15,0.965-2.15,2.15c0,1.186,0.965,2.151,2.15,2.151
			s2.15-0.965,2.15-2.151C20.718,17.381,19.753,16.417,18.568,16.417z"/>
	</g>
	<g>
		<path fill="#777777" d="M18.567,3.22l-3.005,4.684h6.011L18.567,3.22z"/>
		<path fill="#777777" d="M21.573,8.654h-6.011c-0.274,0-0.526-0.15-0.658-0.39c-0.131-0.241-0.121-0.534,0.027-0.765l3.005-4.684
			c0.276-0.431,0.986-0.43,1.263,0l3.005,4.684c0.148,0.231,0.159,0.524,0.027,0.765C22.099,8.504,21.847,8.654,21.573,8.654z
			 M16.934,7.154h3.267l-1.634-2.545L16.934,7.154z"/>
	</g>
	<g>
		<path fill="#777777" d="M3.162,18.568l4.684,3.005v-6.011L3.162,18.568z"/>
		<path fill="#777777" d="M7.845,22.323c-0.141,0-0.282-0.04-0.405-0.119l-4.684-3.004c-0.215-0.138-0.345-0.376-0.345-0.631
			s0.13-0.493,0.345-0.631l4.684-3.006c0.231-0.147,0.524-0.158,0.765-0.027c0.24,0.131,0.39,0.384,0.39,0.658v6.011
			c0,0.274-0.15,0.526-0.39,0.658C8.093,22.292,7.969,22.323,7.845,22.323z M4.55,18.568l2.545,1.633v-3.266L4.55,18.568z"/>
	</g>
	<g>
		<path fill="#777777" d="M33.916,18.567l-4.684-3.005v6.01L33.916,18.567z"/>
		<path fill="#777777" d="M29.232,22.322c-0.124,0-0.247-0.03-0.359-0.092c-0.241-0.132-0.391-0.384-0.391-0.658v-6.01
			c0-0.274,0.149-0.526,0.391-0.658c0.239-0.131,0.533-0.123,0.765,0.027l4.684,3.005c0.215,0.138,0.345,0.376,0.345,0.631
			s-0.13,0.493-0.345,0.631l-4.684,3.004C29.514,22.282,29.373,22.322,29.232,22.322z M29.982,16.934V20.2l2.545-1.633
			L29.982,16.934z"/>
	</g>
	<g>
		<path fill="#777777" d="M18.567,33.915l3.006-4.684h-6.011L18.567,33.915z"/>
		<path fill="#777777" d="M18.567,34.665L18.567,34.665c-0.255,0-0.493-0.13-0.631-0.345l-3.005-4.684
			c-0.148-0.231-0.158-0.524-0.027-0.765c0.132-0.241,0.384-0.391,0.658-0.391h6.011c0.274,0,0.526,0.149,0.658,0.391
			c0.132,0.24,0.121,0.533-0.027,0.765l-3.005,4.684C19.06,34.535,18.822,34.665,18.567,34.665z M16.934,29.981l1.633,2.545
			l1.634-2.545H16.934z"/>
	</g>
</g>
</svg>
