<?xml version="1.0" encoding="utf-8"?>
<!-- Generator: Adobe Illustrator 16.0.3, SVG Export Plug-In . SVG Version: 6.00 Build 0)  -->
<!DOCTYPE svg PUBLIC "-//W3C//DTD SVG 1.1//EN" "http://www.w3.org/Graphics/SVG/1.1/DTD/svg11.dtd">
<svg version="1.1" id="_x30_" xmlns="http://www.w3.org/2000/svg" xmlns:xlink="http://www.w3.org/1999/xlink" x="0px" y="0px"
	 width="37.061px" height="37.06px" viewBox="0 0 37.061 37.06" enable-background="new 0 0 37.061 37.06" xml:space="preserve">
<g>
	<g>
		<g>
			<path fill="none" stroke="#777777" stroke-width="1.5" stroke-miterlimit="10" d="M33.939,12.604h-9.482V3.121
				c0,0,0-2.371-2.371-2.371h-7.111c0,0-2.369,0-2.369,2.371v9.482H3.121c0,0-2.371,0-2.371,2.37v7.111c0,0,0,2.371,2.371,2.371
				h9.484v9.482c0,0,0,2.371,2.369,2.371h7.111c0,0,2.371,0,2.371-2.371v-9.482h9.482c0,0,2.371,0,2.371-2.371v-7.111
				C36.311,14.974,36.311,12.604,33.939,12.604z"/>
		</g>
	</g>
	<path fill="none" stroke="#777777" stroke-width="1.5" stroke-miterlimit="10" d="M18.531,21.431c1.602,0,2.9-1.299,2.9-2.901
		c0-1.602-1.299-2.9-2.9-2.9c-1.604,0-2.9,1.299-2.9,2.9C15.631,20.132,16.928,21.431,18.531,21.431z"/>
	<path fill="#777777" stroke="#777777" stroke-width="1.5" stroke-linejoin="round" stroke-miterlimit="10" d="M18.53,3.183
		l-3.005,4.684h6.011L18.53,3.183z"/>
	<path fill="#777777" stroke="#777777" stroke-width="1.5" stroke-linejoin="round" stroke-miterlimit="10" d="M3.125,18.53
		l4.684,3.004v-6.01L3.125,18.53z"/>
	<path fill="#777777" stroke="#777777" stroke-width="1.5" stroke-linejoin="round" stroke-miterlimit="10" d="M33.879,18.529
		l-4.684-3.005v6.01L33.879,18.529z"/>
	<path fill="#777777" stroke="#777777" stroke-width="1.5" stroke-linejoin="round" stroke-miterlimit="10" d="M18.53,33.876
		l3.006-4.684h-6.011L18.53,33.876z"/>
</g>
</svg>
