<?xml version="1.0" encoding="UTF-8" standalone="no"?>
<!-- Generator: Adobe Illustrator 17.0.0, SVG Export Plug-In . SVG Version: 6.00 Build 0)  -->

<svg
   xmlns:dc="http://purl.org/dc/elements/1.1/"
   xmlns:cc="http://creativecommons.org/ns#"
   xmlns:rdf="http://www.w3.org/1999/02/22-rdf-syntax-ns#"
   xmlns:svg="http://www.w3.org/2000/svg"
   xmlns="http://www.w3.org/2000/svg"
   xmlns:sodipodi="http://sodipodi.sourceforge.net/DTD/sodipodi-0.dtd"
   xmlns:inkscape="http://www.inkscape.org/namespaces/inkscape"
   version="1.1"
   id="_x30_"
   x="0px"
   y="0px"
   width="37.061px"
   height="37.061px"
   viewBox="0 0 37.061 37.061"
   enable-background="new 0 0 37.061 37.061"
   xml:space="preserve"
   inkscape:version="0.48.5 r10040"
   sodipodi:docname="joystick_up.svg">
   <path
         style="fill:#ffffff"
         d="M 18.53125 2.125 C 11.834798 2.125 6.40625 7.5535476 6.40625 14.25 C 6.40625 20.946453 11.834798 26.375 18.53125 26.375 C 25.227703 26.375 30.65625 20.946453 30.65625 14.25 C 30.65625 7.5535476 25.227703 2.125 18.53125 2.125 z M 18.53125 3.34375 C 18.778 3.343875 19.01725 3.4725 19.15625 3.6875 L 22.15625 8.375 C 22.30325 8.606 22.3205 8.883 22.1875 9.125 C 22.0575 9.365 21.80625 9.53125 21.53125 9.53125 L 15.53125 9.53125 C 15.25825 9.53125 15.007 9.365 14.875 9.125 C 14.743 8.884 14.75925 8.607 14.90625 8.375 L 17.90625 3.6875 C 18.04425 3.472 18.2845 3.343625 18.53125 3.34375 z M 18.53125 5.46875 L 16.90625 8.03125 L 20.15625 8.03125 L 18.53125 5.46875 z "
         id="circle7" /><rect
         x="16.781"
         y="24.614"
         fill="#FFFFFF"
         width="3.5"
         height="11.5"
         id="rect9" /></svg>