<?xml version="1.0" encoding="UTF-8" standalone="no"?>
<!-- Generator: Adobe Illustrator 17.0.0, SVG Export Plug-In . SVG Version: 6.00 Build 0)  -->

<svg
   xmlns:dc="http://purl.org/dc/elements/1.1/"
   xmlns:cc="http://creativecommons.org/ns#"
   xmlns:rdf="http://www.w3.org/1999/02/22-rdf-syntax-ns#"
   xmlns:svg="http://www.w3.org/2000/svg"
   xmlns="http://www.w3.org/2000/svg"
   xmlns:sodipodi="http://sodipodi.sourceforge.net/DTD/sodipodi-0.dtd"
   xmlns:inkscape="http://www.inkscape.org/namespaces/inkscape"
   version="1.1"
   id="_x30_"
   x="0px"
   y="0px"
   width="37.061px"
   height="37.061px"
   viewBox="0 0 37.061 37.061"
   enable-background="new 0 0 37.061 37.061"
   xml:space="preserve"
   inkscape:version="0.48.5 r10040"
   sodipodi:docname="joystick_left.svg">
<path
         style="fill:#ffffff"
         d="M 18.53125 2.125 C 11.834798 2.125 6.40625 7.5535476 6.40625 14.25 C 6.40625 20.946453 11.834798 26.375 18.53125 26.375 C 25.227703 26.375 30.65625 20.946453 30.65625 14.25 C 30.65625 7.5535476 25.227703 2.125 18.53125 2.125 z M 14 9.90625 C 14.132375 9.901625 14.28525 9.9340001 14.40625 10 C 14.64825 10.132 14.78125 10.38325 14.78125 10.65625 L 14.78125 16.65625 C 14.78125 16.92925 14.64925 17.1805 14.40625 17.3125 C 14.16625 17.4455 13.858 17.4595 13.625 17.3125 L 8.9375 14.28125 C 8.7225 14.14125 8.59375 13.91225 8.59375 13.65625 C 8.59375 13.40125 8.7225 13.17025 8.9375 13.03125 L 13.625 10.03125 C 13.7405 9.9577501 13.867625 9.910875 14 9.90625 z M 13.28125 12.03125 L 10.75 13.65625 L 13.28125 15.28125 L 13.28125 12.03125 z "
         id="circle7" /><rect
         x="16.781"
         y="24.614"
         fill="#FFFFFF"
         width="3.5"
         height="11.5"
         id="rect9" />
        </svg>