<?xml version="1.0" encoding="utf-8"?>
<!-- Generator: Adobe Illustrator 17.0.0, SVG Export Plug-In . SVG Version: 6.00 Build 0)  -->
<!DOCTYPE svg PUBLIC "-//W3C//DTD SVG 1.1//EN" "http://www.w3.org/Graphics/SVG/1.1/DTD/svg11.dtd">
<svg version="1.1" id="_x30_" xmlns="http://www.w3.org/2000/svg" xmlns:xlink="http://www.w3.org/1999/xlink" x="0px" y="0px"
	 width="37.061px" height="37.061px" viewBox="0 0 37.061 37.061" enable-background="new 0 0 37.061 37.061" xml:space="preserve">
<g>
	<g>
		<circle fill="#FFFFFF" cx="18.531" cy="14.239" r="12.125"/>
		<rect x="16.781" y="24.614" fill="#FFFFFF" width="3.5" height="11.5"/>
	</g>
</g>
<path fill="#FFFFFF" d="M16.975,12.086h1.779c0.722,0,1.117,0.312,1.117,1.022c0,0.747-0.396,1.06-1.117,1.06h-1.779V12.086z
	 M15.355,18.212h1.62v-2.886H18.6c0.816,0,1.117,0.342,1.23,1.118c0.082,0.589,0.061,1.304,0.258,1.769h1.621
	c-0.289-0.414-0.279-1.28-0.313-1.748c-0.051-0.744-0.275-1.521-1.07-1.728c0,0,1.166-0.303,1.166-1.873
	c0-1.118-0.838-2.036-2.16-2.036h-3.979L15.355,18.212L15.355,18.212z"/>
</svg>
