<?xml version="1.0" encoding="utf-8"?>
<!-- Generator: Adobe Illustrator 16.0.3, SVG Export Plug-In . SVG Version: 6.00 Build 0)  -->
<!DOCTYPE svg PUBLIC "-//W3C//DTD SVG 1.1//EN" "http://www.w3.org/Graphics/SVG/1.1/DTD/svg11.dtd">
<svg version="1.1" id="Ebene_1" xmlns="http://www.w3.org/2000/svg" xmlns:xlink="http://www.w3.org/1999/xlink" x="0px" y="0px"
	 width="43.916px" height="21.959px" viewBox="0 0 43.916 21.959" enable-background="new 0 0 43.916 21.959" xml:space="preserve">
<g>
	<path fill="#FFFFFF" d="M39.664,0H4.252C1.914,0,0,1.914,0,4.252v13.455c0,2.339,1.914,4.252,4.252,4.252h35.412
		c2.339,0,4.252-1.913,4.252-4.252V4.252C43.916,1.914,42.003,0,39.664,0L39.664,0z"/>
</g>
<path fill="#777777" d="M23.704,15.715h1.988V8.602h0.027l5.906,7.113h2.332V6.244h-1.987v7.114h-0.027l-5.866-7.114h-2.373V15.715z
	 M15.754,14.5c-2.318,0-3.643-1.438-3.643-3.521c0-2.084,1.324-3.518,3.643-3.518c2.32,0,3.645,1.434,3.645,3.518
	C19.398,13.063,18.074,14.5,15.754,14.5 M15.754,15.98c4.17,0,5.798-2.336,5.798-5.001c0-2.669-1.628-5.001-5.798-5.001
	c-4.168,0-5.796,2.332-5.796,5.001C9.958,13.645,11.586,15.98,15.754,15.98"/>
</svg>
