<?xml version="1.0" encoding="utf-8"?>
<!-- Generator: Adobe Illustrator 16.0.3, SVG Export Plug-In . SVG Version: 6.00 Build 0)  -->
<!DOCTYPE svg PUBLIC "-//W3C//DTD SVG 1.1//EN" "http://www.w3.org/Graphics/SVG/1.1/DTD/svg11.dtd">
<svg version="1.1" id="Ebene_1" xmlns="http://www.w3.org/2000/svg" xmlns:xlink="http://www.w3.org/1999/xlink" x="0px" y="0px"
	 width="1280px" height="720px" viewBox="0 0 1280 720" enable-background="new 0 0 1280 720" xml:space="preserve">
<g>
	<polygon fill="#C90012" points="431.177,441.967 431.177,441.967 431.177,441.967 	"/>
	<polygon fill="#C90012" points="431.177,359.086 431.177,359.086 431.177,359.086 	"/>
	<polygon fill="#C90012" points="431.177,276.176 431.177,276.176 431.177,276.176 	"/>
	<polygon fill="#C90012" points="431.177,317.624 431.177,317.624 431.177,317.624 	"/>
	<polygon fill="#C90012" points="431.177,483.415 431.177,483.415 431.177,483.415 	"/>
	<polygon fill="#C90012" points="431.177,400.511 431.177,400.511 431.177,400.511 	"/>
	<polygon fill="#C90012" points="431.177,234.712 431.177,234.712 431.177,234.712 	"/>
	<path fill="#004E73" d="M431.177,245.821c0-6.11-4.999-11.108-11.106-11.108H69.211c-6.112,0-14.643,3.534-18.963,7.855
		l-25.745,25.745c-4.321,4.321-7.854,12.854-7.854,18.963v226.468c0,6.112,4.999,11.11,11.106,11.11h350.86
		c6.108,0,14.643-3.536,18.963-7.854l25.741-25.737c4.321-4.317,7.854-12.852,7.854-18.964L431.177,245.821z"/>
	<g opacity="0.2">
		<path d="M295.712,524.855c6.112,0,11.122-0.012,11.133-0.023c0.015-0.015,3.559-3.563,7.88-7.88l67.143-67.132
			c4.321-4.316,7.853-12.852,7.853-18.963v-19.235c0-6.112-3.532-14.646-7.853-18.963l-25.73-25.73
			c-4.32-4.318-12.855-7.853-18.963-7.851h-19.247c-6.112,0.001-11.11,0.001-11.11,0.001s3.532-3.534,7.853-7.855l67.197-67.193
			c4.321-4.321,2.855-7.855-3.253-7.855H276.48c-6.112,0-14.643,3.534-18.963,7.855L24.79,516.73
			c-4.321,4.317-7.915,7.914-7.991,7.987c-0.073,0.076,4.864,0.138,10.973,0.138H295.712z"/>
	</g>
	<path fill="#FFFFFF" d="M276.473,400.519c-6.108,0-14.643-3.536-18.96-7.857l-25.71-25.718c-4.321-4.321-7.857-12.855-7.865-18.966
		l-0.012-19.246c-0.008-6.11,3.525-14.643,7.846-18.964l25.741-25.737c4.321-4.321,12.852-7.855,18.963-7.855h102.139
		c6.108,0,7.574,3.534,3.253,7.855l-25.741,25.737c-4.321,4.321-12.852,7.855-18.963,7.855h-60.687
		c-6.112,0-11.11,4.998-11.11,11.108v19.246c0,6.11,4.998,11.108,11.106,11.106l60.702-0.007c6.108-0.002,14.643,3.533,18.963,7.851
		l25.73,25.73c4.321,4.316,7.853,12.851,7.853,18.963v19.235c0,6.111-3.532,14.646-7.853,18.963l-25.741,25.741
		c-4.321,4.317-12.852,7.854-18.963,7.854h-60.687c-6.112,0-14.643-3.536-18.963-7.854l-25.741-25.741
		c-4.321-4.316-2.859-7.853,3.253-7.853h102.139c6.112,0,11.11-4.999,11.11-11.11v-19.235c0-6.112,0-11.11,0.003-11.11
		c0.004,0-4.994,0-11.102,0L276.473,400.519z"/>
	<g opacity="0.2">
		<path d="M16.657,370.748c0-6.111,0-11.238,0-11.393s3.532-3.818,7.854-8.138l67.185-67.186c4.321-4.321,12.855-7.855,18.963-7.855
			h102.15c6.108,0,7.574,3.534,3.253,7.855l-67.197,67.182c-4.321,4.321-7.853,7.855-7.853,7.855s4.998,0.002,11.11,0.006
			l19.228,0.007c6.108,0.004,10.75,4.993,10.318,11.086l-1.114,15.592c-0.433,6.092-1.707,11.998-2.833,13.123
			c-1.125,1.125-5.576,5.58-9.896,9.896l-25.202,25.202c-4.32,4.316-7.884,7.884-7.922,7.918c-0.034,0.034,4.933,0.065,11.041,0.062
			h17.98c6.108-0.004,14.784,3.379,19.281,7.517l26.836,24.696c4.497,4.137,8.071,7.623,7.949,7.75
			c-0.126,0.126-3.766,3.762-8.087,8.083l-27.012,26.996c-4.321,4.321-12.855,7.854-18.967,7.854H27.771
			c-6.108,0-11.106-4.998-11.106-11.11L16.657,370.748z"/>
	</g>
	<path fill="#FFFFFF" d="M110.659,441.967c-6.108,0-11.106-4.999-11.106-11.11v-19.235c0-6.112,4.998-11.11,11.106-11.11h60.69
		c6.108,0,11.106-4.998,11.106-11.11v-19.204c0-6.112-4.998-11.11-11.106-11.11h-60.69c-6.108,0-11.106-4.998-11.106-11.108v-19.246
		c0-6.11,4.998-11.108,11.106-11.108h60.69c6.108,0,14.643-3.534,18.964-7.854l25.749-25.741c4.321-4.319,2.855-7.853-3.253-7.853
		h-102.15c-6.108,0-14.643,3.534-18.963,7.855l-25.738,25.737c-4.32,4.321-7.857,12.854-7.857,18.964v102.125
		c0,6.111,3.537,14.646,7.857,18.963l25.738,25.741c4.321,4.317,12.855,7.854,18.963,7.854h102.142c6.112,0,7.574-3.536,3.253-7.857
		l-25.741-25.744c-4.321-4.321-12.855-7.857-18.964-7.857L110.659,441.967z"/>
	<g>
		<path d="M558.253,326.432c-1.623,3.8-3.85,7.115-6.682,9.943c-2.832,2.836-6.146,5.06-9.947,6.682
			c-3.796,1.623-7.838,2.434-12.117,2.434h-8.496c-4.283,0-8.324-0.812-12.121-2.434c-3.8-1.623-7.115-3.846-9.943-6.682
			c-2.836-2.828-5.063-6.143-6.682-9.943c-1.626-3.796-2.434-7.838-2.434-12.121v-47.858c0-4.282,0.808-8.324,2.434-12.12
			c1.619-3.801,3.846-7.115,6.682-9.947c2.828-2.833,6.143-5.056,9.943-6.682c3.796-1.619,7.838-2.434,12.121-2.434h8.496
			c4.279,0,8.32,0.815,12.117,2.434c3.8,1.626,7.115,3.85,9.947,6.682c2.832,2.832,5.06,6.146,6.682,9.947
			c1.623,3.796,2.434,7.838,2.434,12.12v24.964h-58.115v23.618c0,2.556,0.482,4.956,1.451,7.202
			c0.964,2.243,2.277,4.195,3.934,5.852c1.661,1.657,3.609,2.97,5.856,3.938c2.243,0.964,4.642,1.447,7.199,1.447h8.496
			c2.553,0,4.952-0.482,7.199-1.447c2.243-0.968,4.195-2.281,5.852-3.938c1.657-1.657,2.97-3.609,3.938-5.852
			c0.964-2.246,1.451-4.646,1.451-7.202v-7.042l12.74,2.07v4.248C560.687,318.594,559.875,322.635,558.253,326.432z
			 M547.947,265.726c0-2.553-0.486-4.952-1.451-7.199c-0.968-2.243-2.281-4.194-3.938-5.852s-3.609-2.97-5.852-3.938
			c-2.247-0.964-4.646-1.45-7.199-1.45h-8.496c-2.557,0-4.956,0.486-7.199,1.45c-2.247,0.969-4.195,2.281-5.856,3.938
			c-1.657,1.657-2.97,3.609-3.934,5.852c-0.968,2.247-1.451,4.646-1.451,7.199v15.745h45.375V265.726z"/>
		<path d="M698.154,343.42v-77.695c0-2.553-0.482-4.952-1.45-7.199c-0.969-2.243-2.277-4.194-3.938-5.852
			c-1.653-1.657-3.609-2.97-5.852-3.938c-2.247-0.964-4.646-1.45-7.199-1.45h-6.318c-2.557,0-4.956,0.486-7.202,1.45
			c-2.243,0.969-4.21,2.281-5.902,3.938c-1.695,1.657-3.023,3.609-3.991,5.852c-0.965,2.247-1.446,4.646-1.446,7.199v77.695h-12.642
			v-77.695c0-2.553-0.482-4.952-1.45-7.199c-0.968-2.243-2.296-4.194-3.988-5.852c-1.691-1.657-3.658-2.97-5.905-3.938
			c-2.242-0.964-4.642-1.45-7.199-1.45h-6.318c-2.557,0-4.956,0.486-7.199,1.45c-2.247,0.969-4.195,2.281-5.855,3.938
			c-1.657,1.657-2.97,3.609-3.935,5.852c-0.968,2.247-1.45,4.646-1.45,7.199v77.695h-12.741V237.344h4.244l6.943,10.773
			c2.9-3.938,6.54-7.061,10.93-9.376c4.382-2.312,9.166-3.471,14.344-3.471h1.037c6.009,0,11.428,1.485,16.266,4.455
			c4.833,2.97,8.561,6.908,11.186,11.811c1.313-2.419,2.936-4.627,4.869-6.629c1.933-2.005,4.075-3.712,6.422-5.128
			c2.35-1.416,4.906-2.522,7.669-3.318c2.76-0.792,5.626-1.19,8.596-1.19h1.037c4.279,0,8.32,0.815,12.121,2.434
			c3.796,1.626,7.114,3.85,9.946,6.682c2.828,2.832,5.056,6.146,6.683,9.947c1.618,3.796,2.434,7.838,2.434,12.12v76.968H698.154z"
			/>
		<path d="M802.991,343.42l-7.046-10.773c-2.901,3.938-6.525,7.061-10.877,9.376c-4.348,2.312-9.116,3.467-14.294,3.467h-3.211
			c-4.287,0-8.324-0.812-12.121-2.434c-3.8-1.623-7.114-3.846-9.946-6.682c-2.832-2.828-5.06-6.143-6.683-9.943
			c-1.623-3.796-2.434-7.838-2.434-12.121v-76.967h12.744v77.691c0,2.556,0.482,4.956,1.446,7.202
			c0.969,2.243,2.281,4.195,3.938,5.852c1.657,1.657,3.609,2.97,5.852,3.938c2.242,0.964,4.646,1.447,7.203,1.447h8.496
			c2.549,0,4.952-0.482,7.194-1.447c2.243-0.968,4.198-2.281,5.855-3.938c1.657-1.657,2.97-3.609,3.935-5.852
			c0.969-2.246,1.454-4.646,1.454-7.202v-77.691h12.737V343.42H802.991z"/>
		<path d="M836.967,343.42V194.87h12.74v148.55H836.967z"/>
		<path d="M946.052,343.42l-7.046-10.567c-2.9,3.8-6.525,6.854-10.881,9.17c-4.348,2.312-9.116,3.467-14.29,3.467h-3.215
			c-4.282,0-8.32-0.812-12.116-2.434c-3.805-1.623-7.119-3.846-9.947-6.682c-2.836-2.828-5.063-6.143-6.682-9.943
			c-1.627-3.796-2.435-7.838-2.435-12.121v-1.037c0-4.279,0.808-8.32,2.435-12.121c1.618-3.796,3.846-7.111,6.682-9.943
			c2.828-2.832,6.143-5.06,9.947-6.682c3.796-1.623,7.834-2.434,12.116-2.434h26.936v-16.369c0-2.553-0.482-4.952-1.45-7.199
			c-0.969-2.243-2.277-4.194-3.938-5.852c-1.653-1.657-3.609-2.97-5.852-3.938c-2.247-0.964-4.646-1.45-7.199-1.45h-7.459
			c-2.557,0-4.956,0.486-7.198,1.45c-2.247,0.969-4.195,2.281-5.856,3.938c-1.653,1.657-2.97,3.609-3.934,5.852
			c-0.969,2.247-1.451,4.646-1.451,7.199v3.835l-12.74-2.075v-1.033c0-4.282,0.812-8.324,2.435-12.12
			c1.622-3.801,3.85-7.115,6.682-9.947c2.828-2.833,6.146-5.056,9.943-6.682c3.796-1.619,7.838-2.434,12.12-2.434h7.459
			c4.279,0,8.32,0.815,12.117,2.434c3.8,1.626,7.114,3.85,9.95,6.682c2.828,2.832,5.056,6.146,6.679,9.947
			c1.622,3.796,2.434,7.838,2.434,12.12v76.968H946.052z M937.556,292.037h-26.936c-2.557,0-4.956,0.486-7.199,1.451
			c-2.246,0.968-4.194,2.296-5.852,3.988c-1.661,1.695-2.97,3.663-3.938,5.905c-0.969,2.247-1.451,4.646-1.451,7.203v4.451
			c0,2.556,0.482,4.956,1.451,7.202c0.968,2.243,2.276,4.195,3.938,5.852c1.657,1.657,3.605,2.97,5.852,3.938
			c2.243,0.964,4.643,1.447,7.199,1.447h8.496c2.553,0,4.952-0.482,7.199-1.447c2.242-0.968,4.198-2.281,5.852-3.938
			c1.661-1.657,2.97-3.609,3.938-5.852c0.968-2.246,1.45-4.646,1.45-7.202V292.037z"/>
		<path d="M1014.42,343.42c-3.865,0-7.509-0.724-10.931-2.174c-3.418-1.451-6.388-3.456-8.909-6.009
			c-2.519-2.557-4.524-5.526-6.009-8.91c-1.485-3.383-2.224-7.007-2.224-10.876V249.46h-19.063v-12.117h19.063v-25.485l12.74-2.07
			v27.555h26.936v12.117h-26.936v66.611c0,2.143,0.398,4.129,1.194,5.955c0.788,1.833,1.879,3.437,3.261,4.818
			c1.382,1.381,3.004,2.472,4.868,3.264c1.867,0.792,3.865,1.19,6.009,1.19h11.604v12.121H1014.42z"/>
		<path d="M1052.645,211.859V194.87h14.815v16.989H1052.645z M1053.682,343.42V237.344h12.741V343.42H1053.682z"/>
		<path d="M1164.578,326.432c-1.623,3.8-3.851,7.115-6.679,9.943c-2.836,2.836-6.15,5.06-9.95,6.682
			c-3.797,1.623-7.838,2.434-12.117,2.434h-8.496c-4.282,0-8.32-0.812-12.116-2.434c-3.805-1.623-7.119-3.846-9.947-6.682
			c-2.836-2.828-5.063-6.143-6.682-9.943c-1.627-3.796-2.435-7.838-2.435-12.121v-47.858c0-4.282,0.808-8.324,2.435-12.12
			c1.619-3.801,3.846-7.115,6.682-9.947c2.828-2.833,6.143-5.056,9.947-6.682c3.796-1.619,7.834-2.434,12.116-2.434h8.496
			c4.279,0,8.32,0.815,12.117,2.434c3.8,1.626,7.114,3.85,9.95,6.682c2.828,2.832,5.056,6.146,6.679,9.947
			c1.622,3.796,2.434,7.838,2.434,12.12v47.858C1167.011,318.594,1166.2,322.635,1164.578,326.432z M1154.271,265.726
			c0-2.553-0.482-4.952-1.45-7.199c-0.969-2.243-2.277-4.194-3.938-5.852c-1.653-1.657-3.608-2.97-5.852-3.938
			c-2.246-0.964-4.646-1.45-7.199-1.45h-8.496c-2.557,0-4.956,0.486-7.198,1.45c-2.247,0.969-4.195,2.281-5.852,3.938
			c-1.661,1.657-2.971,3.609-3.938,5.852c-0.969,2.247-1.45,4.646-1.45,7.199v49.309c0,2.556,0.481,4.956,1.45,7.202
			c0.968,2.243,2.277,4.195,3.938,5.852c1.656,1.657,3.604,2.97,5.852,3.938c2.242,0.964,4.642,1.447,7.198,1.447h8.496
			c2.553,0,4.953-0.482,7.199-1.447c2.243-0.968,4.198-2.281,5.852-3.938c1.661-1.657,2.97-3.609,3.938-5.852
			c0.968-2.246,1.45-4.646,1.45-7.202V265.726z"/>
		<path d="M1250.612,343.42v-77.695c0-2.553-0.486-4.952-1.451-7.199c-0.968-2.243-2.28-4.194-3.934-5.852
			c-1.661-1.657-3.613-2.97-5.856-3.938c-2.242-0.964-4.646-1.45-7.198-1.45h-8.492c-2.557,0-4.96,0.486-7.203,1.45
			c-2.242,0.969-4.194,2.281-5.855,3.938c-1.653,1.657-2.97,3.609-3.935,5.852c-0.968,2.247-1.45,4.646-1.45,7.199v77.695h-12.74
			V237.344h4.248l6.938,10.773c2.901-3.938,6.541-7.061,10.931-9.376c4.382-2.312,9.166-3.471,14.348-3.471h3.211
			c4.282,0,8.32,0.815,12.12,2.434c3.797,1.626,7.111,3.85,9.943,6.682c2.832,2.832,5.06,6.146,6.682,9.947
			c1.623,3.796,2.435,7.838,2.435,12.12v76.968H1250.612z"/>
		<path d="M562.757,496.128c0,4.278-0.865,8.198-2.587,11.757c-1.73,3.56-4.076,6.613-7.046,9.17s-6.406,4.539-10.307,5.955
			c-3.903,1.416-7.995,2.12-12.277,2.12h-8.492c-4.283,0-8.377-0.812-12.277-2.434c-3.904-1.623-7.321-3.843-10.257-6.683
			c-2.936-2.824-5.281-6.139-7.042-9.943c-1.76-3.796-2.641-7.838-2.641-12.116v-4.248l12.74-2.074v7.042
			c0,2.557,0.532,4.96,1.604,7.202c1.071,2.243,2.503,4.194,4.301,5.855c1.795,1.653,3.866,2.97,6.216,3.935
			c2.346,0.965,4.799,1.447,7.355,1.447h8.492c2.557,0,5.006-0.376,7.356-1.134c2.346-0.765,4.436-1.852,6.269-3.268
			c1.829-1.416,3.28-3.123,4.351-5.129c1.068-1.997,1.604-4.278,1.604-6.835c0-3.797-0.827-6.904-2.488-9.323
			c-1.657-2.419-3.85-4.439-6.575-6.062c-2.729-1.623-5.836-2.963-9.323-4.034c-3.49-1.071-7.065-2.144-10.724-3.215
			c-3.663-1.071-7.237-2.296-10.724-3.674c-3.486-1.386-6.594-3.2-9.323-5.442c-2.729-2.242-4.918-5.06-6.575-8.442
			c-1.661-3.384-2.488-7.593-2.488-12.638c0-4.278,0.827-8.197,2.488-11.757c1.657-3.56,3.9-6.613,6.732-9.17
			s6.127-4.539,9.893-5.955c3.762-1.416,7.785-2.128,12.067-2.128h7.459c4.283,0,8.324,0.819,12.121,2.435
			c3.796,1.63,7.115,3.85,9.947,6.682c2.828,2.833,5.056,6.146,6.682,9.951c1.619,3.796,2.434,7.838,2.434,12.116v0.414
			l-12.744,2.074v-3.215c0-2.549-0.482-4.953-1.451-7.195s-2.277-4.194-3.934-5.855c-1.657-1.653-3.609-2.97-5.855-3.935
			c-2.243-0.964-4.643-1.454-7.199-1.454h-7.459c-2.553,0-4.956,0.383-7.199,1.141c-2.243,0.766-4.195,1.853-5.852,3.261
			c-1.657,1.424-2.97,3.13-3.938,5.128c-0.969,2.006-1.451,4.287-1.451,6.843c0,3.659,0.831,6.645,2.488,8.956
			c1.657,2.319,3.85,4.271,6.579,5.855c2.725,1.592,5.833,2.916,9.323,3.987c3.487,1.072,7.042,2.174,10.67,3.314
			c3.625,1.141,7.18,2.435,10.67,3.889c3.486,1.446,6.594,3.314,9.323,5.588c2.729,2.28,4.922,5.128,6.579,8.55
			C561.931,486.859,562.757,491.084,562.757,496.128z"/>
		<path d="M625.844,523.064c-3.865,0-7.509-0.728-10.926-2.174c-3.421-1.454-6.392-3.46-8.91-6.009
			c-2.522-2.557-4.523-5.526-6.008-8.909c-1.485-3.384-2.228-7.012-2.228-10.877V429.1h-19.059v-12.117h19.059v-25.48l12.74-2.074
			v27.555h26.936V429.1h-26.936v66.615c0,2.143,0.398,4.125,1.194,5.955c0.792,1.829,1.879,3.437,3.261,4.814
			c1.381,1.385,3.004,2.472,4.868,3.269c1.868,0.788,3.869,1.187,6.008,1.187h11.604v12.124H625.844z"/>
		<path d="M727.469,523.064l-7.042-10.57c-2.9,3.804-6.528,6.857-10.876,9.169c-4.352,2.313-9.116,3.468-14.299,3.468h-3.207
			c-4.286,0-8.328-0.812-12.124-2.434c-3.801-1.623-7.114-3.843-9.943-6.683c-2.836-2.824-5.063-6.139-6.682-9.943
			c-1.627-3.796-2.435-7.838-2.435-12.116v-1.041c0-4.278,0.808-8.32,2.435-12.116c1.618-3.797,3.846-7.111,6.682-9.943
			c2.829-2.832,6.143-5.06,9.943-6.682c3.796-1.623,7.838-2.435,12.124-2.435h26.932v-16.372c0-2.549-0.486-4.953-1.45-7.195
			c-0.969-2.242-2.281-4.194-3.935-5.855c-1.661-1.653-3.613-2.97-5.855-3.935c-2.242-0.964-4.646-1.454-7.199-1.454h-7.459
			c-2.557,0-4.956,0.49-7.202,1.454c-2.243,0.965-4.194,2.281-5.852,3.935c-1.657,1.661-2.97,3.613-3.935,5.855
			c-0.969,2.242-1.45,4.646-1.45,7.195v3.834l-12.745-2.074v-1.033c0-4.278,0.812-8.32,2.435-12.116
			c1.623-3.805,3.85-7.118,6.683-9.951c2.832-2.832,6.146-5.052,9.946-6.682c3.796-1.615,7.838-2.435,12.12-2.435h7.459
			c4.283,0,8.32,0.819,12.121,2.435c3.797,1.63,7.11,3.85,9.942,6.682c2.832,2.833,5.06,6.146,6.683,9.951
			c1.623,3.796,2.434,7.838,2.434,12.116v76.972H727.469z M718.977,471.68h-26.932c-2.561,0-4.96,0.482-7.202,1.447
			c-2.247,0.972-4.194,2.296-5.855,3.988c-1.657,1.699-2.97,3.666-3.935,5.908c-0.969,2.243-1.45,4.646-1.45,7.203v4.447
			c0,2.557,0.481,4.96,1.45,7.202c0.965,2.243,2.277,4.194,3.935,5.855c1.661,1.653,3.608,2.97,5.855,3.935
			c2.242,0.965,4.642,1.447,7.202,1.447h8.492c2.553,0,4.957-0.482,7.199-1.447s4.194-2.281,5.855-3.935
			c1.653-1.661,2.966-3.612,3.935-5.855c0.964-2.242,1.45-4.646,1.45-7.202V471.68z"/>
		<path d="M795.841,523.064c-3.869,0-7.513-0.728-10.927-2.174c-3.421-1.454-6.391-3.46-8.909-6.009
			c-2.526-2.557-4.523-5.526-6.009-8.909c-1.485-3.384-2.228-7.012-2.228-10.877V429.1H748.71v-12.117h19.059v-25.48l12.741-2.074
			v27.555h26.931V429.1H780.51v66.615c0,2.143,0.394,4.125,1.189,5.955c0.796,1.829,1.883,3.437,3.265,4.814
			c1.382,1.385,3.005,2.472,4.868,3.269c1.864,0.788,3.869,1.187,6.009,1.187h11.6v12.124H795.841z"/>
		<path d="M834.067,391.502v-16.988h14.814v16.988H834.067z M835.104,523.064V416.983h12.74v106.081H835.104z"/>
		<path d="M945.999,506.071c-1.623,3.805-3.85,7.119-6.682,9.943c-2.832,2.84-6.146,5.06-9.943,6.683
			c-3.801,1.622-7.838,2.434-12.12,2.434h-8.493c-4.286,0-8.327-0.812-12.124-2.434c-3.796-1.623-7.11-3.843-9.942-6.683
			c-2.832-2.824-5.06-6.139-6.683-9.943c-1.623-3.796-2.435-7.838-2.435-12.116v-47.862c0-4.278,0.812-8.32,2.435-12.116
			c1.623-3.805,3.851-7.118,6.683-9.951c2.832-2.832,6.146-5.052,9.942-6.682c3.797-1.615,7.838-2.435,12.124-2.435h8.493
			c4.282,0,8.319,0.819,12.12,2.435c3.797,1.63,7.111,3.85,9.943,6.682c2.832,2.833,5.059,6.146,6.682,9.951
			c1.623,3.796,2.434,7.838,2.434,12.116v47.862C948.432,498.233,947.622,502.275,945.999,506.071z M935.692,445.366
			c0-2.549-0.485-4.953-1.45-7.195c-0.968-2.242-2.281-4.194-3.935-5.855c-1.661-1.653-3.612-2.97-5.855-3.935
			c-2.242-0.964-4.646-1.454-7.198-1.454h-8.493c-2.557,0-4.96,0.49-7.202,1.454c-2.243,0.965-4.194,2.281-5.855,3.935
			c-1.653,1.661-2.97,3.613-3.935,5.855c-0.968,2.242-1.45,4.646-1.45,7.195v49.309c0,2.557,0.482,4.96,1.45,7.202
			c0.965,2.243,2.281,4.194,3.935,5.855c1.661,1.653,3.612,2.97,5.855,3.935c2.242,0.965,4.646,1.447,7.202,1.447h8.493
			c2.553,0,4.956-0.482,7.198-1.447c2.243-0.965,4.194-2.281,5.855-3.935c1.653-1.661,2.967-3.612,3.935-5.855
			c0.965-2.242,1.45-4.646,1.45-7.202V445.366z"/>
		<path d="M1032.033,523.064v-77.698c0-2.549-0.482-4.953-1.45-7.195c-0.969-2.242-2.277-4.194-3.938-5.855
			c-1.653-1.653-3.609-2.97-5.852-3.935c-2.247-0.964-4.646-1.454-7.199-1.454h-8.496c-2.557,0-4.956,0.49-7.199,1.454
			c-2.246,0.965-4.194,2.281-5.852,3.935c-1.661,1.661-2.97,3.613-3.938,5.855c-0.969,2.242-1.451,4.646-1.451,7.195v77.698h-12.74
			V416.983h4.244l6.942,10.777c2.901-3.941,6.545-7.064,10.931-9.376s9.17-3.476,14.344-3.476h3.215
			c4.278,0,8.32,0.819,12.117,2.435c3.8,1.63,7.114,3.85,9.95,6.682c2.828,2.833,5.056,6.146,6.679,9.951
			c1.622,3.796,2.434,7.838,2.434,12.116v76.972H1032.033z"/>
	</g>
</g>
</svg>
