<?xml version="1.0" encoding="UTF-8" standalone="no"?>
<!-- Generator: Adobe Illustrator 17.0.0, SVG Export Plug-In . SVG Version: 6.00 Build 0)  -->

<svg
   xmlns:dc="http://purl.org/dc/elements/1.1/"
   xmlns:cc="http://creativecommons.org/ns#"
   xmlns:rdf="http://www.w3.org/1999/02/22-rdf-syntax-ns#"
   xmlns:svg="http://www.w3.org/2000/svg"
   xmlns="http://www.w3.org/2000/svg"
   xmlns:sodipodi="http://sodipodi.sourceforge.net/DTD/sodipodi-0.dtd"
   xmlns:inkscape="http://www.inkscape.org/namespaces/inkscape"
   version="1.1"
   id="Ebene_1"
   sodipodi:docname="splash.svg"
   inkscape:export-xdpi="67.154305"
   inkscape:export-ydpi="67.154305"
   inkscape:export-filename="/Users/matthieu/Desktop/logo.png"
   inkscape:version="0.48.5 r10040"
   x="0px"
   y="0px"
   width="1280px"
   height="720px"
   viewBox="0 0 1280 720"
   enable-background="new 0 0 1280 720"
   xml:space="preserve"><metadata
     id="metadata3097"><rdf:RDF><cc:Work
         rdf:about=""><dc:format>image/svg+xml</dc:format><dc:type
           rdf:resource="http://purl.org/dc/dcmitype/StillImage" /></cc:Work></rdf:RDF></metadata><defs
     id="defs3095" /><sodipodi:namedview
     id="namedview63"
     bordercolor="#666666"
     pagecolor="#ffffff"
     borderopacity="1"
     objecttolerance="10"
     gridtolerance="10"
     guidetolerance="10"
     showgrid="false"
     inkscape:zoom="0.66449955"
     inkscape:cx="423.67997"
     inkscape:cy="302.36131"
     inkscape:pageopacity="0"
     inkscape:pageshadow="2"
     inkscape:window-maximized="1"
     inkscape:current-layer="layer1"
     inkscape:window-width="1920"
     inkscape:window-height="1014"
     inkscape:window-x="0"
     inkscape:window-y="27" /><g
     id="layer1"
     inkscape:label="Calque"
     inkscape:groupmode="layer"><g
       id="g3205"
       transform="matrix(0.98661582,0,0,0.98661582,-14.677807,-21.798136)"><path
         id="path4031"
         inkscape:connector-curvature="0"
         inkscape:export-xdpi="94.847168"
         inkscape:export-ydpi="94.847168"
         inkscape:export-filename="/Users/matthieu/dev/retrobox.fr/logos/logo-noname-grey.png"
         d="m 540.959,373.59 c -9.517,-3.731 -15.845,-9.37 -20.079,-17.893 -4.598,-9.258 -5.215,-14.65 -5.31,-46.465 -0.083,-28.251 0.133,-31.815 2.61,-42.879 8.635,-38.575 29.742,-71.076 53.813,-82.862 17.828,-8.73 37.916,-7.487 60.462,3.739 4.458,2.22 9.49,5.014 11.182,6.208 2.622,1.852 5.273,2.171 18.044,2.171 h 14.969 l 9.173,-5.233 c 33.133,-18.899 60.827,-16.827 84.008,6.286 17.386,17.336 28.992,39.356 35.846,68.014 1.998,8.352 2.568,15.266 3.061,37.057 0.72,31.924 -0.42,42.998 -5.494,53.354 -5.806,11.852 -17.499,20.041 -28.614,20.041 -13.411,0 -36.937,-18.069 -53.625,-41.187 l -7.056,-9.774 h -51.96 -51.96 l -7.056,9.774 c -21.111,29.246 -46.746,45.635 -62.014,39.649 l 0,0 z m 187.148,-92.601 c 2.764,-2.122 4.533,-6.047 4.533,-10.062 0,-10.754 -13.3,-15.055 -20.413,-6.602 -3.882,4.613 -3.3,11.588 1.296,15.541 3.398,2.925 11.431,3.543 14.584,1.123 z M 608.714,269.734 v -10.423 h 10.423 10.423 v -8.687 -8.686 H 619.137 608.714 V 231.514 221.09 h -8.687 -8.687 v 10.424 10.424 h -9.844 -9.845 v 8.686 8.687 h 9.845 9.844 v 10.423 10.424 h 8.687 8.687 v -10.424 z m 153.716,-2.98 c 2.805,-1.814 4.811,-7.669 4.03,-11.759 -0.897,-4.693 -5.83,-8.425 -11.137,-8.425 -5.948,0 -9.377,2.303 -11.071,7.432 -3.578,10.842 8.275,19.157 18.178,12.752 l 0,0 z M 713.689,244 c 4.3,-4.369 4.154,-11.911 -0.318,-16.382 -4.286,-4.286 -11.613,-4.286 -15.899,0 -5.803,5.802 -4.049,15.883 3.317,19.069 3.609,1.562 10.036,0.223 12.9,-2.687 l 0,0 z M 746.9,231.033 c 5.17,-4.792 5.519,-12.169 0.795,-16.892 -7.225,-7.225 -19.689,-2.07 -19.689,8.144 0,9.987 11.708,15.409 18.894,8.748 l 0,0 z"
         style="fill:#ffffff;fill-opacity:0;stroke:#494949;stroke-width:3.27579999;stroke-opacity:0" /><path
         id="path4033"
         inkscape:connector-curvature="0"
         inkscape:export-xdpi="94.847168"
         inkscape:export-ydpi="94.847168"
         inkscape:export-filename="/Users/matthieu/dev/retrobox.fr/logos/logo-noname-grey.png"
         d="m 540.959,373.59 c -9.517,-3.731 -15.845,-9.37 -20.079,-17.893 -4.598,-9.258 -5.215,-14.65 -5.31,-46.465 -0.083,-28.251 0.133,-31.815 2.61,-42.879 8.635,-38.575 29.742,-71.076 53.813,-82.862 17.828,-8.73 37.916,-7.487 60.462,3.739 4.458,2.22 9.49,5.014 11.182,6.208 2.622,1.852 5.273,2.171 18.044,2.171 h 14.969 l 9.173,-5.233 c 33.133,-18.899 60.827,-16.827 84.008,6.286 17.386,17.336 28.992,39.356 35.846,68.014 1.998,8.352 2.568,15.266 3.061,37.057 0.72,31.924 -0.42,42.998 -5.494,53.354 -5.806,11.852 -17.499,20.041 -28.614,20.041 -13.411,0 -36.937,-18.069 -53.625,-41.187 l -7.056,-9.774 h -51.96 -51.96 l -7.056,9.774 c -21.111,29.246 -46.746,45.635 -62.014,39.649 l 0,0 z m 187.148,-92.601 c 2.764,-2.122 4.533,-6.047 4.533,-10.062 0,-10.754 -13.3,-15.055 -20.413,-6.602 -3.882,4.613 -3.3,11.588 1.296,15.541 3.398,2.925 11.431,3.543 14.584,1.123 z M 608.714,269.734 v -10.423 h 10.423 10.423 v -8.687 -8.686 H 619.137 608.714 V 231.514 221.09 h -8.687 -8.687 v 10.424 10.424 h -9.844 -9.845 v 8.686 8.687 h 9.845 9.844 v 10.423 10.424 h 8.687 8.687 v -10.424 z m 153.716,-2.98 c 2.805,-1.814 4.811,-7.669 4.03,-11.759 -0.897,-4.693 -5.83,-8.425 -11.137,-8.425 -5.948,0 -9.377,2.303 -11.071,7.432 -3.578,10.842 8.275,19.157 18.178,12.752 l 0,0 z M 713.689,244 c 4.3,-4.369 4.154,-11.911 -0.318,-16.382 -4.286,-4.286 -11.613,-4.286 -15.899,0 -5.803,5.802 -4.049,15.883 3.317,19.069 3.609,1.562 10.036,0.223 12.9,-2.687 l 0,0 z M 746.9,231.033 c 5.17,-4.792 5.519,-12.169 0.795,-16.892 -7.225,-7.225 -19.689,-2.07 -19.689,8.144 0,9.987 11.708,15.409 18.894,8.748 l 0,0 z"
         style="fill:#ffffff;fill-opacity:0;stroke:#494949;stroke-width:3.01130009;stroke-opacity:0" /><path
         id="path4035"
         inkscape:connector-curvature="0"
         inkscape:export-xdpi="94.847168"
         inkscape:export-ydpi="94.847168"
         inkscape:export-filename="/Users/matthieu/dev/retrobox.fr/logos/logo-noname-grey.png"
         d="m 540.959,373.59 c -9.517,-3.731 -15.845,-9.37 -20.079,-17.893 -4.598,-9.258 -5.215,-14.65 -5.31,-46.465 -0.083,-28.251 0.133,-31.815 2.61,-42.879 8.635,-38.575 29.742,-71.076 53.813,-82.862 17.828,-8.73 37.916,-7.487 60.462,3.739 4.458,2.22 9.49,5.014 11.182,6.208 2.622,1.852 5.273,2.171 18.044,2.171 h 14.969 l 9.173,-5.233 c 33.133,-18.899 60.827,-16.827 84.008,6.286 17.386,17.336 28.992,39.356 35.846,68.014 1.998,8.352 2.568,15.266 3.061,37.057 0.72,31.924 -0.42,42.998 -5.494,53.354 -5.806,11.852 -17.499,20.041 -28.614,20.041 -13.411,0 -36.937,-18.069 -53.625,-41.187 l -7.056,-9.774 h -51.96 -51.96 l -7.056,9.774 c -21.111,29.246 -46.746,45.635 -62.014,39.649 l 0,0 z m 187.148,-92.601 c 2.764,-2.122 4.533,-6.047 4.533,-10.062 0,-10.754 -13.3,-15.055 -20.413,-6.602 -3.882,4.613 -3.3,11.588 1.296,15.541 3.398,2.925 11.431,3.543 14.584,1.123 z M 608.714,269.734 v -10.423 h 10.423 10.423 v -8.687 -8.686 H 619.137 608.714 V 231.514 221.09 h -8.687 -8.687 v 10.424 10.424 h -9.844 -9.845 v 8.686 8.687 h 9.845 9.844 v 10.423 10.424 h 8.687 8.687 v -10.424 z m 153.716,-2.98 c 2.805,-1.814 4.811,-7.669 4.03,-11.759 -0.897,-4.693 -5.83,-8.425 -11.137,-8.425 -5.948,0 -9.377,2.303 -11.071,7.432 -3.578,10.842 8.275,19.157 18.178,12.752 l 0,0 z M 713.689,244 c 4.3,-4.369 4.154,-11.911 -0.318,-16.382 -4.286,-4.286 -11.613,-4.286 -15.899,0 -5.803,5.802 -4.049,15.883 3.317,19.069 3.609,1.562 10.036,0.223 12.9,-2.687 l 0,0 z M 746.9,231.033 c 5.17,-4.792 5.519,-12.169 0.795,-16.892 -7.225,-7.225 -19.689,-2.07 -19.689,8.144 0,9.987 11.708,15.409 18.894,8.748 l 0,0 z"
         style="fill:#494949" /><path
         id="path4045"
         inkscape:connector-curvature="0"
         inkscape:export-xdpi="94.847168"
         inkscape:export-ydpi="94.847168"
         inkscape:export-filename="/Users/matthieu/dev/retrobox.fr/logos/logo-noname-grey.png"
         d="m 408.215,471.537 0.035,-73.834 49.068,-66.38 c 26.987,-36.508 49.441,-66.737 49.898,-67.174 0.457,-0.438 0.453,1.495 -0.01,4.294 -0.462,2.799 -1.46,11.143 -2.216,18.541 -1.331,13.023 -1.537,13.692 -6.452,20.97 -5.286,7.826 -36.666,50.087 -56.016,75.44 -6.148,8.056 -11.179,15.039 -11.179,15.52 0,0.48 22.091,0.497 49.092,0.036 l 49.092,-0.836 24.163,33.065 24.163,33.066 85.443,0.026 85.443,0.027 11.845,-16.054 c 6.514,-8.829 17.317,-23.702 24.005,-33.051 l 12.161,-16.999 49.512,0.748 c 27.232,0.411 49.513,0.412 49.513,10e-4 0,-0.411 -9.04,-12.584 -20.089,-27.053 -37.184,-48.694 -54.403,-73.224 -53.341,-75.991 0.317,-0.827 -0.245,-8.169 -1.25,-16.317 -1.004,-8.147 -1.681,-14.957 -1.504,-15.132 0.177,-0.175 22.602,29.854 49.834,66.733 l 49.513,67.051 v 73.568 73.569 H 663.559 408.18 l 0.035,-73.834 0,0 z m 306.33,39.79 c 3.102,-4.737 3.358,-10.268 0.743,-16.177 l -2.376,-5.372 h -46.757 -46.758 l -1.951,4.093 c -2.508,5.26 -2.493,12.585 0.035,16.866 l 1.987,3.364 h 46.63 46.63 l 1.817,-2.774 0,0 z"
         style="fill:#494949" /><rect
         id="rect4221"
         x="626.078"
         y="34.263"
         inkscape:export-xdpi="94.847168"
         inkscape:export-ydpi="94.847168"
         inkscape:export-filename="/Users/matthieu/dev/retrobox.fr/logos/logo-noname-grey.png"
         transform="matrix(0.9684,0.2493,-0.2493,0.9684,35.2396,-155.1788)"
         width="8.3149996"
         height="54.533001"
         style="fill:#0249e1" /><rect
         id="rect4245"
         x="626.04303"
         y="34.241001"
         inkscape:export-xdpi="94.847168"
         inkscape:export-ydpi="94.847168"
         inkscape:export-filename="/Users/matthieu/dev/retrobox.fr/logos/logo-noname-grey.png"
         transform="matrix(-0.2493,0.9684,-0.9684,-0.2493,846.8782,-533.4604)"
         width="8.3149996"
         height="54.533001"
         style="fill:#0249e1" /><path
         d="m 625.761,167.433 h -0.004 c -15.868,0 -28.779,-12.91 -28.78,-28.778 -0.002,-15.876 12.908,-28.789 28.777,-28.792 15.872,0 28.783,12.91 28.785,28.778 10e-4,7.695 -2.992,14.923 -8.428,20.36 -5.435,5.437 -12.663,8.432 -20.35,8.432 z m -0.003,-52.453 c -13.051,0.002 -23.665,10.619 -23.664,23.667 10e-4,13.054 10.616,23.668 23.662,23.668 v 2.559 l 0.004,-2.559 c 6.321,0 12.263,-2.463 16.733,-6.933 4.469,-4.47 6.93,-10.413 6.929,-16.734 -10e-4,-13.053 -10.617,-23.668 -23.664,-23.668 z"
         id="path3071"
         inkscape:connector-curvature="0"
         style="fill:#d40000" /><path
         d="m 728.328,172.796 -51.617,-6.863 6.862,-51.618 51.617,6.863 -6.862,51.618 z m -47.244,-10.211 43.896,5.836 5.837,-43.896 -43.896,-5.836 -5.837,43.896 z"
         id="path3073"
         inkscape:connector-curvature="0"
         style="fill:#ff5599" /><path
         d="m 677.61,97.112 11.651,-64.518 50.048,42.35 -61.699,22.168 z m 14.717,-55.984 -8.859,49.06 46.917,-16.857 -38.058,-32.203 z"
         id="path3075"
         inkscape:connector-curvature="0"
         style="fill:#8aee49" /><g
         enable-background="new    "
         id="g3077"><path
           d="m 459.801,630.177 h -20.133 v -33.555 h 53.689 v 6.712 h -33.555 v 26.843 h -0.001 z"
           id="path3079"
           inkscape:connector-curvature="0"
           style="fill:#494949" /><path
           d="m 520.201,623.466 h 33.555 v 6.711 h -53.689 v -33.555 h 53.689 v 20.134 h -33.555 v 6.71 z m 0,-13.422 h 13.422 v -6.711 h -13.422 v 6.711 z"
           id="path3081"
           inkscape:connector-curvature="0"
           style="fill:#494949" /><path
           d="m 580.6,623.466 h 33.555 v 6.711 h -53.688 v -33.555 h 53.688 v 6.712 H 580.6 v 20.132 z"
           id="path3083"
           inkscape:connector-curvature="0"
           style="fill:#494949" /><path
           d="m 620.866,596.622 h 53.688 v 33.555 h -53.688 v -20.133 h 33.555 v -6.711 h -33.555 v -6.711 z m 20.133,26.844 h 13.422 v -6.711 h -13.422 v 6.711 z"
           id="path3085"
           inkscape:connector-curvature="0"
           style="fill:#494949" /><path
           d="m 681.264,569.778 h 20.134 v 60.399 h -20.134 v -60.399 z"
           id="path3087"
           inkscape:connector-curvature="0"
           style="fill:#494949" /><path
           d="m 708.108,569.778 h 20.133 v 26.844 h 33.555 v 33.555 h -53.688 v -60.399 z m 20.133,53.688 h 13.423 v -20.133 h -13.423 v 20.133 z"
           id="path3089"
           inkscape:connector-curvature="0"
           style="fill:#494949" /><path
           d="m 768.508,596.622 h 53.689 v 33.555 h -53.689 v -33.555 z m 20.133,26.844 h 13.421 v -20.133 h -13.421 v 20.133 z"
           id="path3091"
           inkscape:connector-curvature="0"
           style="fill:#494949" /><path
           d="m 835.618,616.756 h 6.711 v -6.712 h -6.711 v -6.711 h -6.711 v -6.712 h 20.133 v 6.712 h 13.422 v -6.712 h 20.133 v 6.712 h -6.712 v 6.711 h -6.71 v 6.712 h 6.71 v 6.711 h 6.712 v 6.711 h -20.133 v -6.711 H 849.04 v 6.711 h -20.133 v -6.711 h 6.711 v -6.711 z"
           id="path3093"
           inkscape:connector-curvature="0"
           style="fill:#494949" /></g></g><g
       id="g3164"
       transform="matrix(0.87216394,0,0,0.87216394,88.072853,6.9421995)"><path
         id="path3"
         d="m 591.27078,788.71842 0,0 0,0 z"
         inkscape:connector-curvature="0"
         style="fill:#c90012" /><path
         id="path5"
         d="m 591.27078,772.22588 0,0 0,0 z"
         inkscape:connector-curvature="0"
         style="fill:#c90012" /><path
         id="path7"
         d="m 591.27078,755.72756 0,0 0,0 z"
         inkscape:connector-curvature="0"
         style="fill:#c90012" /><path
         id="path9"
         d="m 591.27078,763.97513 0,0 0,0 z"
         inkscape:connector-curvature="0"
         style="fill:#c90012" /><path
         id="path11"
         d="m 591.27078,796.96599 0,0 0,0 z"
         inkscape:connector-curvature="0"
         style="fill:#c90012" /><path
         id="path13"
         d="m 591.27078,780.46927 0,0 0,0 z"
         inkscape:connector-curvature="0"
         style="fill:#c90012" /><path
         id="path15"
         d="m 591.27078,747.47661 0,0 0,0 z"
         inkscape:connector-curvature="0"
         style="fill:#c90012" /><path
         id="path17"
         d="m 591.27078,749.6872 c 0,-1.21583 -0.99476,-2.21039 -2.2098,-2.21039 h -69.81804 c -1.21624,0 -2.91402,0.70323 -3.77346,1.56308 l -5.12302,5.12301 c -0.86004,0.85984 -1.56307,2.55762 -1.56307,3.77346 v 45.06501 c 0,1.21603 0.99475,2.21059 2.20999,2.21059 h 69.81785 c 1.21524,0 2.91382,-0.70344 3.77346,-1.56287 l 5.12222,-5.12123 c 0.85964,-0.85904 1.56287,-2.55762 1.56287,-3.77386 l 10e-4,-45.0668 z"
         inkscape:connector-curvature="0"
         style="fill:#004e73" /><path
         id="path19"
         d="m 581.45875,778.90659 -5.12003,-5.11983 c -0.85944,-0.85924 -2.55783,-1.56287 -3.77346,-1.56248 h -3.82997 c -1.21624,2e-4 -2.21079,2e-4 -2.21079,2e-4 0,0 0.70283,-0.70323 1.56288,-1.56307 l 13.37157,-13.37078 c 0.85963,-0.85983 0.56791,-1.56307 -0.64732,-1.56307 h -20.32411 c -1.21603,0 -2.91382,0.70324 -3.77346,1.56307 l -46.31049,46.30493 c -0.36316,0.36256 -0.69985,0.69925 -0.96928,0.96849 0.40036,0.39996 0.95237,0.64831 1.55929,0.64831 10e-4,0 0.002,0 0.003,0 h 19.88972 33.42803 c 1.21603,0 2.21318,-0.002 2.21536,-0.004 0.003,-0.003 0.70821,-0.70881 1.56805,-1.56805 l 13.36103,-13.35864 c 0.85964,-0.85885 1.56267,-2.55743 1.56267,-3.77346 v -3.82758 c -2e-4,-1.21623 -0.70323,-2.91482 -1.56287,-3.77346 z"
         enable-background="new    "
         inkscape:connector-curvature="0"
         style="opacity:0.2" /><path
         id="path21"
         d="m 560.48593,780.47065 c -1.21544,0 -2.91382,-0.70363 -3.77286,-1.56347 l -5.11605,-5.11764 c -0.85984,-0.85983 -1.56347,-2.55802 -1.56506,-3.77405 l -0.002,-3.82977 c -0.002,-1.21584 0.70145,-2.91383 1.56128,-3.77366 l 5.12222,-5.12143 c 0.85983,-0.85983 2.55742,-1.56307 3.77346,-1.56307 h 20.3249 c 1.21524,0 1.50696,0.70324 0.64732,1.56307 l -5.12222,5.12143 c -0.85984,0.85983 -2.55743,1.56307 -3.77346,1.56307 h -12.07634 c -1.21624,0 -2.21079,0.99455 -2.21079,2.21039 v 3.82977 c 0,1.21583 0.99455,2.21039 2.20999,2.20999 l 12.07913,-10e-4 c 1.21544,-4e-4 2.91402,0.70303 3.77346,1.56247 l 5.12003,5.11983 c 0.85964,0.85865 1.56267,2.55723 1.56267,3.77346 v 3.82758 c 0,1.21584 -0.70283,2.91442 -1.56267,3.77346 l -5.12222,5.12202 c -0.85984,0.85905 -2.55743,1.56288 -3.77346,1.56288 h -12.07634 c -1.21624,0 -2.91382,-0.70363 -3.77346,-1.56288 l -5.12222,-5.12202 c -0.85963,-0.85884 -0.56871,-1.56287 0.64732,-1.56287 h 20.3249 c 1.21623,0 2.21079,-0.99456 2.21079,-2.21059 v -3.82758 c 0,-1.21623 0,-2.21078 5.9e-4,-2.21078 6.3e-4,0 -0.99376,0 -2.20939,0 l -12.07913,0.002 z"
         inkscape:connector-curvature="0"
         style="fill:#ffffff" /><g
         id="g23"
         style="opacity:0.2"
         transform="matrix(0.19899064,0,0,0.19899064,505.40055,700.74525)"><path
           id="path25"
           d="m 17.008,370.877 c 0,-6.11 0,-11.238 0,-11.393 0,-0.155 3.532,-3.818 7.854,-8.138 L 92.047,284.16 c 4.321,-4.321 12.855,-7.855 18.963,-7.855 h 102.15 c 6.108,0 7.574,3.534 3.253,7.855 l -67.197,67.182 c -4.32,4.321 -7.853,7.855 -7.853,7.855 0,0 4.998,0.002 11.11,0.006 l 19.228,0.007 c 6.108,0.004 10.75,4.993 10.318,11.086 l -1.114,15.592 c -0.433,6.092 -1.707,11.998 -2.833,13.123 -1.125,1.125 -5.576,5.58 -9.896,9.896 l -25.201,25.201 c -4.32,4.316 -7.885,7.885 -7.922,7.918 -0.034,0.035 4.933,0.065 11.041,0.062 h 17.979 c 6.108,-0.004 14.784,3.379 19.281,7.518 l 26.836,24.695 c 4.497,4.137 8.181,7.623 8.058,7.75 -0.126,0.126 -3.766,3.762 -8.087,8.083 l -34.827,34.849 -147.212,0.002 c -6.107,0 -11.105,-4.998 -11.105,-11.11 L 17.008,370.877 z"
           inkscape:connector-curvature="0" /></g><path
         id="path27"
         d="m 527.4905,788.71842 c -1.21524,0 -2.20979,-0.99456 -2.20979,-2.21059 v -3.82758 c 0,-1.21624 0.99455,-2.21079 2.20979,-2.21079 h 12.07674 c 1.21544,0 2.20999,-0.99456 2.20999,-2.21059 v -3.82141 c 0,-1.21623 -0.99455,-2.21079 -2.20999,-2.21079 H 527.4905 c -1.21524,0 -2.20979,-0.99455 -2.20979,-2.21039 v -3.82977 c 0,-1.21583 0.99455,-2.21039 2.20979,-2.21039 h 12.07674 c 1.21544,0 2.91382,-0.70323 3.77366,-1.56287 l 5.12381,-5.12222 c 0.85984,-0.85944 0.56812,-1.56267 -0.64732,-1.56267 H 527.4905 c -1.21524,0 -2.91382,0.70323 -3.77346,1.56307 l -5.12142,5.12103 c -0.85964,0.85983 -1.56347,2.55782 -1.56347,3.77365 v 20.32192 c 0,1.21603 0.70383,2.91442 1.56347,3.77346 l 5.12142,5.12202 c 0.85984,0.85904 2.55803,1.56287 3.77346,1.56287 h 20.3255 c 1.21623,0 1.50716,-0.70363 0.64732,-1.56327 l -5.12222,-5.12281 c -0.85964,-0.85984 -2.55783,-1.56347 -3.77366,-1.56347 l -12.07694,0.002 z"
         inkscape:connector-curvature="0"
         style="fill:#ffffff" /><g
         id="g29"
         transform="matrix(0.19899064,0,0,0.19899064,505.40055,700.74525)"><path
           id="path31"
           d="m 558.605,326.562 c -1.623,3.8 -3.85,7.115 -6.682,9.943 -2.832,2.836 -6.146,5.06 -9.947,6.682 -3.796,1.623 -7.838,2.434 -12.117,2.434 h -8.496 c -4.283,0 -8.324,-0.812 -12.121,-2.434 -3.8,-1.623 -7.115,-3.846 -9.942,-6.682 -2.836,-2.828 -5.063,-6.143 -6.683,-9.943 -1.626,-3.796 -2.434,-7.838 -2.434,-12.121 v -47.858 c 0,-4.282 0.808,-8.324 2.434,-12.12 1.619,-3.801 3.847,-7.115 6.683,-9.947 2.827,-2.833 6.143,-5.056 9.942,-6.682 3.796,-1.619 7.838,-2.434 12.121,-2.434 h 8.496 c 4.279,0 8.32,0.815 12.117,2.434 3.8,1.626 7.115,3.85 9.947,6.682 2.832,2.832 5.06,6.146 6.682,9.947 1.623,3.796 2.434,7.838 2.434,12.12 v 24.964 h -58.114 v 23.618 c 0,2.556 0.481,4.956 1.45,7.202 0.965,2.243 2.277,4.195 3.935,5.852 1.661,1.657 3.609,2.97 5.855,3.938 2.243,0.964 4.643,1.447 7.199,1.447 h 8.496 c 2.553,0 4.952,-0.482 7.199,-1.447 2.243,-0.968 4.195,-2.281 5.852,-3.938 1.657,-1.657 2.971,-3.609 3.938,-5.852 0.964,-2.246 1.451,-4.646 1.451,-7.202 v -7.042 l 12.739,2.07 v 4.248 c -10e-4,4.283 -0.811,8.324 -2.434,12.121 z m -10.306,-60.707 c 0,-2.553 -0.486,-4.952 -1.451,-7.199 -0.968,-2.243 -2.281,-4.194 -3.938,-5.852 -1.656,-1.658 -3.608,-2.97 -5.852,-3.938 -2.247,-0.964 -4.646,-1.45 -7.199,-1.45 h -8.496 c -2.557,0 -4.956,0.486 -7.199,1.45 -2.246,0.969 -4.194,2.281 -5.855,3.938 -1.657,1.657 -2.97,3.609 -3.934,5.852 -0.969,2.247 -1.451,4.646 -1.451,7.199 V 281.6 h 45.375 l 0,-15.745 0,0 z"
           inkscape:connector-curvature="0" /><path
           id="path33"
           d="m 698.506,343.55 v -77.695 c 0,-2.553 -0.482,-4.952 -1.45,-7.199 -0.969,-2.243 -2.277,-4.194 -3.938,-5.852 -1.652,-1.657 -3.608,-2.97 -5.852,-3.938 -2.247,-0.964 -4.646,-1.45 -7.199,-1.45 h -6.317 c -2.558,0 -4.956,0.486 -7.202,1.45 -2.243,0.969 -4.21,2.281 -5.902,3.938 -1.695,1.657 -3.023,3.609 -3.991,5.852 -0.965,2.247 -1.445,4.646 -1.445,7.199 v 77.695 h -12.643 v -77.695 c 0,-2.553 -0.482,-4.952 -1.45,-7.199 -0.968,-2.243 -2.296,-4.194 -3.987,-5.852 -1.691,-1.657 -3.658,-2.97 -5.905,-3.938 -2.242,-0.964 -4.643,-1.45 -7.199,-1.45 h -6.318 c -2.557,0 -4.956,0.486 -7.198,1.45 -2.247,0.969 -4.195,2.281 -5.855,3.938 -1.657,1.657 -2.97,3.609 -3.935,5.852 -0.968,2.247 -1.45,4.646 -1.45,7.199 V 343.55 H 586.529 V 237.474 h 4.244 l 6.943,10.773 c 2.899,-3.938 6.54,-7.061 10.93,-9.376 4.382,-2.312 9.166,-3.471 14.344,-3.471 h 1.037 c 6.009,0 11.428,1.485 16.266,4.455 4.833,2.97 8.562,6.908 11.187,11.811 1.312,-2.419 2.936,-4.627 4.869,-6.629 1.933,-2.005 4.075,-3.712 6.422,-5.128 2.35,-1.416 4.906,-2.522 7.669,-3.318 2.76,-0.792 5.626,-1.19 8.596,-1.19 h 1.037 c 4.279,0 8.32,0.815 12.121,2.434 3.796,1.626 7.114,3.85 9.946,6.682 2.828,2.832 5.056,6.146 6.683,9.947 1.618,3.796 2.435,7.838 2.435,12.12 v 76.968 h -12.747 v -0.002 z"
           inkscape:connector-curvature="0" /><path
           id="path35"
           d="m 803.343,343.55 -7.046,-10.773 c -2.901,3.938 -6.525,7.061 -10.878,9.376 -4.348,2.312 -9.115,3.467 -14.294,3.467 h -3.211 c -4.286,0 -8.323,-0.812 -12.12,-2.434 -3.801,-1.623 -7.114,-3.846 -9.946,-6.682 -2.832,-2.828 -5.061,-6.143 -6.684,-9.943 -1.622,-3.796 -2.434,-7.838 -2.434,-12.121 v -76.966 h 12.744 v 77.691 c 0,2.556 0.481,4.956 1.446,7.202 0.969,2.243 2.28,4.195 3.938,5.852 1.657,1.657 3.609,2.97 5.852,3.938 2.242,0.964 4.646,1.447 7.203,1.447 h 8.496 c 2.549,0 4.952,-0.482 7.194,-1.447 2.243,-0.968 4.198,-2.281 5.854,-3.938 1.657,-1.657 2.971,-3.609 3.936,-5.852 0.969,-2.246 1.454,-4.646 1.454,-7.202 v -77.691 h 12.736 V 343.55 h -4.24 z"
           inkscape:connector-curvature="0" /><path
           id="path37"
           d="M 837.319,343.55 V 195 h 12.74 v 148.55 h -12.74 z"
           inkscape:connector-curvature="0" /><path
           id="path39"
           d="m 946.404,343.55 -7.046,-10.567 c -2.9,3.8 -6.525,6.854 -10.881,9.17 -4.348,2.312 -9.116,3.467 -14.29,3.467 h -3.215 c -4.282,0 -8.32,-0.812 -12.116,-2.434 -3.805,-1.623 -7.119,-3.846 -9.947,-6.682 -2.836,-2.828 -5.062,-6.143 -6.682,-9.943 -1.627,-3.796 -2.436,-7.838 -2.436,-12.121 v -1.037 c 0,-4.279 0.809,-8.32 2.436,-12.121 1.618,-3.796 3.846,-7.111 6.682,-9.943 2.828,-2.832 6.144,-5.06 9.947,-6.682 3.796,-1.623 7.834,-2.434 12.116,-2.434 h 26.936 v -16.368 c 0,-2.553 -0.481,-4.952 -1.45,-7.199 -0.969,-2.243 -2.276,-4.194 -3.938,-5.852 -1.653,-1.657 -3.609,-2.97 -5.853,-3.938 -2.246,-0.964 -4.646,-1.45 -7.198,-1.45 h -7.459 c -2.558,0 -4.956,0.486 -7.198,1.45 -2.247,0.969 -4.195,2.281 -5.856,3.938 -1.652,1.657 -2.97,3.609 -3.934,5.852 -0.969,2.247 -1.451,4.646 -1.451,7.199 v 3.835 l -12.74,-2.075 v -1.033 c 0,-4.282 0.812,-8.324 2.436,-12.12 1.622,-3.801 3.85,-7.115 6.682,-9.947 2.828,-2.833 6.146,-5.056 9.943,-6.682 3.796,-1.619 7.838,-2.434 12.12,-2.434 h 7.459 c 4.278,0 8.319,0.815 12.117,2.434 3.8,1.626 7.113,3.85 9.949,6.682 2.828,2.832 5.057,6.146 6.68,9.947 1.622,3.796 2.434,7.838 2.434,12.12 v 76.968 h -4.247 l 0,0 z m -8.497,-51.383 h -26.936 c -2.558,0 -4.956,0.486 -7.199,1.451 -2.246,0.968 -4.194,2.296 -5.852,3.988 -1.661,1.695 -2.971,3.663 -3.938,5.905 -0.969,2.247 -1.451,4.646 -1.451,7.203 v 4.451 c 0,2.556 0.482,4.956 1.451,7.202 0.968,2.243 2.276,4.195 3.938,5.852 1.656,1.657 3.604,2.97 5.852,3.938 2.243,0.964 4.643,1.447 7.199,1.447 h 8.496 c 2.553,0 4.952,-0.482 7.198,-1.447 2.242,-0.968 4.198,-2.281 5.853,-3.938 1.661,-1.657 2.97,-3.609 3.938,-5.852 0.969,-2.246 1.45,-4.646 1.45,-7.202 l 0.001,-22.998 0,0 z"
           inkscape:connector-curvature="0" /><path
           id="path41"
           d="m 1014.772,343.55 c -3.865,0 -7.509,-0.724 -10.931,-2.174 -3.418,-1.451 -6.389,-3.456 -8.909,-6.009 -2.52,-2.557 -4.524,-5.526 -6.009,-8.91 -1.485,-3.383 -2.225,-7.007 -2.225,-10.876 V 249.59 h -19.062 v -12.116 h 19.062 v -25.485 l 12.74,-2.07 v 27.555 h 26.936 v 12.116 h -26.936 v 66.611 c 0,2.143 0.398,4.129 1.194,5.955 0.788,1.833 1.879,3.437 3.261,4.818 1.382,1.381 3.004,2.472 4.868,3.264 1.866,0.792 3.864,1.189 6.009,1.189 h 11.604 v 12.121 l -11.602,0.002 0,0 z"
           inkscape:connector-curvature="0" /><path
           id="path43"
           d="M 1052.996,211.989 V 195 h 14.815 v 16.989 h -14.815 z m 1.037,131.561 V 237.474 h 12.741 V 343.55 h -12.741 z"
           inkscape:connector-curvature="0" /><path
           id="path45"
           d="m 1164.93,326.562 c -1.623,3.8 -3.852,7.115 -6.679,9.943 -2.837,2.836 -6.15,5.06 -9.95,6.682 -3.797,1.623 -7.838,2.434 -12.117,2.434 h -8.496 c -4.282,0 -8.319,-0.812 -12.116,-2.434 -3.805,-1.623 -7.119,-3.846 -9.946,-6.682 -2.837,-2.828 -5.062,-6.143 -6.683,-9.943 -1.627,-3.796 -2.435,-7.838 -2.435,-12.121 v -47.858 c 0,-4.282 0.808,-8.324 2.435,-12.12 1.619,-3.801 3.846,-7.115 6.683,-9.947 2.827,-2.833 6.143,-5.056 9.946,-6.682 3.797,-1.619 7.834,-2.434 12.116,-2.434 h 8.496 c 4.279,0 8.32,0.815 12.117,2.434 3.8,1.626 7.114,3.85 9.95,6.682 2.827,2.832 5.056,6.146 6.679,9.947 1.622,3.796 2.434,7.838 2.434,12.12 v 47.858 c -10e-4,4.283 -0.812,8.324 -2.434,12.121 z m -10.308,-60.707 c 0,-2.553 -0.481,-4.952 -1.449,-7.199 -0.97,-2.243 -2.277,-4.194 -3.938,-5.852 -1.653,-1.657 -3.608,-2.97 -5.852,-3.938 -2.246,-0.964 -4.646,-1.45 -7.199,-1.45 h -8.496 c -2.557,0 -4.956,0.486 -7.198,1.45 -2.247,0.969 -4.194,2.281 -5.852,3.938 -1.661,1.657 -2.971,3.609 -3.938,5.852 -0.969,2.247 -1.45,4.646 -1.45,7.199 v 49.309 c 0,2.556 0.481,4.956 1.45,7.202 0.968,2.243 2.277,4.195 3.938,5.852 1.656,1.657 3.604,2.97 5.852,3.938 2.242,0.964 4.643,1.447 7.198,1.447 h 8.496 c 2.553,0 4.953,-0.482 7.199,-1.447 2.243,-0.968 4.197,-2.281 5.852,-3.938 1.661,-1.657 2.97,-3.609 3.938,-5.852 0.968,-2.246 1.449,-4.646 1.449,-7.202 v -49.309 z"
           inkscape:connector-curvature="0" /><path
           id="path47"
           d="m 1250.964,343.55 v -77.695 c 0,-2.553 -0.486,-4.952 -1.451,-7.199 -0.969,-2.243 -2.28,-4.194 -3.935,-5.852 -1.661,-1.657 -3.612,-2.97 -5.855,-3.938 -2.242,-0.964 -4.646,-1.45 -7.198,-1.45 h -8.492 c -2.557,0 -4.96,0.486 -7.203,1.45 -2.241,0.969 -4.193,2.281 -5.854,3.938 -1.653,1.657 -2.97,3.609 -3.935,5.852 -0.969,2.247 -1.45,4.646 -1.45,7.199 v 77.695 h -12.74 V 237.474 h 4.248 l 6.938,10.773 c 2.9,-3.938 6.541,-7.061 10.931,-9.376 4.382,-2.312 9.166,-3.471 14.348,-3.471 h 3.211 c 4.282,0 8.32,0.815 12.12,2.434 3.797,1.626 7.111,3.85 9.943,6.682 2.832,2.832 5.06,6.146 6.682,9.947 1.623,3.796 2.436,7.838 2.436,12.12 v 76.968 l -12.744,-10e-4 0,0 z"
           inkscape:connector-curvature="0" /><path
           id="path49"
           d="m 563.109,496.258 c 0,4.278 -0.865,8.198 -2.587,11.757 -1.729,3.561 -4.076,6.613 -7.046,9.17 -2.97,2.558 -6.406,4.539 -10.307,5.955 -3.903,1.416 -7.995,2.12 -12.277,2.12 H 522.4 c -4.283,0 -8.377,-0.812 -12.277,-2.434 -3.903,-1.623 -7.32,-3.843 -10.257,-6.683 -2.936,-2.824 -5.28,-6.14 -7.042,-9.943 -1.76,-3.797 -2.641,-7.838 -2.641,-12.116 v -4.248 l 12.74,-2.074 v 7.042 c 0,2.557 0.531,4.961 1.604,7.202 1.071,2.243 2.503,4.194 4.301,5.854 1.795,1.654 3.866,2.971 6.217,3.936 2.346,0.965 4.799,1.447 7.354,1.447 h 8.492 c 2.557,0 5.006,-0.376 7.355,-1.135 2.347,-0.765 4.437,-1.852 6.27,-3.268 1.829,-1.416 3.28,-3.123 4.351,-5.129 1.068,-1.997 1.604,-4.277 1.604,-6.835 0,-3.797 -0.827,-6.903 -2.488,-9.323 -1.657,-2.419 -3.85,-4.438 -6.575,-6.062 -2.729,-1.623 -5.836,-2.964 -9.322,-4.034 -3.49,-1.071 -7.065,-2.145 -10.725,-3.215 -3.663,-1.071 -7.236,-2.296 -10.724,-3.674 -3.486,-1.387 -6.594,-3.2 -9.323,-5.442 -2.729,-2.242 -4.918,-5.06 -6.575,-8.442 -1.661,-3.384 -2.487,-7.593 -2.487,-12.638 0,-4.278 0.826,-8.196 2.487,-11.757 1.657,-3.561 3.9,-6.613 6.732,-9.17 2.832,-2.557 6.127,-4.539 9.893,-5.955 3.763,-1.416 7.785,-2.128 12.067,-2.128 h 7.459 c 4.283,0 8.324,0.819 12.121,2.435 3.796,1.631 7.115,3.851 9.947,6.682 2.827,2.834 5.056,6.146 6.682,9.951 1.619,3.797 2.434,7.838 2.434,12.117 v 0.413 l -12.744,2.074 v -3.215 c 0,-2.55 -0.481,-4.953 -1.45,-7.195 -0.97,-2.241 -2.277,-4.194 -3.935,-5.854 -1.657,-1.653 -3.608,-2.971 -5.854,-3.936 -2.243,-0.964 -4.644,-1.453 -7.199,-1.453 h -7.459 c -2.553,0 -4.956,0.383 -7.199,1.141 -2.243,0.766 -4.195,1.853 -5.852,3.261 -1.657,1.424 -2.971,3.13 -3.938,5.128 -0.969,2.006 -1.451,4.287 -1.451,6.844 0,3.658 0.831,6.645 2.488,8.955 1.657,2.319 3.85,4.271 6.579,5.855 2.725,1.592 5.833,2.916 9.323,3.986 3.486,1.072 7.042,2.174 10.67,3.314 3.625,1.141 7.18,2.436 10.67,3.889 3.486,1.446 6.594,3.314 9.323,5.588 2.729,2.28 4.922,5.129 6.579,8.551 1.657,3.422 2.484,7.647 2.484,12.691 z"
           inkscape:connector-curvature="0" /><path
           id="path51"
           d="m 626.196,523.194 c -3.865,0 -7.509,-0.729 -10.926,-2.174 -3.421,-1.455 -6.392,-3.461 -8.91,-6.01 -2.521,-2.557 -4.522,-5.525 -6.008,-8.908 -1.485,-3.385 -2.229,-7.013 -2.229,-10.877 v -65.996 h -19.059 v -12.117 h 19.059 v -25.479 l 12.74,-2.073 v 27.555 H 637.8 v 12.117 h -26.937 v 66.614 c 0,2.144 0.398,4.126 1.194,5.955 0.792,1.829 1.879,3.437 3.261,4.813 1.381,1.386 3.004,2.473 4.868,3.27 1.868,0.788 3.869,1.188 6.008,1.188 h 11.604 v 12.123 h -11.602 l 0,-0.001 z"
           inkscape:connector-curvature="0" /><path
           id="path53"
           d="m 727.821,523.194 -7.042,-10.57 c -2.899,3.804 -6.527,6.857 -10.876,9.169 -4.352,2.312 -9.116,3.468 -14.299,3.468 h -3.207 c -4.286,0 -8.328,-0.812 -12.124,-2.434 -3.801,-1.623 -7.114,-3.844 -9.943,-6.684 -2.836,-2.824 -5.062,-6.139 -6.682,-9.942 -1.627,-3.796 -2.435,-7.839 -2.435,-12.116 v -1.041 c 0,-4.277 0.808,-8.32 2.435,-12.116 1.618,-3.797 3.846,-7.11 6.682,-9.942 2.829,-2.832 6.144,-5.061 9.943,-6.683 3.796,-1.622 7.838,-2.435 12.124,-2.435 h 26.932 v -16.372 c 0,-2.549 -0.485,-4.953 -1.449,-7.195 -0.97,-2.241 -2.281,-4.194 -3.936,-5.854 -1.661,-1.653 -3.612,-2.971 -5.854,-3.936 -2.242,-0.964 -4.646,-1.453 -7.199,-1.453 h -7.459 c -2.557,0 -4.956,0.489 -7.202,1.453 -2.243,0.965 -4.194,2.281 -5.852,3.936 -1.657,1.66 -2.971,3.613 -3.936,5.854 -0.969,2.242 -1.45,4.646 -1.45,7.195 v 3.834 l -12.744,-2.074 v -1.032 c 0,-4.279 0.812,-8.32 2.435,-12.117 1.623,-3.805 3.85,-7.117 6.683,-9.95 2.832,-2.832 6.146,-5.052 9.946,-6.683 3.796,-1.615 7.838,-2.435 12.12,-2.435 h 7.459 c 4.283,0 8.32,0.819 12.121,2.435 3.797,1.631 7.109,3.851 9.941,6.683 2.832,2.833 5.061,6.146 6.684,9.95 1.623,3.797 2.434,7.838 2.434,12.117 v 76.971 h -4.25 l 0,-0.001 z m -8.493,-51.384 h -26.932 c -2.561,0 -4.96,0.482 -7.202,1.447 -2.247,0.973 -4.193,2.296 -5.854,3.988 -1.657,1.699 -2.971,3.666 -3.936,5.908 -0.969,2.242 -1.45,4.646 -1.45,7.203 v 4.446 c 0,2.558 0.481,4.96 1.45,7.202 0.965,2.243 2.277,4.194 3.936,5.855 1.661,1.652 3.607,2.97 5.854,3.935 2.242,0.965 4.643,1.447 7.202,1.447 h 8.492 c 2.553,0 4.957,-0.482 7.199,-1.447 2.241,-0.965 4.193,-2.28 5.854,-3.935 1.653,-1.661 2.966,-3.612 3.936,-5.855 0.964,-2.242 1.449,-4.646 1.449,-7.202 l 0.002,-22.992 0,0 z"
           inkscape:connector-curvature="0" /><path
           id="path55"
           d="m 796.193,523.194 c -3.869,0 -7.513,-0.729 -10.927,-2.174 -3.421,-1.455 -6.392,-3.461 -8.909,-6.01 -2.526,-2.557 -4.523,-5.525 -6.009,-8.908 -1.485,-3.385 -2.229,-7.013 -2.229,-10.877 V 429.229 H 749.06 v -12.117 h 19.059 v -25.479 l 12.741,-2.073 v 27.555 h 26.932 v 12.117 H 780.86 v 66.614 c 0,2.144 0.395,4.126 1.189,5.955 0.796,1.829 1.883,3.437 3.265,4.813 1.382,1.386 3.005,2.473 4.868,3.27 1.864,0.788 3.869,1.188 6.009,1.188 h 11.6 v 12.123 h -11.598 l 0,-0.001 z"
           inkscape:connector-curvature="0" /><path
           id="path57"
           d="m 834.419,391.632 v -16.988 h 14.813 v 16.988 h -14.813 z m 1.036,131.562 V 417.113 h 12.74 v 106.081 h -12.74 z"
           inkscape:connector-curvature="0" /><path
           id="path59"
           d="m 946.351,506.201 c -1.623,3.805 -3.85,7.118 -6.682,9.942 -2.832,2.84 -6.146,5.061 -9.943,6.684 -3.801,1.622 -7.838,2.434 -12.12,2.434 h -8.493 c -4.286,0 -8.327,-0.812 -12.124,-2.434 -3.796,-1.623 -7.109,-3.844 -9.941,-6.684 -2.832,-2.824 -5.061,-6.139 -6.684,-9.942 -1.623,-3.796 -2.435,-7.839 -2.435,-12.116 v -47.861 c 0,-4.279 0.812,-8.32 2.435,-12.117 1.623,-3.805 3.852,-7.117 6.684,-9.95 2.831,-2.832 6.146,-5.052 9.941,-6.683 3.797,-1.615 7.838,-2.435 12.124,-2.435 h 8.493 c 4.282,0 8.319,0.819 12.12,2.435 3.797,1.631 7.111,3.851 9.943,6.683 2.831,2.833 5.059,6.146 6.682,9.95 1.623,3.797 2.434,7.838 2.434,12.117 v 47.861 c -0.002,4.278 -0.811,8.32 -2.434,12.116 z m -10.307,-60.705 c 0,-2.549 -0.485,-4.953 -1.45,-7.195 -0.968,-2.241 -2.281,-4.194 -3.936,-5.854 -1.661,-1.653 -3.611,-2.971 -5.854,-3.936 -2.242,-0.964 -4.646,-1.453 -7.198,-1.453 h -8.493 c -2.557,0 -4.96,0.489 -7.202,1.453 -2.242,0.965 -4.193,2.281 -5.854,3.936 -1.653,1.66 -2.97,3.613 -3.936,5.854 -0.968,2.242 -1.449,4.646 -1.449,7.195 v 49.31 c 0,2.557 0.481,4.959 1.449,7.201 0.966,2.243 2.281,4.194 3.936,5.855 1.661,1.652 3.612,2.97 5.854,3.935 2.242,0.966 4.646,1.447 7.202,1.447 h 8.493 c 2.553,0 4.956,-0.481 7.198,-1.447 2.243,-0.965 4.193,-2.28 5.854,-3.935 1.653,-1.661 2.968,-3.612 3.936,-5.855 0.965,-2.242 1.45,-4.646 1.45,-7.201 v -49.31 z"
           inkscape:connector-curvature="0" /><path
           id="path61"
           d="m 1032.385,523.194 v -77.698 c 0,-2.549 -0.482,-4.953 -1.45,-7.195 -0.969,-2.241 -2.277,-4.194 -3.938,-5.854 -1.652,-1.653 -3.608,-2.971 -5.852,-3.936 -2.247,-0.964 -4.646,-1.453 -7.199,-1.453 h -8.496 c -2.557,0 -4.956,0.489 -7.198,1.453 -2.246,0.965 -4.194,2.281 -5.853,3.936 -1.661,1.66 -2.97,3.613 -3.938,5.854 -0.97,2.242 -1.451,4.646 -1.451,7.195 v 77.698 H 974.27 V 417.113 h 4.244 l 6.942,10.776 c 2.9,-3.94 6.545,-7.063 10.931,-9.375 4.386,-2.312 9.17,-3.477 14.344,-3.477 h 3.215 c 4.278,0 8.32,0.818 12.117,2.436 3.8,1.629 7.114,3.85 9.95,6.682 2.828,2.833 5.056,6.146 6.679,9.951 1.622,3.795 2.435,7.838 2.435,12.115 v 76.973 h -12.742 l 0,0 z"
           inkscape:connector-curvature="0" /></g></g></g></svg>