<?xml version="1.0" encoding="UTF-8" standalone="no"?>
<!-- Generator: Adobe Illustrator 16.0.0, SVG Export Plug-In . SVG Version: 6.00 Build 0)  -->

<svg
   xmlns:dc="http://purl.org/dc/elements/1.1/"
   xmlns:cc="http://creativecommons.org/ns#"
   xmlns:rdf="http://www.w3.org/1999/02/22-rdf-syntax-ns#"
   xmlns:svg="http://www.w3.org/2000/svg"
   xmlns="http://www.w3.org/2000/svg"
   xmlns:sodipodi="http://sodipodi.sourceforge.net/DTD/sodipodi-0.dtd"
   xmlns:inkscape="http://www.inkscape.org/namespaces/inkscape"
   version="1.1"
   id="Ebene_1"
   x="0px"
   y="0px"
   width="1280px"
   height="720px"
   viewBox="0 0 1280 720"
   enable-background="new 0 0 1280 720"
   xml:space="preserve"
   inkscape:version="0.48.2 r9819"
   sodipodi:docname="splash.svg"
   inkscape:export-filename="/Users/matthieu/Desktop/logo.png"
   inkscape:export-xdpi="67.154305"
   inkscape:export-ydpi="67.154305"><metadata
     id="metadata67"><rdf:RDF><cc:Work
         rdf:about=""><dc:format>image/svg+xml</dc:format><dc:type
           rdf:resource="http://purl.org/dc/dcmitype/StillImage" /><dc:title></dc:title></cc:Work></rdf:RDF></metadata><defs
     id="defs65"><filter
       id="filter3235"
       inkscape:label="Drop Shadow"
       style="color-interpolation-filters:sRGB;"><feFlood
         id="feFlood3237"
         flood-opacity="0.5"
         flood-color="rgb(0,0,0)"
         result="flood" /><feComposite
         id="feComposite3239"
         in2="SourceGraphic"
         in="flood"
         operator="in"
         result="composite1" /><feGaussianBlur
         id="feGaussianBlur3241"
         stdDeviation="2"
         result="blur"
         in="composite" /><feOffset
         id="feOffset3243"
         dx="4.5"
         dy="4"
         result="offset" /><feComposite
         id="feComposite3245"
         in2="offset"
         in="SourceGraphic"
         operator="over"
         result="composite2" /></filter><filter
       id="filter3247"
       inkscape:label="Drop Shadow"
       style="color-interpolation-filters:sRGB;"><feFlood
         id="feFlood3249"
         flood-opacity="0.5"
         flood-color="rgb(0,0,0)"
         result="flood" /><feComposite
         id="feComposite3251"
         in2="SourceGraphic"
         in="flood"
         operator="in"
         result="composite1" /><feGaussianBlur
         id="feGaussianBlur3253"
         stdDeviation="2"
         result="blur"
         in="composite" /><feOffset
         id="feOffset3255"
         dx="4.5"
         dy="4"
         result="offset" /><feComposite
         id="feComposite3257"
         in2="offset"
         in="SourceGraphic"
         operator="over"
         result="composite2" /></filter><filter
       id="filter3259"
       inkscape:label="Drop Shadow"
       style="color-interpolation-filters:sRGB;"><feFlood
         id="feFlood3261"
         flood-opacity="0.5"
         flood-color="rgb(0,0,0)"
         result="flood" /><feComposite
         id="feComposite3263"
         in2="SourceGraphic"
         in="flood"
         operator="in"
         result="composite1" /><feGaussianBlur
         id="feGaussianBlur3265"
         stdDeviation="2"
         result="blur"
         in="composite" /><feOffset
         id="feOffset3267"
         dx="4.5"
         dy="4"
         result="offset" /><feComposite
         id="feComposite3269"
         in2="offset"
         in="SourceGraphic"
         operator="over"
         result="composite2" /></filter><filter
       id="filter3271"
       inkscape:label="Drop Shadow"
       style="color-interpolation-filters:sRGB;"><feFlood
         id="feFlood3273"
         flood-opacity="0.5"
         flood-color="rgb(0,0,0)"
         result="flood" /><feComposite
         id="feComposite3275"
         in2="SourceGraphic"
         in="flood"
         operator="in"
         result="composite1" /><feGaussianBlur
         id="feGaussianBlur3277"
         stdDeviation="2"
         result="blur"
         in="composite" /><feOffset
         id="feOffset3279"
         dx="4.5"
         dy="4"
         result="offset" /><feComposite
         id="feComposite3281"
         in2="offset"
         in="SourceGraphic"
         operator="over"
         result="composite2" /></filter><filter
       id="filter3283"
       inkscape:label="Drop Shadow"
       style="color-interpolation-filters:sRGB;"><feFlood
         id="feFlood3285"
         flood-opacity="0.5"
         flood-color="rgb(0,0,0)"
         result="flood" /><feComposite
         id="feComposite3287"
         in2="SourceGraphic"
         in="flood"
         operator="in"
         result="composite1" /><feGaussianBlur
         id="feGaussianBlur3289"
         stdDeviation="2"
         result="blur"
         in="composite" /><feOffset
         id="feOffset3291"
         dx="4.5"
         dy="4"
         result="offset" /><feComposite
         id="feComposite3293"
         in2="offset"
         in="SourceGraphic"
         operator="over"
         result="composite2" /></filter><filter
       id="filter3295"
       inkscape:label="Drop Shadow"
       style="color-interpolation-filters:sRGB;"><feFlood
         id="feFlood3297"
         flood-opacity="0.5"
         flood-color="rgb(0,0,0)"
         result="flood" /><feComposite
         id="feComposite3299"
         in2="SourceGraphic"
         in="flood"
         operator="in"
         result="composite1" /><feGaussianBlur
         id="feGaussianBlur3301"
         stdDeviation="2"
         result="blur"
         in="composite" /><feOffset
         id="feOffset3303"
         dx="4.5"
         dy="4"
         result="offset" /><feComposite
         id="feComposite3305"
         in2="offset"
         in="SourceGraphic"
         operator="over"
         result="composite2" /></filter><filter
       id="filter3307"
       inkscape:label="Drop Shadow"
       style="color-interpolation-filters:sRGB;"><feFlood
         id="feFlood3309"
         flood-opacity="0.5"
         flood-color="rgb(0,0,0)"
         result="flood" /><feComposite
         id="feComposite3311"
         in2="SourceGraphic"
         in="flood"
         operator="in"
         result="composite1" /><feGaussianBlur
         id="feGaussianBlur3313"
         stdDeviation="2"
         result="blur"
         in="composite" /><feOffset
         id="feOffset3315"
         dx="4.5"
         dy="4"
         result="offset" /><feComposite
         id="feComposite3317"
         in2="offset"
         in="SourceGraphic"
         operator="over"
         result="composite2" /></filter><filter
       id="filter3319"
       inkscape:label="Drop Shadow"
       style="color-interpolation-filters:sRGB;"><feFlood
         id="feFlood3321"
         flood-opacity="0.5"
         flood-color="rgb(0,0,0)"
         result="flood" /><feComposite
         id="feComposite3323"
         in2="SourceGraphic"
         in="flood"
         operator="in"
         result="composite1" /><feGaussianBlur
         id="feGaussianBlur3325"
         stdDeviation="2"
         result="blur"
         in="composite" /><feOffset
         id="feOffset3327"
         dx="4.5"
         dy="4"
         result="offset" /><feComposite
         id="feComposite3329"
         in2="offset"
         in="SourceGraphic"
         operator="over"
         result="composite2" /></filter><filter
       id="filter3331"
       inkscape:label="Drop Shadow"
       style="color-interpolation-filters:sRGB;"><feFlood
         id="feFlood3333"
         flood-opacity="0.5"
         flood-color="rgb(0,0,0)"
         result="flood" /><feComposite
         id="feComposite3335"
         in2="SourceGraphic"
         in="flood"
         operator="in"
         result="composite1" /><feGaussianBlur
         id="feGaussianBlur3337"
         stdDeviation="2"
         result="blur"
         in="composite" /><feOffset
         id="feOffset3339"
         dx="4.5"
         dy="4"
         result="offset" /><feComposite
         id="feComposite3341"
         in2="offset"
         in="SourceGraphic"
         operator="over"
         result="composite2" /></filter><filter
       id="filter3343"
       inkscape:label="Drop Shadow"
       style="color-interpolation-filters:sRGB;"><feFlood
         id="feFlood3345"
         flood-opacity="0.5"
         flood-color="rgb(0,0,0)"
         result="flood" /><feComposite
         id="feComposite3347"
         in2="SourceGraphic"
         in="flood"
         operator="in"
         result="composite1" /><feGaussianBlur
         id="feGaussianBlur3349"
         stdDeviation="2"
         result="blur"
         in="composite" /><feOffset
         id="feOffset3351"
         dx="4.5"
         dy="4"
         result="offset" /><feComposite
         id="feComposite3353"
         in2="offset"
         in="SourceGraphic"
         operator="over"
         result="composite2" /></filter><filter
       id="filter3355"
       inkscape:label="Drop Shadow"
       style="color-interpolation-filters:sRGB;"><feFlood
         id="feFlood3357"
         flood-opacity="0.5"
         flood-color="rgb(0,0,0)"
         result="flood" /><feComposite
         id="feComposite3359"
         in2="SourceGraphic"
         in="flood"
         operator="in"
         result="composite1" /><feGaussianBlur
         id="feGaussianBlur3361"
         stdDeviation="2"
         result="blur"
         in="composite" /><feOffset
         id="feOffset3363"
         dx="4.5"
         dy="4"
         result="offset" /><feComposite
         id="feComposite3365"
         in2="offset"
         in="SourceGraphic"
         operator="over"
         result="composite2" /></filter><filter
       id="filter3367"
       inkscape:label="Drop Shadow"
       style="color-interpolation-filters:sRGB;"><feFlood
         id="feFlood3369"
         flood-opacity="0.5"
         flood-color="rgb(0,0,0)"
         result="flood" /><feComposite
         id="feComposite3371"
         in2="SourceGraphic"
         in="flood"
         operator="in"
         result="composite1" /><feGaussianBlur
         id="feGaussianBlur3373"
         stdDeviation="2"
         result="blur"
         in="composite" /><feOffset
         id="feOffset3375"
         dx="4.5"
         dy="4"
         result="offset" /><feComposite
         id="feComposite3377"
         in2="offset"
         in="SourceGraphic"
         operator="over"
         result="composite2" /></filter><filter
       id="filter3379"
       inkscape:label="Drop Shadow"
       style="color-interpolation-filters:sRGB;"><feFlood
         id="feFlood3381"
         flood-opacity="0.5"
         flood-color="rgb(0,0,0)"
         result="flood" /><feComposite
         id="feComposite3383"
         in2="SourceGraphic"
         in="flood"
         operator="in"
         result="composite1" /><feGaussianBlur
         id="feGaussianBlur3385"
         stdDeviation="2"
         result="blur"
         in="composite" /><feOffset
         id="feOffset3387"
         dx="4.5"
         dy="4"
         result="offset" /><feComposite
         id="feComposite3389"
         in2="offset"
         in="SourceGraphic"
         operator="over"
         result="composite2" /></filter><filter
       id="filter3391"
       inkscape:label="Drop Shadow"
       style="color-interpolation-filters:sRGB;"><feFlood
         id="feFlood3393"
         flood-opacity="0.5"
         flood-color="rgb(0,0,0)"
         result="flood" /><feComposite
         id="feComposite3395"
         in2="SourceGraphic"
         in="flood"
         operator="in"
         result="composite1" /><feGaussianBlur
         id="feGaussianBlur3397"
         stdDeviation="2"
         result="blur"
         in="composite" /><feOffset
         id="feOffset3399"
         dx="4.5"
         dy="4"
         result="offset" /><feComposite
         id="feComposite3401"
         in2="offset"
         in="SourceGraphic"
         operator="over"
         result="composite2" /></filter><filter
       id="filter3403"
       inkscape:label="Drop Shadow"
       style="color-interpolation-filters:sRGB;"><feFlood
         id="feFlood3405"
         flood-opacity="0.5"
         flood-color="rgb(0,0,0)"
         result="flood" /><feComposite
         id="feComposite3407"
         in2="SourceGraphic"
         in="flood"
         operator="in"
         result="composite1" /><feGaussianBlur
         id="feGaussianBlur3409"
         stdDeviation="2"
         result="blur"
         in="composite" /><feOffset
         id="feOffset3411"
         dx="4.5"
         dy="4"
         result="offset" /><feComposite
         id="feComposite3413"
         in2="offset"
         in="SourceGraphic"
         operator="over"
         result="composite2" /></filter><filter
       id="filter3415"
       inkscape:label="Drop Shadow"
       style="color-interpolation-filters:sRGB;"><feFlood
         id="feFlood3417"
         flood-opacity="0.5"
         flood-color="rgb(0,0,0)"
         result="flood" /><feComposite
         id="feComposite3419"
         in2="SourceGraphic"
         in="flood"
         operator="in"
         result="composite1" /><feGaussianBlur
         id="feGaussianBlur3421"
         stdDeviation="2"
         result="blur"
         in="composite" /><feOffset
         id="feOffset3423"
         dx="4.5"
         dy="4"
         result="offset" /><feComposite
         id="feComposite3425"
         in2="offset"
         in="SourceGraphic"
         operator="over"
         result="composite2" /></filter><filter
       id="filter3427"
       inkscape:label="Drop Shadow"
       style="color-interpolation-filters:sRGB;"><feFlood
         id="feFlood3429"
         flood-opacity="0.5"
         flood-color="rgb(0,0,0)"
         result="flood" /><feComposite
         id="feComposite3431"
         in2="SourceGraphic"
         in="flood"
         operator="in"
         result="composite1" /><feGaussianBlur
         id="feGaussianBlur3433"
         stdDeviation="2"
         result="blur"
         in="composite" /><feOffset
         id="feOffset3435"
         dx="4.5"
         dy="4"
         result="offset" /><feComposite
         id="feComposite3437"
         in2="offset"
         in="SourceGraphic"
         operator="over"
         result="composite2" /></filter><filter
       id="filter3439"
       inkscape:label="Drop Shadow"
       style="color-interpolation-filters:sRGB;"><feFlood
         id="feFlood3441"
         flood-opacity="0.5"
         flood-color="rgb(0,0,0)"
         result="flood" /><feComposite
         id="feComposite3443"
         in2="SourceGraphic"
         in="flood"
         operator="in"
         result="composite1" /><feGaussianBlur
         id="feGaussianBlur3445"
         stdDeviation="2"
         result="blur"
         in="composite" /><feOffset
         id="feOffset3447"
         dx="4.5"
         dy="4"
         result="offset" /><feComposite
         id="feComposite3449"
         in2="offset"
         in="SourceGraphic"
         operator="over"
         result="composite2" /></filter><filter
       id="filter3451"
       inkscape:label="Drop Shadow"
       style="color-interpolation-filters:sRGB;"><feFlood
         id="feFlood3453"
         flood-opacity="0.5"
         flood-color="rgb(0,0,0)"
         result="flood" /><feComposite
         id="feComposite3455"
         in2="SourceGraphic"
         in="flood"
         operator="in"
         result="composite1" /><feGaussianBlur
         id="feGaussianBlur3457"
         stdDeviation="2"
         result="blur"
         in="composite" /><feOffset
         id="feOffset3459"
         dx="4.5"
         dy="4"
         result="offset" /><feComposite
         id="feComposite3461"
         in2="offset"
         in="SourceGraphic"
         operator="over"
         result="composite2" /></filter><filter
       id="filter3463"
       inkscape:label="Drop Shadow"
       style="color-interpolation-filters:sRGB;"><feFlood
         id="feFlood3465"
         flood-opacity="0.5"
         flood-color="rgb(0,0,0)"
         result="flood" /><feComposite
         id="feComposite3467"
         in2="SourceGraphic"
         in="flood"
         operator="in"
         result="composite1" /><feGaussianBlur
         id="feGaussianBlur3469"
         stdDeviation="2"
         result="blur"
         in="composite" /><feOffset
         id="feOffset3471"
         dx="4.5"
         dy="4"
         result="offset" /><feComposite
         id="feComposite3473"
         in2="offset"
         in="SourceGraphic"
         operator="over"
         result="composite2" /></filter><filter
       id="filter3475"
       inkscape:label="Drop Shadow"
       style="color-interpolation-filters:sRGB;"><feFlood
         id="feFlood3477"
         flood-opacity="0.5"
         flood-color="rgb(0,0,0)"
         result="flood" /><feComposite
         id="feComposite3479"
         in2="SourceGraphic"
         in="flood"
         operator="in"
         result="composite1" /><feGaussianBlur
         id="feGaussianBlur3481"
         stdDeviation="2"
         result="blur"
         in="composite" /><feOffset
         id="feOffset3483"
         dx="4.5"
         dy="4"
         result="offset" /><feComposite
         id="feComposite3485"
         in2="offset"
         in="SourceGraphic"
         operator="over"
         result="composite2" /></filter><filter
       id="filter3487"
       inkscape:label="Drop Shadow"
       style="color-interpolation-filters:sRGB;"><feFlood
         id="feFlood3489"
         flood-opacity="0.5"
         flood-color="rgb(0,0,0)"
         result="flood" /><feComposite
         id="feComposite3491"
         in2="SourceGraphic"
         in="flood"
         operator="in"
         result="composite1" /><feGaussianBlur
         id="feGaussianBlur3493"
         stdDeviation="2"
         result="blur"
         in="composite" /><feOffset
         id="feOffset3495"
         dx="4.5"
         dy="4"
         result="offset" /><feComposite
         id="feComposite3497"
         in2="offset"
         in="SourceGraphic"
         operator="over"
         result="composite2" /></filter></defs><sodipodi:namedview
     pagecolor="#ffffff"
     bordercolor="#666666"
     borderopacity="1"
     objecttolerance="10"
     gridtolerance="10"
     guidetolerance="10"
     inkscape:pageopacity="0"
     inkscape:pageshadow="2"
     inkscape:window-width="1280"
     inkscape:window-height="752"
     id="namedview63"
     showgrid="false"
     inkscape:zoom="0.32777778"
     inkscape:cx="786.00149"
     inkscape:cy="489.51852"
     inkscape:window-x="0"
     inkscape:window-y="0"
     inkscape:window-maximized="1"
     inkscape:current-layer="layer1" /><g
     inkscape:groupmode="layer"
     id="layer1"
     inkscape:label="Calque"><g
       id="g3205"
       transform="matrix(1.1026326,0,0,1.1026326,-91.66217,-25.579587)"
       style="display:inline"><path
   inkscape:export-ydpi="160.82401"
   inkscape:export-xdpi="160.82401"
   inkscape:export-filename="/home/matthieu/dev/retrobox.fr/campagne kisskiss/path4063.png"
   inkscape:connector-curvature="0"
   id="path4055"
   d="m 302.32115,624.20993 c -1.61891,-22.61353 -3.45401,-43.31443 -4.07791,-46.00202 -1.08795,-4.68631 -0.0347,-4.95422 25.71088,-6.53966 l 26.84533,-1.65315 11.25106,8.25905 c 7.96312,5.84546 11.67517,10.37965 12.70238,15.51556 2.9054,14.52713 1.60585,21.64902 -5.53025,30.30632 l -6.98151,8.46979 11.71218,9.8759 c 11.61797,9.79639 11.6695,9.89961 6.40246,12.8245 -2.92037,1.62178 -8.76036,4.12898 -12.97777,5.57155 -7.36776,2.52014 -8.19956,2.1605 -21.24348,-9.18476 -7.46654,-6.49418 -14.254,-11.80763 -15.08326,-11.80763 -0.82927,0 -0.79147,5.73301 0.0842,12.74003 l 1.59174,12.74002 -13.73116,0 -13.7312,0 -2.9435,-41.1155 z m 40.3357,-13.70523 c 3.87789,-5.91835 3.86477,-6.31348 -0.31283,-9.43519 -10.92537,-8.16431 -11.97818,-8.03638 -13.61539,1.65419 -0.85075,5.03542 -0.87892,10.23593 -0.0625,11.55667 2.72412,4.40774 9.89711,2.47194 13.99069,-3.77567 l 0,0 z"
   style="fill:#494949;fill-opacity:1;stroke:none;" /><path
   sodipodi:type="arc"
   style="fill:#d40000;fill-opacity:1;stroke:none"
   id="path4251"
   sodipodi:cx="577.47552"
   sodipodi:cy="147.64799"
   sodipodi:rx="35.190548"
   sodipodi:ry="35.190548"
   d="m 612.66607,147.64799 c 0,19.43521 -15.75534,35.19055 -35.19055,35.19055 -19.4352,0 -35.19054,-15.75534 -35.19054,-35.19055 0,-19.4352 15.75534,-35.19054 35.19054,-35.19054 19.43521,0 35.19055,15.75534 35.19055,35.19054 z"
   transform="matrix(0.78877752,0,0,0.78877752,149.88756,17.959091)" /><path
   transform="matrix(0.64346336,0,0,0.64346336,233.80293,39.414434)"
   d="m 612.66607,147.64799 c 0,19.43521 -15.75534,35.19055 -35.19055,35.19055 -19.4352,0 -35.19054,-15.75534 -35.19054,-35.19055 0,-19.4352 15.75534,-35.19054 35.19054,-35.19054 19.43521,0 35.19055,15.75534 35.19055,35.19054 z"
   sodipodi:ry="35.190548"
   sodipodi:rx="35.190548"
   sodipodi:cy="147.64799"
   sodipodi:cx="577.47552"
   id="path4253"
   style="fill:#ffffff;fill-opacity:1;stroke:none"
   sodipodi:type="arc" /><path
   inkscape:export-ydpi="160.82401"
   inkscape:export-xdpi="160.82401"
   inkscape:export-filename="/home/matthieu/dev/retrobox.fr/campagne kisskiss/path4063.png"
   inkscape:connector-curvature="0"
   id="path2999-1"
   d="m 493.82802,256.8461 -105.64574,143.01073 -0.51185,150.27902 237.19101,0 41.56218,0 237.19107,0 L 903.10284,399.85683 797.4571,256.8461 c 0,0 6.73907,39.59634 4.50428,43.50721 -2.23477,3.91088 72.06841,99.50352 72.06841,99.50352 l -96.12533,-0.61422 -47.70439,65.20964 -90.18788,0.61422 -78.92715,-0.61422 -47.70438,-65.10725 -96.12533,0.51183 c 0,0 74.30321,-95.49027 72.0684,-99.40116 -2.23479,-3.91085 4.50429,-43.60957 4.50429,-43.60957 z"
   style="fill:none;stroke:none;" /><path
   inkscape:export-ydpi="160.82401"
   inkscape:export-xdpi="160.82401"
   inkscape:export-filename="/home/matthieu/dev/retrobox.fr/campagne kisskiss/path4063.png"
   inkscape:connector-curvature="0"
   id="path3045"
   d="m 603.77328,494.34426 c 0.46669,0.42779 -9.89334,10.79762 0,20.98583 l 44.22375,0 0.71658,0 44.22382,0 c 9.89335,-10.18821 -0.4667,-20.55804 0,-20.98583 l -44.12143,0 -0.92133,0 -44.12139,0 z"
   style="fill:none;stroke:none;" /><path
   inkscape:export-ydpi="160.82401"
   inkscape:export-xdpi="160.82401"
   inkscape:export-filename="/home/matthieu/dev/retrobox.fr/campagne kisskiss/path4063.png"
   inkscape:connector-curvature="0"
   d="m 577.36183,178.22603 c -15.0335,0.3505 -31.27843,6.01758 -46.06644,22.72612 -43.01964,48.60659 -36.03421,108.40971 -36.03421,108.40971 l 0.30696,27.43512 c 0,0 -1.17465,38.81382 35.41998,44.12143 0,0 29.33332,-0.32464 62.85512,-52.00391 l 1.63791,0 97.55846,0 1.53557,0 c 33.52182,51.67937 62.8551,52.00391 62.8551,52.00391 36.59467,-5.30761 35.52239,-44.12143 35.52239,-44.12143 l 0.30695,-27.43512 c 0,0 6.98543,-59.80312 -36.03424,-108.40971 -43.01945,-48.60664 -98.88915,-4.40192 -98.88915,-4.40192 l -0.51185,0 -27.12801,0 -0.51186,0 c 0,0 -24.12248,-18.99344 -52.82284,-18.3242 z"
   style="fill:none;stroke:none;filter:url(#filter3463)"
   id="path3096" /><path
   inkscape:export-ydpi="160.82401"
   inkscape:export-xdpi="160.82401"
   inkscape:export-filename="/home/matthieu/dev/retrobox.fr/campagne kisskiss/path4063.png"
   inkscape:connector-curvature="0"
   d="m 609.00347,246.98076 0,13.12939 -20.11308,0 0,20.39237 -13.40872,0 m -19.69406,-33.52287 0,13.12939 20.11308,0 0,20.39241 13.40871,0 m 19.77064,-20.84042 0,-13.12939 -20.11309,0 0,-20.39241 -13.40871,0 m -19.69408,33.52291 0,-13.12939 20.11312,0 0,-20.39245 13.40871,0"
   style="fill:none;stroke:none;"
   id="path3119-8-9" /><path
   inkscape:export-ydpi="160.82401"
   inkscape:export-xdpi="160.82401"
   inkscape:export-filename="/home/matthieu/dev/retrobox.fr/campagne kisskiss/path4063.png"
   transform="matrix(3.2758366,0,0,3.2758366,440.49328,-96.227655)"
   d="m 80.8125,100.1875 c 0,1.48427 -0.881439,2.6875 -1.96875,2.6875 -1.087311,0 -1.96875,-1.20323 -1.96875,-2.6875 0,-1.484265 0.881439,-2.6875 1.96875,-2.6875 1.087311,0 1.96875,1.203235 1.96875,2.6875 z"
   sodipodi:ry="2.6875"
   sodipodi:rx="1.96875"
   sodipodi:cy="100.1875"
   sodipodi:cx="78.84375"
   id="path3175"
   style="opacity:0.66799998999999999;fill:none;"
   sodipodi:type="arc" /><path
   inkscape:export-ydpi="160.82401"
   inkscape:export-xdpi="160.82401"
   inkscape:export-filename="/home/matthieu/dev/retrobox.fr/campagne kisskiss/path4063.png"
   transform="matrix(3.2758366,0,0,3.2758366,440.49328,-96.227655)"
   d="m 79.625,101.1875 c 0,0.82843 -0.195875,1.5 -0.4375,1.5 -0.241625,0 -0.4375,-0.67157 -0.4375,-1.5 0,-0.82843 0.195875,-1.5 0.4375,-1.5 0.241625,0 0.4375,0.67157 0.4375,1.5 z"
   sodipodi:ry="1.5"
   sodipodi:rx="0.4375"
   sodipodi:cy="101.1875"
   sodipodi:cx="79.1875"
   id="path3177"
   style="opacity:0.66799998999999999;fill:none;"
   sodipodi:type="arc" /><path
   inkscape:export-ydpi="160.82401"
   inkscape:export-xdpi="160.82401"
   inkscape:export-filename="/home/matthieu/dev/retrobox.fr/campagne kisskiss/path4063.png"
   transform="matrix(3.2758366,0,0,3.2758366,428.33237,-90.436763)"
   d="m 82.0625,100.53125 c 0,1.60508 -1.301172,2.90625 -2.90625,2.90625 -1.605078,0 -2.90625,-1.30117 -2.90625,-2.90625 0,-1.605078 1.301172,-2.90625 2.90625,-2.90625 1.605078,0 2.90625,1.301172 2.90625,2.90625 z"
   sodipodi:ry="2.90625"
   sodipodi:rx="2.90625"
   sodipodi:cy="100.53125"
   sodipodi:cx="79.15625"
   id="path3949"
   style="fill:none;stroke:none;"
   sodipodi:type="arc" /><path
   inkscape:export-ydpi="160.82401"
   inkscape:export-xdpi="160.82401"
   inkscape:export-filename="/home/matthieu/dev/retrobox.fr/campagne kisskiss/path4063.png"
   d="m 82.0625,100.53125 c 0,1.60508 -1.301172,2.90625 -2.90625,2.90625 -1.605078,0 -2.90625,-1.30117 -2.90625,-2.90625 0,-1.605078 1.301172,-2.90625 2.90625,-2.90625 1.605078,0 2.90625,1.301172 2.90625,2.90625 z"
   sodipodi:ry="2.90625"
   sodipodi:rx="2.90625"
   sodipodi:cy="100.53125"
   sodipodi:cx="79.15625"
   id="path3949-5"
   style="fill:none;stroke:none;"
   sodipodi:type="arc"
   transform="matrix(3.2758366,0,0,3.2758366,444.09791,-55.075735)" /><path
   inkscape:export-ydpi="160.82401"
   inkscape:export-xdpi="160.82401"
   inkscape:export-filename="/home/matthieu/dev/retrobox.fr/campagne kisskiss/path4063.png"
   transform="matrix(3.2758366,0,0,3.2758366,462.2743,-104.0272)"
   d="m 82.0625,100.53125 c 0,1.60508 -1.301172,2.90625 -2.90625,2.90625 -1.605078,0 -2.90625,-1.30117 -2.90625,-2.90625 0,-1.605078 1.301172,-2.90625 2.90625,-2.90625 1.605078,0 2.90625,1.301172 2.90625,2.90625 z"
   sodipodi:ry="2.90625"
   sodipodi:rx="2.90625"
   sodipodi:cy="100.53125"
   sodipodi:cx="79.15625"
   id="path3949-9"
   style="fill:none;stroke:none;"
   sodipodi:type="arc" /><path
   inkscape:export-ydpi="160.82401"
   inkscape:export-xdpi="160.82401"
   inkscape:export-filename="/home/matthieu/dev/retrobox.fr/campagne kisskiss/path4063.png"
   d="m 82.0625,100.53125 c 0,1.60508 -1.301172,2.90625 -2.90625,2.90625 -1.605078,0 -2.90625,-1.30117 -2.90625,-2.90625 0,-1.605078 1.301172,-2.90625 2.90625,-2.90625 1.605078,0 2.90625,1.301172 2.90625,2.90625 z"
   sodipodi:ry="2.90625"
   sodipodi:rx="2.90625"
   sodipodi:cy="100.53125"
   sodipodi:cx="79.15625"
   id="path3949-5-9"
   style="fill:none;stroke:none;"
   sodipodi:type="arc"
   transform="matrix(3.2758366,0,0,3.2758366,478.03985,-68.666169)" /><path
   style="fill:#8aee49;fill-opacity:1;stroke:none"
   inkscape:transform-center-x="-7.1826102"
   inkscape:transform-center-y="-2.9006213"
   d="m 653.56844,103.86908 11.2791,-64.415817 49.63003,42.456106 z"
   id="path4000"
   inkscape:connector-curvature="0" /><path
   inkscape:export-ydpi="160.82401"
   inkscape:export-xdpi="160.82401"
   inkscape:export-filename="/home/matthieu/dev/retrobox.fr/campagne kisskiss/path4063.png"
   inkscape:connector-curvature="0"
   id="path4031"
   d="m 523.157,376.51515 c -9.51751,-3.73162 -15.84574,-9.37093 -20.07903,-17.89323 -4.59889,-9.25823 -5.21498,-14.64976 -5.30949,-46.4648 -0.0838,-28.25054 0.13307,-31.81475 2.6098,-42.87856 8.63544,-38.57466 29.74236,-71.07549 53.81263,-82.86181 17.828,-8.72969 37.91636,-7.48725 60.46253,3.73954 4.459,2.22037 9.49072,5.01397 11.18151,6.20802 2.6225,1.85199 5.27383,2.17098 18.0437,2.17098 l 14.96944,0 9.17361,-5.23269 c 33.13253,-18.89912 60.82707,-16.82689 84.0072,6.28578 17.38711,17.33653 28.99242,39.356 35.84671,68.01432 1.99769,8.35241 2.56869,15.26612 3.06062,37.05637 0.72071,31.9246 -0.41951,42.99844 -5.49374,53.35502 -5.80656,11.85129 -17.49834,20.03961 -28.61372,20.03961 -13.41084,0 -36.93646,-18.06847 -53.6253,-41.18609 l -7.05594,-9.77398 -51.96042,0 -51.96045,0 -7.05592,9.77398 c -21.11143,29.24382 -46.74682,45.63342 -62.01374,39.64754 z m 187.1469,-92.60064 c 2.76446,-2.12249 4.53236,-6.04731 4.53236,-10.0619 0,-10.75362 -13.29938,-15.05526 -20.41213,-6.60222 -3.88182,4.61327 -3.30058,11.58794 1.29509,15.54093 3.39983,2.92443 11.43287,3.54307 14.58468,1.12319 z m -119.39319,-11.25548 0,-10.42366 10.42364,0 10.42364,0 0,-8.68637 0,-8.68636 -10.42364,0 -10.42364,0 0,-10.42364 0,-10.42366 -8.68639,0 -8.68637,0 0,10.42366 0,10.42364 -9.84456,0 -9.84455,0 0,8.68636 0,8.68637 9.84455,0 9.84456,0 0,10.42366 0,10.42368 8.68637,0 8.68639,0 0,-10.42368 z m 153.71721,-2.9799 c 2.8047,-1.81384 4.81099,-7.66883 4.02918,-11.75853 -0.89715,-4.69318 -5.83013,-8.42522 -11.1365,-8.42522 -5.94825,0 -9.37787,2.30246 -11.07092,7.43245 -3.57816,10.84194 8.27454,19.15612 18.17824,12.7513 z M 695.8856,246.92539 c 4.3,-4.36877 4.15394,-11.91091 -0.31743,-16.38212 -4.28564,-4.28566 -11.613,-4.28566 -15.89868,0 -5.80236,5.80238 -4.04909,15.88312 3.31662,19.06932 3.60939,1.56133 10.03533,0.22277 12.89939,-2.6872 z m 33.21197,-12.96676 c 5.17092,-4.79224 5.51813,-12.16935 0.79508,-16.89239 -7.22515,-7.22514 -19.68912,-2.06986 -19.68912,8.14373 0,9.98744 11.70784,15.40862 18.89404,8.74866 l 0,0 z"
   style="fill:#494949;fill-opacity:0;stroke:#494949;stroke-width:3.27583646999999978;stroke-opacity:0;" /><path
   inkscape:export-ydpi="160.82401"
   inkscape:export-xdpi="160.82401"
   inkscape:export-filename="/home/matthieu/dev/retrobox.fr/campagne kisskiss/path4063.png"
   inkscape:connector-curvature="0"
   id="path4033"
   d="m 523.157,376.51515 c -9.51751,-3.73162 -15.84574,-9.37093 -20.07903,-17.89323 -4.59889,-9.25823 -5.21498,-14.64976 -5.30949,-46.4648 -0.0838,-28.25054 0.13307,-31.81475 2.6098,-42.87856 8.63544,-38.57466 29.74236,-71.07549 53.81263,-82.86181 17.828,-8.72969 37.91636,-7.48725 60.46253,3.73954 4.459,2.22037 9.49072,5.01397 11.18151,6.20802 2.6225,1.85199 5.27383,2.17098 18.0437,2.17098 l 14.96944,0 9.17361,-5.23269 c 33.13253,-18.89912 60.82707,-16.82689 84.0072,6.28578 17.38711,17.33653 28.99242,39.356 35.84671,68.01432 1.99769,8.35241 2.56869,15.26612 3.06062,37.05637 0.72071,31.9246 -0.41951,42.99844 -5.49374,53.35502 -5.80656,11.85129 -17.49834,20.03961 -28.61372,20.03961 -13.41084,0 -36.93646,-18.06847 -53.6253,-41.18609 l -7.05594,-9.77398 -51.96042,0 -51.96045,0 -7.05592,9.77398 c -21.11143,29.24382 -46.74682,45.63342 -62.01374,39.64754 z m 187.1469,-92.60064 c 2.76446,-2.12249 4.53236,-6.04731 4.53236,-10.0619 0,-10.75362 -13.29938,-15.05526 -20.41213,-6.60222 -3.88182,4.61327 -3.30058,11.58794 1.29509,15.54093 3.39983,2.92443 11.43287,3.54307 14.58468,1.12319 z m -119.39319,-11.25548 0,-10.42366 10.42364,0 10.42364,0 0,-8.68637 0,-8.68636 -10.42364,0 -10.42364,0 0,-10.42364 0,-10.42366 -8.68639,0 -8.68637,0 0,10.42366 0,10.42364 -9.84456,0 -9.84455,0 0,8.68636 0,8.68637 9.84455,0 9.84456,0 0,10.42366 0,10.42368 8.68637,0 8.68639,0 0,-10.42368 z m 153.71721,-2.9799 c 2.8047,-1.81384 4.81099,-7.66883 4.02918,-11.75853 -0.89715,-4.69318 -5.83013,-8.42522 -11.1365,-8.42522 -5.94825,0 -9.37787,2.30246 -11.07092,7.43245 -3.57816,10.84194 8.27454,19.15612 18.17824,12.7513 z M 695.8856,246.92539 c 4.3,-4.36877 4.15394,-11.91091 -0.31743,-16.38212 -4.28564,-4.28566 -11.613,-4.28566 -15.89868,0 -5.80236,5.80238 -4.04909,15.88312 3.31662,19.06932 3.60939,1.56133 10.03533,0.22277 12.89939,-2.6872 z m 33.21197,-12.96676 c 5.17092,-4.79224 5.51813,-12.16935 0.79508,-16.89239 -7.22515,-7.22514 -19.68912,-2.06986 -19.68912,8.14373 0,9.98744 11.70784,15.40862 18.89404,8.74866 l 0,0 z"
   style="fill:#494949;fill-opacity:0;stroke:#494949;stroke-width:3.01127624999999988;stroke-miterlimit:4;stroke-opacity:0;stroke-dasharray:none;" /><path
   inkscape:export-ydpi="160.82401"
   inkscape:export-xdpi="160.82401"
   inkscape:export-filename="/home/matthieu/dev/retrobox.fr/campagne kisskiss/path4063.png"
   inkscape:connector-curvature="0"
   id="path4035"
   d="m 523.157,376.51515 c -9.51751,-3.73162 -15.84574,-9.37093 -20.07903,-17.89323 -4.59889,-9.25823 -5.21498,-14.64976 -5.30949,-46.4648 -0.0838,-28.25054 0.13307,-31.81475 2.6098,-42.87856 8.63544,-38.57466 29.74236,-71.07549 53.81263,-82.86181 17.828,-8.72969 37.91636,-7.48725 60.46253,3.73954 4.459,2.22037 9.49072,5.01397 11.18151,6.20802 2.6225,1.85199 5.27383,2.17098 18.0437,2.17098 l 14.96944,0 9.17361,-5.23269 c 33.13253,-18.89912 60.82707,-16.82689 84.0072,6.28578 17.38711,17.33653 28.99242,39.356 35.84671,68.01432 1.99769,8.35241 2.56869,15.26612 3.06062,37.05637 0.72071,31.9246 -0.41951,42.99844 -5.49374,53.35502 -5.80656,11.85129 -17.49834,20.03961 -28.61372,20.03961 -13.41084,0 -36.93646,-18.06847 -53.6253,-41.18609 l -7.05594,-9.77398 -51.96042,0 -51.96045,0 -7.05592,9.77398 c -21.11143,29.24382 -46.74682,45.63342 -62.01374,39.64754 z m 187.1469,-92.60064 c 2.76446,-2.12249 4.53236,-6.04731 4.53236,-10.0619 0,-10.75362 -13.29938,-15.05526 -20.41213,-6.60222 -3.88182,4.61327 -3.30058,11.58794 1.29509,15.54093 3.39983,2.92443 11.43287,3.54307 14.58468,1.12319 z m -119.39319,-11.25548 0,-10.42366 10.42364,0 10.42364,0 0,-8.68637 0,-8.68636 -10.42364,0 -10.42364,0 0,-10.42364 0,-10.42366 -8.68639,0 -8.68637,0 0,10.42366 0,10.42364 -9.84456,0 -9.84455,0 0,8.68636 0,8.68637 9.84455,0 9.84456,0 0,10.42366 0,10.42368 8.68637,0 8.68639,0 0,-10.42368 z m 153.71721,-2.9799 c 2.8047,-1.81384 4.81099,-7.66883 4.02918,-11.75853 -0.89715,-4.69318 -5.83013,-8.42522 -11.1365,-8.42522 -5.94825,0 -9.37787,2.30246 -11.07092,7.43245 -3.57816,10.84194 8.27454,19.15612 18.17824,12.7513 z M 695.8856,246.92539 c 4.3,-4.36877 4.15394,-11.91091 -0.31743,-16.38212 -4.28564,-4.28566 -11.613,-4.28566 -15.89868,0 -5.80236,5.80238 -4.04909,15.88312 3.31662,19.06932 3.60939,1.56133 10.03533,0.22277 12.89939,-2.6872 z m 33.21197,-12.96676 c 5.17092,-4.79224 5.51813,-12.16935 0.79508,-16.89239 -7.22515,-7.22514 -19.68912,-2.06986 -19.68912,8.14373 0,9.98744 11.70784,15.40862 18.89404,8.74866 l 0,0 z"
   style="fill:#494949;fill-opacity:1;stroke:none;" /><path
   inkscape:export-ydpi="160.82401"
   inkscape:export-xdpi="160.82401"
   inkscape:export-filename="/home/matthieu/dev/retrobox.fr/campagne kisskiss/path4063.png"
   inkscape:connector-curvature="0"
   id="path4045"
   d="m 390.4124,474.46205 0.0357,-73.83418 49.06744,-66.37939 c 26.98709,-36.50867 49.44142,-66.73723 49.89847,-67.17462 0.45707,-0.43736 0.45241,1.49486 -0.01,4.29386 -0.46274,2.79897 -1.45997,11.14264 -2.21603,18.54143 -1.33078,13.02306 -1.5367,13.69235 -6.4521,20.97008 -5.28566,7.82591 -36.66607,50.0875 -56.0165,75.44022 -6.14829,8.05541 -11.17866,15.0393 -11.17866,15.51979 0,0.48051 22.09152,0.49715 49.0923,0.037 l 49.0923,-0.83658 24.16278,33.06588 24.16277,33.06582 85.44253,0.0263 85.4426,0.0263 11.8448,-16.05333 c 6.51463,-8.82924 17.31723,-23.70258 24.00572,-33.05176 l 12.16093,-16.99854 49.51234,0.74826 c 27.23175,0.41156 49.51233,0.4123 49.51233,0.001 0,-0.41058 -9.0398,-12.58455 -20.08848,-27.05325 -37.18385,-48.69398 -54.40263,-73.22449 -53.34086,-75.99143 0.3171,-0.82668 -0.24504,-8.16927 -1.24921,-16.31688 -1.00429,-8.14704 -1.6812,-14.95665 -1.5042,-15.1319 0.17691,-0.17515 22.60228,29.85443 49.83408,66.73265 l 49.51233,67.05134 0,73.56832 0,73.5683 -255.3794,0 -255.37935,0 0.0356,-73.83419 z m 306.32991,39.79028 c 3.1031,-4.73593 3.35729,-10.26692 0.74341,-16.17607 l -2.37665,-5.37283 -46.75704,0 -46.757,0 -1.9518,4.09295 c -2.50821,5.25979 -2.49292,12.58541 0.0355,16.86519 l 1.98698,3.36371 46.62998,0 46.63001,0 1.81692,-2.77295 z"
   style="fill:#494949;fill-opacity:1;stroke:none;" />

<path
   inkscape:export-ydpi="160.82401"
   inkscape:export-xdpi="160.82401"
   inkscape:export-filename="/home/matthieu/dev/retrobox.fr/campagne kisskiss/path4063.png"
   inkscape:connector-curvature="0"
   id="path4051"
   d="m 488.61843,658.95541 c 1.75734,-10.05915 5.72045,-45.11459 5.72045,-50.59999 0,-4.46099 -1.67025,-5.13788 -16.21458,-6.57103 l -16.21457,-1.59775 0,-14.91609 0,-14.91613 47.48552,0 47.48551,0 0,18.78871 0,18.78873 -8.68637,-1.5246 c -25.55663,-4.48567 -23.74608,-4.58729 -23.70233,1.33032 0.023,3.0083 1.58184,14.8509 3.46574,26.31691 5.55944,33.83628 7.07751,31.27094 -18.50463,31.27094 l -21.9476,0 1.11286,-6.37002 0,0 z"
   style="fill:#494949;fill-opacity:1;stroke:none;" /><path
   inkscape:export-ydpi="160.82401"
   inkscape:export-xdpi="160.82401"
   inkscape:export-filename="/home/matthieu/dev/retrobox.fr/campagne kisskiss/path4063.png"
   inkscape:connector-curvature="0"
   id="path4053"
   d="m 393.94535,661.27179 c -0.58472,-0.9555 -2.30923,-15.28802 -3.83223,-31.85004 -2.28453,-24.84368 -2.20605,-32.7473 0.44863,-45.16915 l 3.21769,-15.05637 30.89402,-0.64845 30.89402,-0.64845 -1.46161,7.30801 c -0.80389,4.01941 -1.46159,8.66679 -1.46159,10.32753 0,5.95248 -6.87757,9.69307 -20.6965,11.25654 -11.46307,1.2969 -14.049,2.36592 -14.049,5.80795 0,3.43701 2.57472,4.50981 13.89818,5.79091 l 13.89822,1.57241 0,8.88356 0,8.88353 -12.91546,1.61367 c -10.15205,1.26842 -12.63012,2.3573 -11.58186,5.08908 0.73353,1.91149 1.33366,3.91135 1.33366,4.44413 0,0.53282 6.8124,0.96873 15.13868,0.96873 l 15.13869,0 4.55043,10.61573 c 2.50272,5.8386 4.55041,11.05044 4.55041,11.5818 0,1.75962 -66.88,1.00078 -67.96438,-0.77112 z"
   style="fill:#494949;fill-opacity:1;stroke:none;" /><path
   inkscape:export-ydpi="160.82401"
   inkscape:export-xdpi="160.82401"
   inkscape:export-filename="/home/matthieu/dev/retrobox.fr/campagne kisskiss/path4063.png"
   inkscape:connector-curvature="0"
   id="path4057"
   d="m 573.06672,663.58816 c -0.0156,-0.9555 -1.56643,-18.9363 -3.44594,-39.95731 -1.87954,-21.02104 -3.43023,-40.95245 -3.44595,-44.29206 l -0.0294,-6.07199 25.7319,-1.66776 25.73187,-1.66777 12.28971,8.46432 12.28977,8.46426 0.90216,14.33185 c 0.82493,13.1041 0.34584,14.93661 -5.5925,21.39124 -3.57207,3.88266 -6.49467,7.73418 -6.49467,8.55897 0,0.82477 4.88336,6.11353 10.85189,11.75283 l 10.8519,10.2532 -11.14636,4.93056 c -6.1305,2.71181 -12.13853,4.93057 -13.35116,4.93057 -1.21262,0 -8.19694,-5.21184 -15.52069,-11.58182 -14.83993,-12.90743 -17.48628,-13.97903 -15.73092,-6.37005 0.66125,2.86653 1.89944,8.59954 2.75149,12.74003 l 1.54921,7.5282 -14.08227,0 c -7.74522,0 -14.0951,-0.78177 -14.11082,-1.73727 z m 37.02384,-53.76197 4.88158,-6.85552 -9.35658,-4.77338 -9.35658,-4.77339 0,10.08469 c 0,15.34265 5.58781,17.89492 13.83158,6.3176 l 0,0 z"
   style="fill:#494949;fill-opacity:1;stroke:none;" /><path
   inkscape:export-ydpi="160.82401"
   inkscape:export-xdpi="160.82401"
   inkscape:export-filename="/home/matthieu/dev/retrobox.fr/campagne kisskiss/path4063.png"
   inkscape:connector-curvature="0"
   id="path4059"
   d="m 670.17936,645.58342 -19.89238,-17.3078 2.94654,-19.92901 c 1.62063,-10.96094 3.27564,-20.17652 3.67785,-20.47909 0.4022,-0.30268 7.00604,-4.36675 14.67516,-9.03158 12.78932,-7.77926 15.38828,-8.48152 31.38805,-8.48152 l 17.4442,0 12.77759,15.63545 c 7.02768,8.59952 13.38566,16.67786 14.12882,17.95187 0.74316,1.27399 -0.36883,12.19664 -2.4711,24.27257 l -3.82226,21.95623 -22.0055,6.22271 c -12.10299,3.42253 -23.569,6.28465 -25.48,6.36036 -1.91099,0.0756 -12.42614,-7.65091 -23.36697,-17.17019 z m 35.95617,-21.89525 c 4.81856,-1.832 5.94171,-3.79406 5.94171,-10.37951 0,-6.97609 -0.89768,-8.31718 -6.36998,-9.51628 -3.50352,-0.76768 -7.70041,-1.8077 -9.32644,-2.3112 -1.62607,-0.50346 -4.73611,2.81657 -6.91128,7.37787 -3.88717,8.15156 -3.86194,8.36849 1.47582,12.69073 6.25439,5.06451 7.15896,5.19183 15.19017,2.13839 z"
   style="fill:#494949;fill-opacity:1;stroke:none;" /><path
   inkscape:export-ydpi="160.82401"
   inkscape:export-xdpi="160.82401"
   inkscape:export-filename="/home/matthieu/dev/retrobox.fr/campagne kisskiss/path4063.png"
   inkscape:connector-curvature="0"
   id="path4061"
   d="m 756.0777,643.89904 c -0.006,-10.51051 -0.67171,-30.58264 -1.47982,-44.60474 l -1.46925,-25.49476 9.21303,-2.45909 c 6.50613,-1.73659 15.53463,-1.73227 30.72865,0.0136 20.86655,2.39919 21.68142,2.71641 27.01226,10.51572 6.40507,9.371 7.09227,20.95681 1.72854,29.14286 -3.60599,5.50344 -3.50634,5.99345 2.31639,11.38974 5.97087,5.5336 6.08444,5.5472 6.08444,0.72741 0,-2.70131 1.16781,-11.61745 2.59513,-19.81363 2.59341,-14.8926 2.6041,-14.90787 16.79364,-23.91048 13.31073,-8.44505 15.31177,-9.00975 32.0016,-9.03034 l 17.80304,-0.023 14.08658,17.23908 14.08655,17.2391 -3.79459,22.84856 -3.79464,22.84857 -25.17287,6.54593 -25.1729,6.54595 -15.27594,-13.62538 c -8.40178,-7.49397 -17.33599,-15.09674 -19.85385,-16.89503 -4.2871,-3.062 -4.48154,-2.88595 -3.06135,2.77244 0.83406,3.32316 0.32168,9.66234 -1.13866,14.08711 -3.62209,10.97506 -10.87013,13.0483 -45.61655,13.0483 l -28.60893,0 -0.01,-19.11 z m 40.73639,0.57911 c 1.96846,0 3.28511,-2.34397 3.28511,-5.84827 0,-4.14635 -1.72911,-6.50564 -5.94171,-8.10729 -8.20806,-3.1207 -7.95651,-3.35003 -7.95651,7.25427 0,7.72321 0.68946,9.24874 3.66402,8.10728 2.01519,-0.7733 5.14228,-1.40599 6.94909,-1.40599 z m 87.68167,-20.78998 c 4.81852,-1.832 5.94171,-3.79406 5.94171,-10.37951 0,-6.97609 -0.89771,-8.31718 -6.37,-9.51628 -3.5035,-0.76768 -7.73057,-1.8193 -9.39352,-2.33694 -1.75902,-0.54753 -4.50856,2.61313 -6.57444,7.55749 -3.42469,8.19639 -3.35835,8.6468 1.86532,12.66494 6.36614,4.89697 6.78571,4.95503 14.53093,2.0103 l 0,0 z m -88.06058,-19.99426 c 3.69446,-1.41771 5.15008,-11.3851 1.92675,-13.19343 -0.95552,-0.53605 -4.6038,-1.65977 -8.1073,-2.4972 -6.14501,-1.4688 -6.37,-1.19376 -6.37,7.78701 0,9.63562 3.04308,11.55198 12.55055,7.90362 z"
   style="fill:#494949;fill-opacity:1;stroke:none;" /><path
   inkscape:export-ydpi="160.82401"
   inkscape:export-xdpi="160.82401"
   inkscape:connector-curvature="0"
   id="path4063"
   d="m 945.21704,649.46105 -11.06278,-11.23164 14.26474,-12.59557 14.26472,-12.59564 -11.01201,-12.24798 -11.01198,-12.24804 8.4468,-8.44681 8.4468,-8.4468 10.54286,10.34701 c 8.71501,8.55312 10.93622,9.74612 12.81164,6.8811 1.24783,-1.90625 4.41953,-6.85357 7.04819,-10.99406 2.62869,-4.14053 5.51974,-7.5282 6.42457,-7.5282 0.90485,0 6.19881,4.63985 11.76441,10.31079 l 10.1193,10.31076 -8.8331,10.77959 -8.83304,10.77957 7.87524,6.12697 c 4.3314,3.36979 10.8833,8.79873 14.5599,12.06424 l 6.6848,5.93733 -10.1521,11.84394 c -5.5836,6.5142 -10.9,11.92075 -11.8143,12.01454 -0.9142,0.0937 -5.99065,-5.56247 -11.281,-12.56945 -5.29034,-7.00702 -10.38471,-12.74002 -11.32087,-12.74002 -0.93613,0 -7.12409,5.733 -13.75103,12.74002 -6.62696,7.00698 -12.28973,12.73998 -12.584,12.73998 -0.29418,0 -5.51326,-5.05422 -11.59776,-11.23163 l 0,0 z"
   style="fill:#494949;fill-opacity:1;stroke:none;" /><rect
   style="fill:#ff5599;fill-opacity:1;stroke:none"
   id="rect4217"
   width="53.351978"
   height="51.35751"
   x="664.43219"
   y="61.577484"
   transform="matrix(0.9961947,0.08715575,-0.08715575,0.9961947,0,0)" /><rect
   style="fill:#ffffff;fill-opacity:1;stroke:none"
   id="rect4219"
   width="42.553368"
   height="41.33057"
   x="670.05707"
   y="66.957809"
   transform="matrix(0.9961947,0.08715575,-0.08715575,0.9961947,0,0)" /><rect
   style="fill:#0249e1;fill-opacity:1;stroke:none"
   id="rect4221"
   width="8.3150263"
   height="54.536785"
   x="604.98969"
   y="-117.58348"
   transform="matrix(0.96841487,0.24934441,-0.24934441,0.96841487,0,0)" /><rect
   transform="matrix(-0.24934441,0.96841487,-0.96841487,-0.24934441,0,0)"
   y="-636.41553"
   x="-94.472626"
   height="54.536785"
   width="8.3150263"
   id="rect4245"
   style="fill:#0249e1;fill-opacity:1;stroke:none" /><path
   inkscape:connector-curvature="0"
   id="path4249"
   d="M 660.14893,96.330265 668.419,49.099256 704.80876,80.228949 z"
   inkscape:transform-center-y="-2.1267937"
   inkscape:transform-center-x="-5.2664399"
   style="fill:#ffffff;fill-opacity:1;stroke:none" /></g></g></svg>