<?xml version="1.0" encoding="utf-8"?>
<!-- Generator: Adobe Illustrator 17.0.0, SVG Export Plug-In . SVG Version: 6.00 Build 0)  -->
<!DOCTYPE svg PUBLIC "-//W3C//DTD SVG 1.1//EN" "http://www.w3.org/Graphics/SVG/1.1/DTD/svg11.dtd">
<svg version="1.1"
	 id="Ebene_1" inkscape:export-ydpi="67.154305" inkscape:export-xdpi="67.154305" inkscape:version="0.48.2 r9819" inkscape:export-filename="/Users/matthieu/Desktop/logo.png" sodipodi:docname="splash.svg" xmlns:dc="http://purl.org/dc/elements/1.1/" xmlns:cc="http://creativecommons.org/ns#" xmlns:rdf="http://www.w3.org/1999/02/22-rdf-syntax-ns#" xmlns:svg="http://www.w3.org/2000/svg" xmlns:sodipodi="http://sodipodi.sourceforge.net/DTD/sodipodi-0.dtd" xmlns:inkscape="http://www.inkscape.org/namespaces/inkscape"
	 xmlns="http://www.w3.org/2000/svg" xmlns:xlink="http://www.w3.org/1999/xlink" x="0px" y="0px" width="1280px" height="720px"
	 viewBox="0 0 1280 720" enable-background="new 0 0 1280 720" xml:space="preserve">
<sodipodi:namedview  inkscape:current-layer="layer1" inkscape:window-maximized="1" inkscape:window-y="0" inkscape:window-x="0" inkscape:window-height="752" inkscape:window-width="1280" inkscape:pageshadow="2" inkscape:pageopacity="0" inkscape:cy="489.51852" inkscape:cx="786.00149" inkscape:zoom="0.32777778" showgrid="false" guidetolerance="10" gridtolerance="10" objecttolerance="10" borderopacity="1" pagecolor="#ffffff" bordercolor="#666666" id="namedview63">
	</sodipodi:namedview>
<g id="layer1" inkscape:groupmode="layer" inkscape:label="Calque">
	<g id="g3205" transform="matrix(1.1026326,0,0,1.1026326,-91.66217,-25.579587)">
		
			<path id="path4031" inkscape:export-ydpi="94.847168" inkscape:export-xdpi="94.847168" inkscape:export-filename="/Users/matthieu/dev/retrobox.fr/logos/logo-noname-grey.png" inkscape:connector-curvature="0" fill="#FFFFFF" fill-opacity="0" stroke="#494949" stroke-width="3.2758" stroke-opacity="0" d="
			M540.959,373.59c-9.517-3.731-15.845-9.37-20.079-17.893c-4.598-9.258-5.215-14.65-5.31-46.465
			c-0.083-28.251,0.133-31.815,2.61-42.879c8.635-38.575,29.742-71.076,53.813-82.862c17.828-8.73,37.916-7.487,60.462,3.739
			c4.458,2.22,9.49,5.014,11.182,6.208c2.622,1.852,5.273,2.171,18.044,2.171h14.969l9.173-5.233
			c33.133-18.899,60.827-16.827,84.008,6.286c17.386,17.336,28.992,39.356,35.846,68.014c1.998,8.352,2.568,15.266,3.061,37.057
			c0.72,31.924-0.42,42.998-5.494,53.354c-5.806,11.852-17.499,20.041-28.614,20.041c-13.411,0-36.937-18.069-53.625-41.187
			l-7.056-9.774h-51.96h-51.96l-7.056,9.774C581.862,363.187,556.227,379.576,540.959,373.59L540.959,373.59z M728.107,280.989
			c2.764-2.122,4.533-6.047,4.533-10.062c0-10.754-13.3-15.055-20.413-6.602c-3.882,4.613-3.3,11.588,1.296,15.541
			C716.921,282.791,724.954,283.409,728.107,280.989z M608.714,269.734v-10.423h10.423h10.423v-8.687v-8.686h-10.423h-10.423
			v-10.424V221.09h-8.687h-8.687v10.424v10.424h-9.844h-9.845v8.686v8.687h9.845h9.844v10.423v10.424h8.687h8.687V269.734z
			 M762.43,266.754c2.805-1.814,4.811-7.669,4.03-11.759c-0.897-4.693-5.83-8.425-11.137-8.425c-5.948,0-9.377,2.303-11.071,7.432
			C740.674,264.844,752.527,273.159,762.43,266.754L762.43,266.754z M713.689,244c4.3-4.369,4.154-11.911-0.318-16.382
			c-4.286-4.286-11.613-4.286-15.899,0c-5.803,5.802-4.049,15.883,3.317,19.069C704.398,248.249,710.825,246.91,713.689,244
			L713.689,244z M746.9,231.033c5.17-4.792,5.519-12.169,0.795-16.892c-7.225-7.225-19.689-2.07-19.689,8.144
			C728.006,232.272,739.714,237.694,746.9,231.033L746.9,231.033z"/>
		
			<path id="path4033" inkscape:export-ydpi="94.847168" inkscape:export-xdpi="94.847168" inkscape:export-filename="/Users/matthieu/dev/retrobox.fr/logos/logo-noname-grey.png" inkscape:connector-curvature="0" fill="#FFFFFF" fill-opacity="0" stroke="#494949" stroke-width="3.0113" stroke-opacity="0" d="
			M540.959,373.59c-9.517-3.731-15.845-9.37-20.079-17.893c-4.598-9.258-5.215-14.65-5.31-46.465
			c-0.083-28.251,0.133-31.815,2.61-42.879c8.635-38.575,29.742-71.076,53.813-82.862c17.828-8.73,37.916-7.487,60.462,3.739
			c4.458,2.22,9.49,5.014,11.182,6.208c2.622,1.852,5.273,2.171,18.044,2.171h14.969l9.173-5.233
			c33.133-18.899,60.827-16.827,84.008,6.286c17.386,17.336,28.992,39.356,35.846,68.014c1.998,8.352,2.568,15.266,3.061,37.057
			c0.72,31.924-0.42,42.998-5.494,53.354c-5.806,11.852-17.499,20.041-28.614,20.041c-13.411,0-36.937-18.069-53.625-41.187
			l-7.056-9.774h-51.96h-51.96l-7.056,9.774C581.862,363.187,556.227,379.576,540.959,373.59L540.959,373.59z M728.107,280.989
			c2.764-2.122,4.533-6.047,4.533-10.062c0-10.754-13.3-15.055-20.413-6.602c-3.882,4.613-3.3,11.588,1.296,15.541
			C716.921,282.791,724.954,283.409,728.107,280.989z M608.714,269.734v-10.423h10.423h10.423v-8.687v-8.686h-10.423h-10.423
			v-10.424V221.09h-8.687h-8.687v10.424v10.424h-9.844h-9.845v8.686v8.687h9.845h9.844v10.423v10.424h8.687h8.687V269.734z
			 M762.43,266.754c2.805-1.814,4.811-7.669,4.03-11.759c-0.897-4.693-5.83-8.425-11.137-8.425c-5.948,0-9.377,2.303-11.071,7.432
			C740.674,264.844,752.527,273.159,762.43,266.754L762.43,266.754z M713.689,244c4.3-4.369,4.154-11.911-0.318-16.382
			c-4.286-4.286-11.613-4.286-15.899,0c-5.803,5.802-4.049,15.883,3.317,19.069C704.398,248.249,710.825,246.91,713.689,244
			L713.689,244z M746.9,231.033c5.17-4.792,5.519-12.169,0.795-16.892c-7.225-7.225-19.689-2.07-19.689,8.144
			C728.006,232.272,739.714,237.694,746.9,231.033L746.9,231.033z"/>
		
			<path id="path4035" inkscape:export-ydpi="94.847168" inkscape:export-xdpi="94.847168" inkscape:export-filename="/Users/matthieu/dev/retrobox.fr/logos/logo-noname-grey.png" inkscape:connector-curvature="0" fill="#494949" d="
			M540.959,373.59c-9.517-3.731-15.845-9.37-20.079-17.893c-4.598-9.258-5.215-14.65-5.31-46.465
			c-0.083-28.251,0.133-31.815,2.61-42.879c8.635-38.575,29.742-71.076,53.813-82.862c17.828-8.73,37.916-7.487,60.462,3.739
			c4.458,2.22,9.49,5.014,11.182,6.208c2.622,1.852,5.273,2.171,18.044,2.171h14.969l9.173-5.233
			c33.133-18.899,60.827-16.827,84.008,6.286c17.386,17.336,28.992,39.356,35.846,68.014c1.998,8.352,2.568,15.266,3.061,37.057
			c0.72,31.924-0.42,42.998-5.494,53.354c-5.806,11.852-17.499,20.041-28.614,20.041c-13.411,0-36.937-18.069-53.625-41.187
			l-7.056-9.774h-51.96h-51.96l-7.056,9.774C581.862,363.187,556.227,379.576,540.959,373.59L540.959,373.59z M728.107,280.989
			c2.764-2.122,4.533-6.047,4.533-10.062c0-10.754-13.3-15.055-20.413-6.602c-3.882,4.613-3.3,11.588,1.296,15.541
			C716.921,282.791,724.954,283.409,728.107,280.989z M608.714,269.734v-10.423h10.423h10.423v-8.687v-8.686h-10.423h-10.423
			v-10.424V221.09h-8.687h-8.687v10.424v10.424h-9.844h-9.845v8.686v8.687h9.845h9.844v10.423v10.424h8.687h8.687V269.734z
			 M762.43,266.754c2.805-1.814,4.811-7.669,4.03-11.759c-0.897-4.693-5.83-8.425-11.137-8.425c-5.948,0-9.377,2.303-11.071,7.432
			C740.674,264.844,752.527,273.159,762.43,266.754L762.43,266.754z M713.689,244c4.3-4.369,4.154-11.911-0.318-16.382
			c-4.286-4.286-11.613-4.286-15.899,0c-5.803,5.802-4.049,15.883,3.317,19.069C704.398,248.249,710.825,246.91,713.689,244
			L713.689,244z M746.9,231.033c5.17-4.792,5.519-12.169,0.795-16.892c-7.225-7.225-19.689-2.07-19.689,8.144
			C728.006,232.272,739.714,237.694,746.9,231.033L746.9,231.033z"/>
		
			<path id="path4045" inkscape:export-ydpi="94.847168" inkscape:export-xdpi="94.847168" inkscape:export-filename="/Users/matthieu/dev/retrobox.fr/logos/logo-noname-grey.png" inkscape:connector-curvature="0" fill="#494949" d="
			M408.215,471.537l0.035-73.834l49.068-66.38c26.987-36.508,49.441-66.737,49.898-67.174c0.457-0.438,0.453,1.495-0.01,4.294
			c-0.462,2.799-1.46,11.143-2.216,18.541c-1.331,13.023-1.537,13.692-6.452,20.97c-5.286,7.826-36.666,50.087-56.016,75.44
			c-6.148,8.056-11.179,15.039-11.179,15.52c0,0.48,22.091,0.497,49.092,0.036l49.092-0.836l24.163,33.065l24.163,33.066
			l85.443,0.026l85.443,0.027l11.845-16.054c6.514-8.829,17.317-23.702,24.005-33.051l12.161-16.999l49.512,0.748
			c27.232,0.411,49.513,0.412,49.513,0.001s-9.04-12.584-20.089-27.053c-37.184-48.694-54.403-73.224-53.341-75.991
			c0.317-0.827-0.245-8.169-1.25-16.317c-1.004-8.147-1.681-14.957-1.504-15.132s22.602,29.854,49.834,66.733l49.513,67.051v73.568
			v73.569H663.559H408.18L408.215,471.537L408.215,471.537z M714.545,511.327c3.102-4.737,3.358-10.268,0.743-16.177l-2.376-5.372
			h-46.757h-46.758l-1.951,4.093c-2.508,5.26-2.493,12.585,0.035,16.866l1.987,3.364h46.63h46.63L714.545,511.327L714.545,511.327z"
			/>
		
			<rect id="rect4221" x="626.062" y="34.257" inkscape:export-ydpi="94.847168" inkscape:export-xdpi="94.847168" inkscape:export-filename="/Users/matthieu/dev/retrobox.fr/logos/logo-noname-grey.png" transform="matrix(-0.9684 -0.2493 0.2493 -0.9684 1225.202 278.2232)" fill="#0249E1" width="8.315" height="54.534">
		</rect>
		
			<rect id="rect4245" x="626.048" y="34.225" inkscape:export-ydpi="94.847168" inkscape:export-xdpi="94.847168" inkscape:export-filename="/Users/matthieu/dev/retrobox.fr/logos/logo-noname-grey.png" transform="matrix(0.2493 -0.9684 0.9684 0.2493 413.5414 656.4681)" fill="#0249E1" width="8.315" height="54.534">
		</rect>
		
			<path id="path3144" inkscape:export-ydpi="94.847168" inkscape:export-xdpi="94.847168" inkscape:export-filename="/Users/matthieu/dev/retrobox.fr/logos/logo-noname-grey.png" sodipodi:type="arc" sodipodi:cx="588.66638" sodipodi:cy="131.87292" sodipodi:rx="32.628784" sodipodi:ry="32.628784" fill="none" stroke="#D40000" stroke-width="5.6424" d="
			M651.981,138.649c0.002,14.482-11.738,26.225-26.22,26.226c-14.482,0.002-26.224-11.737-26.225-26.22c0-0.002,0-0.004,0-0.007
			c-0.002-14.482,11.737-26.224,26.219-26.226s26.224,11.737,26.226,26.22C651.981,138.645,651.981,138.647,651.981,138.649z"/>
		
			<rect id="rect3920" x="681.878" y="119.473" inkscape:export-ydpi="94.847168" inkscape:export-xdpi="94.847168" inkscape:export-filename="/Users/matthieu/dev/retrobox.fr/logos/logo-noname-grey.png" transform="matrix(-0.9913 -0.1318 0.1318 -0.9913 1386.853 378.9139)" fill="none" stroke="#FF5599" stroke-width="4.2944" width="48.176" height="48.176">
		</rect>
		
			<path id="path3924" inkscape:export-ydpi="94.847168" inkscape:export-xdpi="94.847168" inkscape:export-filename="/Users/matthieu/dev/retrobox.fr/logos/logo-noname-grey.png" inkscape:transform-center-y="-3.2642587" inkscape:transform-center-x="-6.2111499" inkscape:randomized="0" inkscape:rounded="0" inkscape:flatsided="true" sodipodi:arg2="3.3202508" sodipodi:arg1="2.2730533" sodipodi:r2="18.368534" sodipodi:r1="36.737068" sodipodi:sides="3" sodipodi:type="star" sodipodi:cx="640.17133" sodipodi:cy="18.346331" fill="none" stroke="#8AEE49" stroke-width="5" stroke-linecap="square" d="
			M680.539,93.65l10.255-56.789l44.053,37.276L680.539,93.65z"/>
		<g enable-background="new    ">
			<path fill="#494949" d="M459.801,630.177h-20.133v-33.555h53.689v6.712h-33.555V630.177z"/>
			<path fill="#494949" d="M520.201,623.466h33.555v6.711h-53.689v-33.555h53.689v20.134h-33.555V623.466z M520.201,610.044h13.422
				v-6.711h-13.422V610.044z"/>
			<path fill="#494949" d="M580.6,623.466h33.555v6.711h-53.688v-33.555h53.688v6.712H580.6V623.466z"/>
			<path fill="#494949" d="M620.866,596.622h53.688v33.555h-53.688v-20.133h33.555v-6.711h-33.555V596.622z M640.999,623.466h13.422
				v-6.711h-13.422V623.466z"/>
			<path fill="#494949" d="M681.264,569.778h20.134v60.399h-20.134V569.778z"/>
			<path fill="#494949" d="M708.108,569.778h20.133v26.844h33.555v33.555h-53.688V569.778z M728.241,623.466h13.423v-20.133h-13.423
				V623.466z"/>
			<path fill="#494949" d="M768.508,596.622h53.689v33.555h-53.689V596.622z M788.641,623.466h13.421v-20.133h-13.421V623.466z"/>
			<path fill="#494949" d="M835.618,616.756h6.711v-6.712h-6.711v-6.711h-6.711v-6.712h20.133v6.712h13.422v-6.712h20.133v6.712
				h-6.712v6.711h-6.71v6.712h6.71v6.711h6.712v6.711h-20.133v-6.711H849.04v6.711h-20.133v-6.711h6.711V616.756z"/>
		</g>
	</g>
</g>
</svg>
