<?xml version="1.0" encoding="UTF-8" standalone="no"?>
<!-- Generator: Adobe Illustrator 16.0.3, SVG Export Plug-In . SVG Version: 6.00 Build 0)  -->

<svg
   xmlns:dc="http://purl.org/dc/elements/1.1/"
   xmlns:cc="http://creativecommons.org/ns#"
   xmlns:rdf="http://www.w3.org/1999/02/22-rdf-syntax-ns#"
   xmlns:svg="http://www.w3.org/2000/svg"
   xmlns="http://www.w3.org/2000/svg"
   xmlns:sodipodi="http://sodipodi.sourceforge.net/DTD/sodipodi-0.dtd"
   xmlns:inkscape="http://www.inkscape.org/namespaces/inkscape"
   version="1.1"
   id="Ebene_1"
   x="0px"
   y="0px"
   width="21.775px"
   height="20.762px"
   viewBox="0 0 21.775 20.762"
   enable-background="new 0 0 21.775 20.762"
   xml:space="preserve"
   inkscape:version="0.91 r13725"
   sodipodi:docname="star_unfilled.svg"><metadata
     id="metadata3455"><rdf:RDF><cc:Work
         rdf:about=""><dc:format>image/svg+xml</dc:format><dc:type
           rdf:resource="http://purl.org/dc/dcmitype/StillImage" /></cc:Work></rdf:RDF></metadata><defs
     id="defs3453" /><sodipodi:namedview
     pagecolor="#ffffff"
     bordercolor="#666666"
     borderopacity="1"
     objecttolerance="10"
     gridtolerance="10"
     guidetolerance="10"
     inkscape:pageopacity="0"
     inkscape:pageshadow="2"
     inkscape:window-width="640"
     inkscape:window-height="480"
     id="namedview3451"
     showgrid="false"
     inkscape:zoom="11.366921"
     inkscape:cx="10.8875"
     inkscape:cy="10.381"
     inkscape:window-x="69"
     inkscape:window-y="0"
     inkscape:window-maximized="0"
     inkscape:current-layer="Ebene_1" /><path
     d="m 10.959998,2.48 c 0.026,0.018 0.083,0.07 0.143,0.193 l 1.859,3.766 c 0.333,0.676 1.18,1.291 1.924,1.398 l 4.155,0.603 c 0.15,0.022 0.218,0.066 0.227,0.066 0.001,0 0.001,0 0.001,0 0,0.019 -0.025,0.096 -0.14,0.207 l -3.009,2.931 c -0.539,0.526 -0.862,1.521 -0.735,2.263 l 0.711,4.14 c 0.027,0.156 0.003,0.234 -0.011,0.239 -0.025,0 -0.098,-0.008 -0.221,-0.071 l -3.714,-1.955 c -0.324,-0.171 -0.747,-0.264 -1.19,-0.264 -0.443,0 -0.867,0.094 -1.1899998,0.264 l -3.716,1.954 c -0.123,0.063 -0.196,0.071 -0.224,0.082 -0.01,-0.016 -0.034,-0.094 -0.008,-0.25 l 0.71,-4.14 c 0.128,-0.743 -0.195,-1.737 -0.735,-2.263 l -3.006,-2.931 c -0.114,-0.11 -0.141,-0.187 -0.146,-0.187 l 0,0 c 0.01,-0.015 0.077,-0.061 0.235,-0.084 l 4.153,-0.603 c 0.747,-0.108 1.592,-0.723 1.926,-1.399 L 10.817998,2.673 c 0.06,-0.123 0.117,-0.177 0.142,-0.193 m 0,-0.404 c -0.182,0 -0.364,0.14 -0.501,0.419 L 8.5999982,6.262 c -0.276,0.56 -1.007,1.091 -1.624,1.18 l -4.154,0.603 c -0.618,0.09 -0.757,0.52 -0.31,0.955 l 3.007,2.931 c 0.447,0.436 0.726,1.295 0.62,1.909 l -0.71,4.139 c -0.077,0.446 0.094,0.708 0.405,0.708 0.118,0 0.255,-0.038 0.407,-0.117 l 3.717,-1.955 c 0.2759998,-0.145 0.6399998,-0.216 1.0029998,-0.216 0.364,0 0.729,0.072 1.004,0.216 l 3.717,1.955 c 0.15,0.079 0.289,0.117 0.407,0.117 0.311,0 0.481,-0.262 0.405,-0.708 l -0.711,-4.139 c -0.105,-0.614 0.174,-1.474 0.619,-1.909 L 19.410998,9 c 0.446,-0.435 0.307,-0.865 -0.311,-0.955 l -4.154,-0.603 c -0.617,-0.089 -1.349,-0.62 -1.624,-1.18 l -1.859,-3.767 c -0.139,-0.279 -0.32,-0.419 -0.503,-0.419 l 0,0 z"
     id="path3449"
     inkscape:connector-curvature="0"
     style="fill:#777777" /></svg>