<?xml version="1.0" encoding="utf-8"?>
<!-- Generator: Adobe Illustrator 16.0.3, SVG Export Plug-In . SVG Version: 6.00 Build 0)  -->
<!DOCTYPE svg PUBLIC "-//W3C//DTD SVG 1.1//EN" "http://www.w3.org/Graphics/SVG/1.1/DTD/svg11.dtd">
<svg version="1.1" id="Ebene_1" xmlns="http://www.w3.org/2000/svg" xmlns:xlink="http://www.w3.org/1999/xlink" x="0px" y="0px"
	 width="21.776px" height="20.761px" viewBox="0 0 21.776 20.761" enable-background="new 0 0 21.776 20.761" xml:space="preserve">
<path fill="#777777" d="M10.888,0.505c0.032,0.021,0.103,0.087,0.179,0.241l2.324,4.708c0.416,0.845,1.474,1.613,2.405,1.748
	l5.194,0.754c0.188,0.027,0.272,0.083,0.284,0.083c0.001,0,0.001,0,0.001,0c0,0.023-0.033,0.119-0.175,0.258l-3.761,3.663
	c-0.674,0.658-1.078,1.901-0.919,2.829l0.889,5.174c0.034,0.195,0.004,0.293-0.014,0.299c-0.031,0-0.122-0.009-0.276-0.089
	l-4.645-2.443c-0.404-0.213-0.933-0.329-1.487-0.329s-1.083,0.116-1.487,0.329l-4.645,2.443c-0.154,0.08-0.245,0.089-0.28,0.102
	c-0.013-0.019-0.043-0.116-0.01-0.312l0.888-5.174c0.16-0.929-0.244-2.172-0.919-2.829L0.676,8.295
	C0.534,8.157,0.5,8.061,0.493,8.061c0,0,0,0,0,0C0.506,8.043,0.59,7.984,0.787,7.956l5.192-0.754
	c0.933-0.135,1.99-0.903,2.407-1.748l2.323-4.708C10.785,0.592,10.856,0.525,10.888,0.505 M10.888,0
	c-0.228,0-0.455,0.175-0.627,0.524L7.938,5.232c-0.345,0.699-1.259,1.363-2.03,1.475L0.715,7.461
	C-0.057,7.573-0.231,8.11,0.327,8.654l3.759,3.664c0.559,0.544,0.907,1.618,0.775,2.386l-0.888,5.174
	c-0.096,0.557,0.118,0.884,0.506,0.884c0.147,0,0.319-0.047,0.509-0.146l4.646-2.443c0.345-0.181,0.8-0.271,1.254-0.271
	c0.455,0,0.91,0.091,1.255,0.271l4.645,2.443c0.189,0.1,0.362,0.146,0.509,0.146c0.389,0,0.603-0.327,0.507-0.884l-0.889-5.174
	c-0.132-0.768,0.218-1.842,0.775-2.386l3.76-3.664c0.558-0.544,0.384-1.081-0.388-1.193l-5.193-0.754
	c-0.771-0.112-1.685-0.775-2.029-1.475l-2.324-4.708C11.343,0.175,11.116,0,10.888,0L10.888,0z"/>
</svg>
