<?xml version="1.0" encoding="UTF-8" standalone="no"?>
<!-- Generator: Adobe Illustrator 16.0.3, SVG Export Plug-In . SVG Version: 6.00 Build 0)  -->

<svg
   xmlns:dc="http://purl.org/dc/elements/1.1/"
   xmlns:cc="http://creativecommons.org/ns#"
   xmlns:rdf="http://www.w3.org/1999/02/22-rdf-syntax-ns#"
   xmlns:svg="http://www.w3.org/2000/svg"
   xmlns="http://www.w3.org/2000/svg"
   xmlns:sodipodi="http://sodipodi.sourceforge.net/DTD/sodipodi-0.dtd"
   xmlns:inkscape="http://www.inkscape.org/namespaces/inkscape"
   version="1.1"
   id="Ebene_1"
   x="0px"
   y="0px"
   width="21.775px"
   height="20.762px"
   viewBox="0 0 21.775 20.762"
   enable-background="new 0 0 21.775 20.762"
   xml:space="preserve"
   inkscape:version="0.91 r13725"
   sodipodi:docname="star_filled.svg"><metadata
     id="metadata3399"><rdf:RDF><cc:Work
         rdf:about=""><dc:format>image/svg+xml</dc:format><dc:type
           rdf:resource="http://purl.org/dc/dcmitype/StillImage" /><dc:title></dc:title></cc:Work></rdf:RDF></metadata><defs
     id="defs3397" /><sodipodi:namedview
     pagecolor="#ffffff"
     bordercolor="#666666"
     borderopacity="1"
     objecttolerance="10"
     gridtolerance="10"
     guidetolerance="10"
     inkscape:pageopacity="0"
     inkscape:pageshadow="2"
     inkscape:window-width="1531"
     inkscape:window-height="871"
     id="namedview3395"
     showgrid="false"
     inkscape:zoom="33.041134"
     inkscape:cx="7.0589387"
     inkscape:cy="10.381"
     inkscape:window-x="69"
     inkscape:window-y="0"
     inkscape:window-maximized="1"
     inkscape:current-layer="Ebene_1" /><path
     d="m 10.959999,2.076 c -0.182,0 -0.364,0.14 -0.501,0.419 L 8.5999982,6.261 c -0.276,0.56 -1.007,1.091 -1.624,1.18 l -4.154,0.604 c -0.618,0.09 -0.757,0.519 -0.31,0.955 l 3.007,2.931 c 0.447,0.436 0.726,1.295 0.62,1.909 l -0.71,4.14 c -0.077,0.446 0.094,0.708 0.405,0.708 0.118,0 0.255,-0.038 0.407,-0.117 l 3.717,-1.956 c 0.2760008,-0.145 0.6400008,-0.216 1.0030008,-0.216 0.364,0 0.729,0.072 1.004,0.216 l 3.717,1.956 c 0.15,0.079 0.289,0.117 0.407,0.117 0.311,0 0.481,-0.262 0.405,-0.708 l -0.711,-4.14 c -0.105,-0.614 0.174,-1.474 0.619,-1.909 L 19.409999,9 c 0.446,-0.436 0.307,-0.865 -0.311,-0.955 l -4.154,-0.603 c -0.617,-0.089 -1.349,-0.62 -1.624,-1.18 l -1.858,-3.767 c -0.139,-0.279 -0.32,-0.419 -0.503,-0.419 l 0,0 z"
     id="path3393"
     inkscape:connector-curvature="0"
     style="fill:#777777" /></svg>