<?xml version="1.0" encoding="utf-8"?>
<!-- Generator: Adobe Illustrator 16.0.3, SVG Export Plug-In . SVG Version: 6.00 Build 0)  -->
<!DOCTYPE svg PUBLIC "-//W3C//DTD SVG 1.1//EN" "http://www.w3.org/Graphics/SVG/1.1/DTD/svg11.dtd">
<svg version="1.1" id="Ebene_1" xmlns="http://www.w3.org/2000/svg" xmlns:xlink="http://www.w3.org/1999/xlink" x="0px" y="0px"
	 width="21.776px" height="20.761px" viewBox="0 0 21.776 20.761" enable-background="new 0 0 21.776 20.761" xml:space="preserve">
<path fill="#777777" d="M10.888,0c-0.228,0-0.455,0.175-0.627,0.524L7.938,5.232c-0.345,0.699-1.259,1.363-2.03,1.475L0.715,7.461
	C-0.057,7.573-0.231,8.11,0.327,8.654l3.759,3.664c0.559,0.544,0.907,1.618,0.775,2.386l-0.888,5.174
	c-0.096,0.557,0.118,0.884,0.506,0.884c0.147,0,0.319-0.047,0.509-0.146l4.646-2.443c0.345-0.181,0.8-0.271,1.254-0.271
	c0.455,0,0.91,0.091,1.255,0.271l4.645,2.443c0.189,0.1,0.362,0.146,0.509,0.146c0.389,0,0.603-0.327,0.507-0.884l-0.889-5.174
	c-0.132-0.768,0.218-1.842,0.775-2.386l3.76-3.664c0.558-0.544,0.384-1.081-0.388-1.193l-5.193-0.754
	c-0.771-0.112-1.685-0.775-2.029-1.475l-2.324-4.708C11.343,0.175,11.116,0,10.888,0L10.888,0z"/>
</svg>
