<?xml version="1.0" encoding="UTF-8"?>
<!DOCTYPE svg PUBLIC "-//W3C//DTD SVG 1.1//EN" "http://www.w3.org/Graphics/SVG/1.1/DTD/svg11.dtd">
<svg version="1.1" xmlns="http://www.w3.org/2000/svg" xmlns:xlink="http://www.w3.org/1999/xlink" x="0" y="0" width="37.061" height="37.061" viewBox="0, 0, 37.061, 37.061">
  <g id="Ebene_1">
    <path d="M18.531,22.181 C16.518,22.181 14.882,20.542 14.882,18.53 C14.882,16.518 16.52,14.88 18.531,14.88 C20.544,14.88 22.181,16.519 22.181,18.53 C22.182,20.543 20.544,22.181 18.531,22.181 z M18.531,16.379 C17.345,16.379 16.382,17.344 16.382,18.529 C16.382,19.714 17.347,20.68 18.531,20.68 C19.717,20.68 20.681,19.714 20.681,18.529 C20.682,17.344 19.717,16.379 18.531,16.379 z" fill="#FFFFFF"/>
    <path d="M21.536,8.616 L15.524,8.616 C15.251,8.616 14.999,8.466 14.867,8.226 C14.735,7.985 14.746,7.692 14.893,7.46 L17.898,2.776 C18.174,2.345 18.884,2.346 19.162,2.776 L22.167,7.46 C22.314,7.691 22.326,7.984 22.193,8.226 C22.063,8.466 21.811,8.616 21.536,8.616 z M16.897,7.116 L20.165,7.116 L18.53,4.571 L16.897,7.116 z" fill="#FFFFFF"/>
    <path d="M7.782,14.776 L8.17,14.867 C8.41,14.998 8.56,15.251 8.56,15.525 L8.56,21.535 C8.56,21.809 8.412,22.061 8.17,22.193 C8.056,22.254 7.932,22.284 7.809,22.284 C7.668,22.284 7.527,22.244 7.404,22.165 L2.72,19.162 C2.505,19.024 2.375,18.786 2.375,18.531 C2.375,18.276 2.505,18.038 2.72,17.9 L7.404,14.894 L7.782,14.776 z M7.059,16.897 L4.514,18.53 L7.059,20.162 L7.059,16.897 z" fill="#FFFFFF"/>
    <path d="M29.195,22.284 C29.071,22.284 28.949,22.254 28.837,22.192 C28.596,22.06 28.445,21.808 28.445,21.534 L28.445,15.524 C28.445,15.25 28.594,14.998 28.837,14.866 C29.076,14.735 29.37,14.743 29.602,14.893 L34.287,17.898 C34.502,18.036 34.632,18.274 34.632,18.529 C34.632,18.784 34.502,19.022 34.287,19.16 L29.602,22.164 C29.478,22.244 29.336,22.284 29.195,22.284 z M29.945,16.896 L29.945,20.162 L32.491,18.529 L29.945,16.896 z" fill="#FFFFFF"/>
    <path d="M18.53,34.626 L18.53,34.626 C18.275,34.626 18.038,34.496 17.899,34.281 L14.894,29.597 C14.747,29.366 14.736,29.073 14.868,28.831 C15,28.589 15.252,28.44 15.525,28.44 L21.537,28.44 C21.81,28.44 22.062,28.588 22.194,28.831 C22.327,29.071 22.315,29.364 22.168,29.597 L19.163,34.281 C19.023,34.496 18.786,34.626 18.53,34.626 z M16.897,29.942 L18.53,32.487 L20.165,29.942 L16.897,29.942 z" fill="#FFFFFF"/>
    <path d="M18.53,0 C28.765,0 37.061,8.296 37.061,18.531 C37.061,28.765 28.765,37.061 18.53,37.061 C8.296,37.061 0,28.765 0,18.531 C0,8.296 8.296,0 18.53,0 z M18.53,1 C8.849,1 1,8.849 1,18.531 C1,28.212 8.849,36.061 18.53,36.061 C28.212,36.061 36.061,28.212 36.061,18.531 C36.061,8.849 28.212,1 18.53,1 z" fill="#FFFFFF"/>
    <path d="M18.529,22.181 C16.513,22.181 14.879,20.547 14.879,18.53 C14.879,16.514 16.513,14.88 18.529,14.88 C20.546,14.88 22.18,16.514 22.18,18.53 C22.18,20.547 20.546,22.181 18.529,22.181 z" fill="#FFFFFF"/>
  </g>
</svg>
