<?xml version="1.0" encoding="UTF-8"?>
<!DOCTYPE svg PUBLIC "-//W3C//DTD SVG 1.1//EN" "http://www.w3.org/Graphics/SVG/1.1/DTD/svg11.dtd">
<svg version="1.1" xmlns="http://www.w3.org/2000/svg" xmlns:xlink="http://www.w3.org/1999/xlink" x="0" y="0" width="37.061" height="37.061" viewBox="0, 0, 37.061, 37.061">
  <g id="Ebene_1">
    <path d="M18.476,14.898 C20.489,14.898 22.125,16.537 22.125,18.549 C22.125,20.561 20.487,22.199 18.476,22.199 C16.463,22.199 14.826,20.56 14.826,18.549 C14.825,16.536 16.463,14.898 18.476,14.898 z M18.476,20.7 C19.662,20.7 20.625,19.735 20.625,18.55 C20.625,17.365 19.66,16.399 18.476,16.399 C17.29,16.399 16.326,17.365 16.326,18.55 C16.325,19.735 17.29,20.7 18.476,20.7 z" fill="#FFFFFF"/>
    <path d="M15.471,28.463 L21.483,28.463 C21.756,28.463 22.008,28.613 22.14,28.853 C22.272,29.094 22.261,29.387 22.114,29.619 L19.109,34.303 C18.833,34.734 18.123,34.733 17.845,34.303 L14.84,29.619 C14.693,29.388 14.681,29.095 14.814,28.853 C14.944,28.613 15.196,28.463 15.471,28.463 z M20.11,29.963 L16.842,29.963 L18.477,32.508 L20.11,29.963 z" fill="#FFFFFF"/>
    <g>
      <path d="M33.882,18.549 L29.198,15.545 L29.198,21.555 L33.882,18.549 z" fill="#FFFFFF"/>
      <path d="M29.198,14.795 C29.339,14.795 29.48,14.835 29.603,14.914 L34.287,17.917 C34.502,18.055 34.632,18.293 34.632,18.548 C34.632,18.803 34.502,19.041 34.287,19.179 L29.603,22.185 C29.373,22.333 29.079,22.343 28.837,22.212 C28.597,22.081 28.447,21.828 28.447,21.554 L28.447,15.544 C28.447,15.27 28.595,15.018 28.837,14.886 C28.951,14.825 29.075,14.795 29.198,14.795 z M32.493,18.549 L29.948,16.917 L29.948,20.182 L32.493,18.549 z" fill="#FFFFFF"/>
    </g>
    <path d="M7.812,14.795 C7.936,14.795 8.058,14.825 8.17,14.887 C8.411,15.019 8.562,15.271 8.562,15.545 L8.562,21.555 C8.562,21.829 8.413,22.081 8.17,22.213 C7.931,22.344 7.637,22.336 7.405,22.186 L2.72,19.181 C2.505,19.043 2.375,18.805 2.375,18.55 C2.375,18.295 2.505,18.057 2.72,17.919 L7.405,14.915 C7.529,14.835 7.671,14.795 7.812,14.795 z M7.062,20.183 L7.062,16.917 L4.516,18.55 L7.062,20.183 z" fill="#FFFFFF"/>
    <path d="M18.477,2.453 L18.477,2.453 C18.732,2.453 18.969,2.583 19.108,2.798 L22.113,7.482 C22.26,7.713 22.271,8.006 22.139,8.248 C22.007,8.49 21.755,8.639 21.482,8.639 L15.47,8.639 C15.197,8.639 14.945,8.491 14.813,8.248 C14.68,8.008 14.692,7.715 14.839,7.482 L17.844,2.798 C17.984,2.583 18.221,2.453 18.477,2.453 z M20.11,7.137 L18.477,4.592 L16.842,7.137 L20.11,7.137 z" fill="#FFFFFF"/>
    <path d="M18.53,0 C28.765,0 37.061,8.296 37.061,18.531 C37.061,28.765 28.765,37.061 18.53,37.061 C8.296,37.061 0,28.765 0,18.531 C0,8.296 8.296,0 18.53,0 z M18.53,1 C8.849,1 1,8.849 1,18.531 C1,28.212 8.849,36.061 18.53,36.061 C28.212,36.061 36.061,28.212 36.061,18.531 C36.061,8.849 28.212,1 18.53,1 z" fill="#FFFFFF"/>
  </g>
</svg>
