<?xml version="1.0" encoding="UTF-8" standalone="no"?>
<!-- Created with Inkscape (http://www.inkscape.org/) -->

<svg
   xmlns:dc="http://purl.org/dc/elements/1.1/"
   xmlns:cc="http://creativecommons.org/ns#"
   xmlns:rdf="http://www.w3.org/1999/02/22-rdf-syntax-ns#"
   xmlns:svg="http://www.w3.org/2000/svg"
   xmlns="http://www.w3.org/2000/svg"
   xmlns:sodipodi="http://sodipodi.sourceforge.net/DTD/sodipodi-0.dtd"
   xmlns:inkscape="http://www.inkscape.org/namespaces/inkscape"
   width="210mm"
   height="297mm"
   id="svg6610"
   version="1.1"
   inkscape:version="0.48.4 r9939"
   sodipodi:docname="ES_logo.svg">
  <defs
     id="defs6612" />
  <sodipodi:namedview
     id="base"
     pagecolor="#ffffff"
     bordercolor="#666666"
     borderopacity="1.0"
     inkscape:pageopacity="0.0"
     inkscape:pageshadow="2"
     inkscape:zoom="0.35"
     inkscape:cx="350"
     inkscape:cy="520"
     inkscape:document-units="px"
     inkscape:current-layer="layer1"
     showgrid="false"
     inkscape:window-width="1280"
     inkscape:window-height="972"
     inkscape:window-x="-8"
     inkscape:window-y="-8"
     inkscape:window-maximized="1" />
  <metadata
     id="metadata6615">
    <rdf:RDF>
      <cc:Work
         rdf:about="">
        <dc:format>image/svg+xml</dc:format>
        <dc:type
           rdf:resource="http://purl.org/dc/dcmitype/StillImage" />
        <dc:title></dc:title>
      </cc:Work>
    </rdf:RDF>
  </metadata>
  <g
     inkscape:label="Ebene 1"
     inkscape:groupmode="layer"
     id="layer1">
    <g
       transform="translate(-370,-484.28571)"
       id="g6569"
       inkscape:export-filename="C:\Users\kr.ERPA\Desktop\Privat\ES_logo_16.png"
       inkscape:export-xdpi="4.8792887"
       inkscape:export-ydpi="4.8792887">
      <g
         id="g6559">
        <path
           inkscape:connector-curvature="0"
           style="fill:#807b83;fill-opacity:1;stroke:none"
           d="m 660.03125,618.3125 -28.4375,11.8125 c 4.4933,10.80365 6.96875,22.66327 6.96875,35.09375 0,12.43048 -2.47545,24.2901 -6.96875,35.09375 l 28.4375,11.8125 c 0,0 4.36531,-11.8715 5.875,-18.125 l 22.28125,0 c 1.89071,-9.30365 2.9375,-18.92217 2.9375,-28.78125 0,-9.85908 -1.04679,-19.4776 -2.9375,-28.78125 l -22.28125,0 c -1.50969,-6.2535 -5.875,-18.125 -5.875,-18.125 z"
           id="path58241-8" />
        <path
           inkscape:connector-curvature="0"
           style="fill:#fe0000;fill-opacity:1;stroke:none"
           d="m 626.53125,545.125 -15.75,15.75 c -5.48941,-3.35438 -16.96875,-8.65625 -16.96875,-8.65625 l -11.75,28.46875 c 22.41211,9.27267 40.32796,27.20932 49.59375,49.625 l 28.5,-11.75 c 0,0 -5.30187,-11.47934 -8.65625,-16.96875 l 15.75,-15.75 c -5.24174,-7.91561 -11.34108,-15.46608 -18.3125,-22.4375 -6.97142,-6.97142 -14.49064,-13.03951 -22.40625,-18.28125 z"
           id="path58241-0-20" />
        <path
           inkscape:connector-curvature="0"
           style="fill:#dc00fe;fill-opacity:1;stroke:none"
           d="m 547.15625,521.25 c -9.85908,0 -19.50885,1.04679 -28.8125,2.9375 l 0,22.25 c -6.2535,1.50969 -18.125,5.875 -18.125,5.875 l 11.8125,28.46875 c 10.81375,-4.50319 22.64884,-7 35.09375,-7 12.43467,0 24.28717,2.50383 35.09375,7 L 594.0625,552.3125 c 0,0 -11.8715,-4.36531 -18.125,-5.875 l 0,-22.25 c -9.30365,-1.89071 -18.92217,-2.9375 -28.78125,-2.9375 z"
           id="path58241-0-6-5" />
        <path
           inkscape:connector-curvature="0"
           style="fill:#0000fe;fill-opacity:1;stroke:none"
           d="m 467.78125,545.125 c -7.91561,5.24174 -15.46608,11.30983 -22.4375,18.28125 -6.97142,6.97142 -13.03951,14.52189 -18.28125,22.4375 l 15.71875,15.75 c -3.35438,5.48941 -8.625,16.96875 -8.625,16.96875 l 28.46875,11.75 c 9.26948,-22.42459 27.20041,-40.35552 49.625,-49.625 L 500.5,552.21875 c 0,0 -11.47934,5.30187 -16.96875,8.65625 l -15.75,-15.75 z"
           id="path58241-0-2-52" />
        <path
           inkscape:connector-curvature="0"
           style="fill:#00fefe;fill-opacity:1;stroke:none"
           d="m 434.25,618.3125 c 0,0 -4.36531,11.8715 -5.875,18.125 l -22.28125,0 c -1.89071,9.30365 -2.90625,18.92217 -2.90625,28.78125 0,9.85908 1.01554,19.4776 2.90625,28.78125 l 22.28125,0 c 1.50969,6.2535 5.875,18.125 5.875,18.125 l 28.4375,-11.8125 c -4.4933,-10.80365 -6.96875,-22.66327 -6.96875,-35.09375 0,-12.43048 2.47545,-24.2901 6.96875,-35.09375 L 434.25,618.3125 z"
           id="path58241-0-6-4-7" />
        <path
           inkscape:connector-curvature="0"
           style="fill:#00fe38;fill-opacity:1;stroke:none"
           d="m 462.625,700.125 -28.46875,11.75 c 0,0 5.27062,11.47934 8.625,16.96875 l -15.71875,15.75 c 5.24174,7.91561 11.30983,15.46608 18.28125,22.4375 6.97142,6.97142 14.52189,13.03951 22.4375,18.28125 l 15.75,-15.75 c 5.48941,3.35438 16.96875,8.65625 16.96875,8.65625 L 512.25,749.75 c -22.42459,-9.26948 -40.35552,-27.20041 -49.625,-49.625 z"
           id="path58241-0-2-5-6" />
        <path
           inkscape:connector-curvature="0"
           style="fill:#fefd00;fill-opacity:1;stroke:none"
           d="M 512.0625,749.65625 500.21875,778.125 c 0,0 11.8715,4.36531 18.125,5.875 l 0,22.25 c 9.30365,1.89071 18.95342,2.9375 28.8125,2.9375 9.85908,0 19.4776,-1.04679 28.78125,-2.9375 l 0,-22.25 c 6.2535,-1.50969 18.125,-5.875 18.125,-5.875 L 582.25,749.65625 c -10.81375,4.50319 -22.68009,7 -35.125,7 -12.43467,0 -24.25592,-2.50383 -35.0625,-7 z"
           id="path58241-0-6-4-8-7" />
        <path
           inkscape:connector-curvature="0"
           style="fill:#fe8700;fill-opacity:1;stroke:none"
           d="m 631.65625,700.125 c -9.26579,22.41568 -27.18164,40.35233 -49.59375,49.625 l 11.75,28.46875 c 0,0 11.47934,-5.30187 16.96875,-8.65625 l 15.75,15.75 c 7.91561,-5.24174 15.43483,-11.30983 22.40625,-18.28125 6.97142,-6.97142 13.07076,-14.52189 18.3125,-22.4375 l -15.75,-15.75 c 3.35438,-5.48941 8.65625,-16.96875 8.65625,-16.96875 l -28.5,-11.75 z"
           id="path58241-0-2-5-8-8" />
      </g>
      <path
         sodipodi:nodetypes="cccscccccscccccscccccscccccscccccscccccscccccsccc"
         inkscape:connector-curvature="0"
         d="m 660.143,618.56413 c 0,0 -5.29922,-11.48057 -8.6536,-16.96998 l 15.74772,-15.74772 c -5.24174,-7.91561 -11.32138,-15.45715 -18.2928,-22.42857 -6.97142,-6.97142 -14.51296,-13.05106 -22.42857,-18.2928 l -15.74772,15.74772 c -5.48941,-3.35438 -16.8411,-8.60021 -16.8411,-8.60021 0,0 -11.73622,-4.3175 -17.98972,-5.82719 l 0,-22.27064 c -9.30365,-1.89071 -18.93528,-2.92443 -28.79436,-2.92443 -9.85908,0 -19.49071,1.03372 -28.79436,2.92443 l 0,22.27064 c -6.2535,1.50969 -17.98972,5.82719 -17.98972,5.82719 0,0 -11.35169,5.24583 -16.8411,8.60021 l -15.74772,-15.74772 c -7.91561,5.24174 -15.45715,11.32138 -22.42857,18.2928 -6.97142,6.97142 -13.05106,14.51296 -18.2928,22.42857 l 15.74772,15.74772 c -3.35438,5.48941 -8.60022,16.8411 -8.60022,16.8411 0,0 -4.31749,11.73622 -5.82718,17.98972 l -22.27063,0 c -1.89071,9.30365 -2.92443,18.93528 -2.92443,28.79436 0,9.85908 1.03372,19.49071 2.92443,28.79436 l 22.27063,0 c 1.50969,6.2535 5.82719,17.98972 5.82719,17.98972 0,0 5.24583,11.35169 8.60021,16.8411 l -15.74772,15.74772 c 5.24174,7.91561 11.32138,15.45715 18.2928,22.4286 6.97142,6.9714 14.51296,13.051 22.42857,18.2928 l 15.74772,-15.7478 c 5.48941,3.3544 16.8411,8.60025 16.8411,8.60025 0,0 11.73622,4.31755 17.98972,5.82715 l 0,22.2707 c 9.30365,1.8907 18.93528,2.9244 28.79436,2.9244 9.85908,0 19.49071,-1.0337 28.79436,-2.9244 l 0,-22.2707 c 6.2535,-1.5096 17.98972,-5.82715 17.98972,-5.82715 0,0 11.35169,-5.24585 16.8411,-8.60025 l 15.74772,15.7478 c 7.91561,-5.2418 15.45715,-11.3214 22.42857,-18.2928 6.97142,-6.97145 13.05106,-14.51299 18.2928,-22.4286 L 651.4894,728.84451 c 3.35438,-5.48941 8.60022,-16.84109 8.60022,-16.84109 0,0 4.31749,-11.73623 5.82718,-17.98973 l 22.27064,0 c 1.89071,-9.30365 2.92443,-18.93528 2.92443,-28.79436 0,-9.85908 -1.03372,-19.49071 -2.92443,-28.79436 l -22.27064,0 c -1.50969,-6.2535 -5.88057,-18.11861 -5.88057,-18.11861"
         style="fill:none;stroke:#282828;stroke-width:7.19899988;stroke-linecap:round;stroke-linejoin:round;stroke-miterlimit:4;stroke-opacity:1;stroke-dasharray:none;stroke-dashoffset:162"
         id="path58241-0-2-5-8-2-7" />
      <g
         id="g6555">
        <path
           inkscape:connector-curvature="0"
           id="path2990-8-1"
           style="font-size:144px;font-style:normal;font-variant:normal;font-weight:bold;font-stretch:normal;line-height:125%;letter-spacing:0px;word-spacing:0px;fill:#282828;fill-opacity:1;stroke:#282828;stroke-width:7.28403759;stroke-linejoin:round;stroke-miterlimit:4;stroke-opacity:1;stroke-dasharray:none;font-family:DejaVu Sans;-inkscape-font-specification:DejaVu Sans"
           d="m 488.14083,629.05926 50.26131,0 0,14.07704 -31.63705,0 0,13.44816 29.75045,0 0,14.07704 -29.75045,0 0,16.54416 32.7013,0 0,14.07703 -51.32556,0 z" />
        <path
           inkscape:connector-curvature="0"
           id="path2992-9-6"
           style="font-size:144px;font-style:normal;font-variant:normal;font-weight:bold;font-stretch:normal;line-height:125%;letter-spacing:0px;word-spacing:0px;fill:#282828;fill-opacity:1;stroke:#282828;stroke-width:7.28403759;stroke-linejoin:round;stroke-miterlimit:4;stroke-opacity:1;stroke-dasharray:none;stroke-dashoffset:0;font-family:DejaVu Sans;-inkscape-font-specification:DejaVu Sans"
           d="m 605.39505,631.33287 0,15.28641 c -3.96678,-1.77368 -7.83676,-3.11205 -11.60993,-4.0151 -3.77327,-0.90294 -7.33687,-1.35443 -10.69081,-1.3545 -4.45051,7e-5 -7.73998,0.61281 -9.86844,1.83825 -2.12851,1.22554 -3.19275,3.12828 -3.19273,5.70821 -2e-5,1.93504 0.71753,3.44272 2.15267,4.52303 1.43509,1.08042 4.03926,2.0076 7.81252,2.78155 l 7.93345,1.59636 c 8.03015,1.61254 13.73836,4.06352 17.12465,7.35296 3.38616,3.28951 5.07928,7.96573 5.07934,14.02867 -6e-5,7.96571 -2.36236,13.89161 -7.08689,17.7777 -4.72466,3.8861 -11.94054,5.82915 -21.64769,5.82915 -4.5795,0 -9.17509,-0.43538 -13.78679,-1.30612 -4.61173,-0.87074 -9.22345,-2.16073 -13.83516,-3.86997 l 0,-15.72178 c 4.61171,2.451 9.07024,4.2973 13.3756,5.5389 4.30533,1.24163 8.45749,1.86244 12.45649,1.86243 4.06344,10e-6 7.17554,-0.67724 9.33632,-2.03174 2.16069,-1.35447 3.24106,-3.28946 3.2411,-5.80497 -4e-5,-2.25746 -0.73372,-3.99895 -2.20105,-5.22447 -1.4674,-1.22546 -4.39407,-2.32195 -8.78001,-3.28948 l -7.20782,-1.59636 c -7.22398,-1.54795 -12.50488,-4.01507 -15.84272,-7.40133 -3.33786,-3.38619 -5.00679,-7.94953 -5.00678,-13.69004 -10e-6,-7.19165 2.32197,-12.72248 6.96595,-16.59252 4.64396,-3.86991 11.31966,-5.80489 20.02713,-5.80497 3.96669,8e-5 8.04629,0.29838 12.2388,0.89494 4.19243,0.59669 8.53002,1.49162 13.0128,2.68479 z" />
      </g>
      <path
         d="m 638.56688,665.21936 c 0,50.49461 -40.93397,91.42857 -91.42857,91.42857 -50.49461,0 -91.42858,-40.93396 -91.42858,-91.42857 0,-50.49461 40.93397,-91.42857 91.42858,-91.42857 50.4946,0 91.42857,40.93396 91.42857,91.42857 z"
         sodipodi:ry="91.428574"
         sodipodi:rx="91.428574"
         sodipodi:cy="665.21936"
         sodipodi:cx="547.13831"
         id="path6453"
         style="fill:#ffffff;fill-opacity:0;stroke:#282828;stroke-width:8;stroke-linejoin:round;stroke-miterlimit:4;stroke-opacity:1;stroke-dasharray:none;stroke-dashoffset:0"
         sodipodi:type="arc"
         transform="translate(-2.0556641e-6,-4.1259766e-6)" />
    </g>
  </g>
</svg>
